M48
METRIC,LZ,000.000
;FILE_FORMAT=3:3
;TYPE=PLATED
;Layer: PTH_Through
;EasyEDA v6.5.9, 2022-09-16 14:53:16
;a67cddfb3fce44daa9051d46cbbcc19f,10
;Gerber Generator version 0.2
;Holesize 1 = 0.305 mm
T01C0.305
;Holesize 2 = 0.966 mm
T02C0.966
;Holesize 3 = 1.101 mm
T03C1.101
%
G05
G90
T01
X024000Y007500
X024000Y030250
X028000Y015160
X028000Y002000
X027000Y022780
X027000Y005000
X046000Y007540
X046000Y035250
X044000Y015160
X044000Y031500
X043000Y017700
X043000Y034000
X042000Y029000
X041999Y020241
X041000Y022780
X041000Y026500
X004000Y004000
X004000Y013500
X005000Y004760
X005000Y011000
X006000Y007300
X006000Y018500
X044000Y010080
X044000Y003000
X020000Y003000
X042000Y012620
X042000Y001000
X022000Y001000
T02
X002380Y035240
X002380Y032700
X002380Y030160
X002380Y027620
X002380Y025080
X002380Y022540
X002380Y020000
X002380Y017460
X002380Y014920
X002380Y012380
X002380Y009840
X002380Y007300
X002380Y004760
X002380Y002220
X004920Y002220
X007460Y002220
X010000Y002220
X012540Y002220
X015080Y002220
X017620Y002220
X017620Y004760
X017620Y007300
X017620Y009840
X017620Y012380
X017620Y014920
X017620Y017460
X017620Y020000
X017620Y022540
X017620Y025080
X017620Y027620
X017620Y030160
X017620Y032700
X017620Y035240
X015080Y032700
X015080Y027620
X015080Y025080
X015080Y022540
T03
X030000Y005000
X030000Y007540
X052860Y007540
X052860Y005000
X030000Y010080
X030000Y012620
X052860Y012620
X052860Y010080
X030000Y015160
X030000Y017700
X052860Y017700
X052860Y015160
X030000Y020240
X030000Y022780
X052860Y022780
X052860Y020240
M30
