G04 Layer: TopLayer*
G04 EasyEDA v6.5.9, 2022-09-16 14:53:16*
G04 a67cddfb3fce44daa9051d46cbbcc19f,10*
G04 Gerber Generator version 0.2*
G04 Scale: 100 percent, Rotated: No, Reflected: No *
G04 Dimensions in millimeters *
G04 leading zeros omitted , absolute positions ,4 integer and 5 decimal *
%FSLAX45Y45*%
%MOMM*%

%ADD10C,1.0000*%
%ADD11C,0.2500*%
%ADD12C,2.0000*%
%ADD13C,1.5240*%
%ADD14C,0.6096*%
%ADD15C,0.0162*%

%LPD*%
G36*
X200863Y25908D02*
G01*
X182422Y26873D01*
X165557Y29413D01*
X148996Y33578D01*
X132943Y39420D01*
X117500Y46736D01*
X102870Y55575D01*
X89204Y65786D01*
X76606Y77266D01*
X65125Y89966D01*
X55016Y103733D01*
X46278Y118414D01*
X39014Y133858D01*
X33324Y149961D01*
X29209Y166522D01*
X26771Y183438D01*
X25908Y200863D01*
X25908Y4299153D01*
X26873Y4317542D01*
X29413Y4334408D01*
X33578Y4350969D01*
X39420Y4367072D01*
X46736Y4382465D01*
X55575Y4397095D01*
X65786Y4410760D01*
X77266Y4423410D01*
X89966Y4434840D01*
X103733Y4445000D01*
X118414Y4453737D01*
X133858Y4460951D01*
X149961Y4466691D01*
X166522Y4470806D01*
X183438Y4473244D01*
X200863Y4474057D01*
X5299151Y4474057D01*
X5317540Y4473143D01*
X5334406Y4470603D01*
X5350967Y4466386D01*
X5367070Y4460595D01*
X5382463Y4453229D01*
X5397093Y4444441D01*
X5410758Y4434230D01*
X5423408Y4422698D01*
X5434838Y4409998D01*
X5444998Y4396282D01*
X5453735Y4381601D01*
X5460949Y4366107D01*
X5466689Y4350054D01*
X5470804Y4333443D01*
X5473242Y4316577D01*
X5474106Y4299153D01*
X5474106Y200863D01*
X5473141Y182422D01*
X5470601Y165557D01*
X5466384Y148996D01*
X5460593Y132943D01*
X5453227Y117500D01*
X5444439Y102870D01*
X5434228Y89204D01*
X5422696Y76606D01*
X5409996Y65125D01*
X5396280Y55016D01*
X5381599Y46278D01*
X5366105Y39014D01*
X5350052Y33324D01*
X5333441Y29209D01*
X5316575Y26771D01*
X5299151Y25908D01*
X4217517Y25908D01*
X4213453Y26771D01*
X4210100Y29159D01*
X4207967Y32715D01*
X4207408Y36830D01*
X4208576Y40792D01*
X4211218Y43992D01*
X4214926Y45872D01*
X4219244Y47040D01*
X4228185Y51206D01*
X4236212Y56845D01*
X4243171Y63754D01*
X4248810Y71831D01*
X4252925Y80721D01*
X4255465Y90220D01*
X4256328Y99974D01*
X4255465Y109778D01*
X4252925Y119278D01*
X4248810Y128168D01*
X4243171Y136245D01*
X4236212Y143154D01*
X4228185Y148793D01*
X4219244Y152958D01*
X4209796Y155498D01*
X4199991Y156362D01*
X4190187Y155498D01*
X4180738Y152958D01*
X4171797Y148793D01*
X4163771Y143154D01*
X4161993Y141376D01*
X4158691Y139192D01*
X4154830Y138430D01*
X2842107Y138430D01*
X2837992Y139293D01*
X2834538Y141782D01*
X2832455Y145440D01*
X2832049Y149656D01*
X2833370Y153720D01*
X2843174Y163779D01*
X2848813Y171805D01*
X2852928Y180746D01*
X2855468Y190195D01*
X2856331Y199999D01*
X2855468Y209804D01*
X2852928Y219252D01*
X2848813Y228193D01*
X2843174Y236220D01*
X2833370Y246278D01*
X2832049Y250342D01*
X2832455Y254558D01*
X2834538Y258216D01*
X2837992Y260705D01*
X2842107Y261569D01*
X4354830Y261569D01*
X4358690Y260807D01*
X4361992Y258622D01*
X4363770Y256844D01*
X4371797Y251206D01*
X4380738Y247040D01*
X4390186Y244500D01*
X4399991Y243636D01*
X4409795Y244500D01*
X4419244Y247040D01*
X4428185Y251206D01*
X4436211Y256844D01*
X4443171Y263753D01*
X4448810Y271830D01*
X4452924Y280720D01*
X4455464Y290220D01*
X4456328Y299974D01*
X4455464Y309778D01*
X4452924Y319278D01*
X4448810Y328168D01*
X4443171Y336245D01*
X4436211Y343154D01*
X4428185Y348792D01*
X4419244Y352958D01*
X4409795Y355498D01*
X4399991Y356362D01*
X4390186Y355498D01*
X4380738Y352958D01*
X4371797Y348792D01*
X4363770Y343154D01*
X4361992Y341376D01*
X4358690Y339191D01*
X4354830Y338429D01*
X2045157Y338429D01*
X2041296Y339191D01*
X2037994Y341376D01*
X2036216Y343154D01*
X2028189Y348792D01*
X2019249Y352958D01*
X2009800Y355498D01*
X1999996Y356362D01*
X1990191Y355498D01*
X1980742Y352958D01*
X1971802Y348792D01*
X1963775Y343154D01*
X1956816Y336245D01*
X1951177Y328168D01*
X1947062Y319278D01*
X1944522Y309778D01*
X1943658Y299974D01*
X1944522Y290220D01*
X1947062Y280720D01*
X1951177Y271830D01*
X1956816Y263753D01*
X1963775Y256844D01*
X1966620Y253695D01*
X1967941Y249682D01*
X1967534Y245465D01*
X1965452Y241808D01*
X1961997Y239267D01*
X1957882Y238404D01*
X1870913Y238404D01*
X1867509Y239014D01*
X1864461Y240690D01*
X1862226Y243332D01*
X1860956Y246532D01*
X1860448Y248970D01*
X1855978Y261874D01*
X1849831Y274015D01*
X1842109Y285242D01*
X1832965Y295402D01*
X1822551Y304190D01*
X1811070Y311505D01*
X1798675Y317246D01*
X1785670Y321310D01*
X1772208Y323545D01*
X1758594Y324002D01*
X1745030Y322681D01*
X1731772Y319481D01*
X1719021Y314604D01*
X1707083Y308051D01*
X1696110Y299974D01*
X1686306Y290474D01*
X1677822Y279755D01*
X1670862Y268020D01*
X1665579Y255473D01*
X1661972Y242316D01*
X1660143Y228803D01*
X1660143Y215188D01*
X1661972Y201676D01*
X1665579Y188518D01*
X1670862Y175971D01*
X1677822Y164236D01*
X1686306Y153517D01*
X1696110Y144018D01*
X1707083Y135940D01*
X1719021Y129387D01*
X1731772Y124510D01*
X1745030Y121310D01*
X1758594Y119989D01*
X1772208Y120446D01*
X1785670Y122682D01*
X1798675Y126746D01*
X1811070Y132486D01*
X1822551Y139801D01*
X1832965Y148590D01*
X1841703Y158242D01*
X1845106Y160731D01*
X1849221Y161594D01*
X2157882Y161594D01*
X2161997Y160731D01*
X2165451Y158191D01*
X2167534Y154533D01*
X2167940Y150317D01*
X2166620Y146304D01*
X2163775Y143154D01*
X2156815Y136245D01*
X2151176Y128168D01*
X2147062Y119278D01*
X2144522Y109778D01*
X2143658Y99974D01*
X2144522Y90220D01*
X2147062Y80721D01*
X2151176Y71831D01*
X2156815Y63754D01*
X2163775Y56845D01*
X2171801Y51206D01*
X2180742Y47040D01*
X2185060Y45872D01*
X2188768Y43992D01*
X2191410Y40792D01*
X2192578Y36830D01*
X2192020Y32715D01*
X2189886Y29159D01*
X2186533Y26771D01*
X2182469Y25908D01*
G37*

%LPC*%
G36*
X146202Y3568446D02*
G01*
X193548Y3568446D01*
X193548Y3615791D01*
X183083Y3610051D01*
X172110Y3601974D01*
X162306Y3592474D01*
X153822Y3581755D01*
X146862Y3570020D01*
G37*
G36*
X488594Y119989D02*
G01*
X502208Y120446D01*
X515670Y122682D01*
X528675Y126746D01*
X541070Y132486D01*
X552551Y139801D01*
X562965Y148590D01*
X572109Y158750D01*
X579831Y169976D01*
X585978Y182118D01*
X590448Y195021D01*
X593191Y208381D01*
X594106Y221996D01*
X593191Y235610D01*
X590448Y248970D01*
X585978Y261874D01*
X579831Y274015D01*
X572109Y285242D01*
X562965Y295402D01*
X552551Y304190D01*
X541070Y311505D01*
X528675Y317246D01*
X515670Y321310D01*
X502208Y323545D01*
X488594Y324002D01*
X475030Y322681D01*
X461772Y319481D01*
X449021Y314604D01*
X437083Y308051D01*
X426110Y299974D01*
X416306Y290474D01*
X407822Y279755D01*
X400862Y268020D01*
X395579Y255473D01*
X391972Y242316D01*
X390144Y228803D01*
X390144Y215188D01*
X391972Y201676D01*
X395579Y188518D01*
X400862Y175971D01*
X407822Y164236D01*
X416306Y153517D01*
X426110Y144018D01*
X437083Y135940D01*
X449021Y129387D01*
X461772Y124510D01*
X475030Y121310D01*
G37*
G36*
X1504594Y119989D02*
G01*
X1518208Y120446D01*
X1531670Y122682D01*
X1544675Y126746D01*
X1557070Y132486D01*
X1568551Y139801D01*
X1578965Y148590D01*
X1588109Y158750D01*
X1595831Y169976D01*
X1601978Y182118D01*
X1606448Y195021D01*
X1609191Y208381D01*
X1610106Y221996D01*
X1609191Y235610D01*
X1606448Y248970D01*
X1601978Y261874D01*
X1595831Y274015D01*
X1588109Y285242D01*
X1578965Y295402D01*
X1568551Y304190D01*
X1557070Y311505D01*
X1544675Y317246D01*
X1531670Y321310D01*
X1518208Y323545D01*
X1504594Y324002D01*
X1491030Y322681D01*
X1477772Y319481D01*
X1465021Y314604D01*
X1453083Y308051D01*
X1442110Y299974D01*
X1432306Y290474D01*
X1423822Y279755D01*
X1416862Y268020D01*
X1411579Y255473D01*
X1407972Y242316D01*
X1406144Y228803D01*
X1406144Y215188D01*
X1407972Y201676D01*
X1411579Y188518D01*
X1416862Y175971D01*
X1423822Y164236D01*
X1432306Y153517D01*
X1442110Y144018D01*
X1453083Y135940D01*
X1465021Y129387D01*
X1477772Y124510D01*
X1491030Y121310D01*
G37*
G36*
X1250594Y119989D02*
G01*
X1264208Y120446D01*
X1277670Y122682D01*
X1290675Y126746D01*
X1303070Y132486D01*
X1314551Y139801D01*
X1324965Y148590D01*
X1334109Y158750D01*
X1341831Y169976D01*
X1347978Y182118D01*
X1352448Y195021D01*
X1355191Y208381D01*
X1356106Y221996D01*
X1355191Y235610D01*
X1352448Y248970D01*
X1347978Y261874D01*
X1341831Y274015D01*
X1334109Y285242D01*
X1324965Y295402D01*
X1314551Y304190D01*
X1303070Y311505D01*
X1290675Y317246D01*
X1277670Y321310D01*
X1264208Y323545D01*
X1250594Y324002D01*
X1237030Y322681D01*
X1223772Y319481D01*
X1211021Y314604D01*
X1199083Y308051D01*
X1188110Y299974D01*
X1178306Y290474D01*
X1169822Y279755D01*
X1162862Y268020D01*
X1157579Y255473D01*
X1153972Y242316D01*
X1152144Y228803D01*
X1152144Y215188D01*
X1153972Y201676D01*
X1157579Y188518D01*
X1162862Y175971D01*
X1169822Y164236D01*
X1178306Y153517D01*
X1188110Y144018D01*
X1199083Y135940D01*
X1211021Y129387D01*
X1223772Y124510D01*
X1237030Y121310D01*
G37*
G36*
X742594Y119989D02*
G01*
X756208Y120446D01*
X769670Y122682D01*
X782675Y126746D01*
X795070Y132486D01*
X806551Y139801D01*
X816965Y148590D01*
X826109Y158750D01*
X833831Y169976D01*
X839978Y182118D01*
X844448Y195021D01*
X847191Y208381D01*
X848106Y221996D01*
X847191Y235610D01*
X844448Y248970D01*
X839978Y261874D01*
X833831Y274015D01*
X826109Y285242D01*
X816965Y295402D01*
X806551Y304190D01*
X795070Y311505D01*
X782675Y317246D01*
X769670Y321310D01*
X756208Y323545D01*
X742594Y324002D01*
X729030Y322681D01*
X715772Y319481D01*
X703021Y314604D01*
X691083Y308051D01*
X680110Y299974D01*
X670306Y290474D01*
X661822Y279755D01*
X654862Y268020D01*
X649579Y255473D01*
X645972Y242316D01*
X644144Y228803D01*
X644144Y215188D01*
X645972Y201676D01*
X649579Y188518D01*
X654862Y175971D01*
X661822Y164236D01*
X670306Y153517D01*
X680110Y144018D01*
X691083Y135940D01*
X703021Y129387D01*
X715772Y124510D01*
X729030Y121310D01*
G37*
G36*
X996594Y119989D02*
G01*
X1010208Y120446D01*
X1023670Y122682D01*
X1036675Y126746D01*
X1049070Y132486D01*
X1060551Y139801D01*
X1070965Y148590D01*
X1080109Y158750D01*
X1087831Y169976D01*
X1093978Y182118D01*
X1098448Y195021D01*
X1101191Y208381D01*
X1102106Y221996D01*
X1101191Y235610D01*
X1098448Y248970D01*
X1093978Y261874D01*
X1087831Y274015D01*
X1080109Y285242D01*
X1070965Y295402D01*
X1060551Y304190D01*
X1049070Y311505D01*
X1036675Y317246D01*
X1023670Y321310D01*
X1010208Y323545D01*
X996594Y324002D01*
X983030Y322681D01*
X969771Y319481D01*
X957021Y314604D01*
X945083Y308051D01*
X934110Y299974D01*
X924306Y290474D01*
X915822Y279755D01*
X908862Y268020D01*
X903579Y255473D01*
X899972Y242316D01*
X898144Y228803D01*
X898144Y215188D01*
X899972Y201676D01*
X903579Y188518D01*
X908862Y175971D01*
X915822Y164236D01*
X924306Y153517D01*
X934110Y144018D01*
X945083Y135940D01*
X957021Y129387D01*
X969771Y124510D01*
X983030Y121310D01*
G37*
G36*
X234594Y119989D02*
G01*
X248208Y120446D01*
X261670Y122682D01*
X274675Y126746D01*
X287070Y132486D01*
X298551Y139801D01*
X308965Y148590D01*
X318109Y158750D01*
X325831Y169976D01*
X331978Y182118D01*
X336448Y195021D01*
X339191Y208381D01*
X340106Y221996D01*
X339191Y235610D01*
X336448Y248970D01*
X331978Y261874D01*
X329996Y265785D01*
X328930Y269849D01*
X329590Y274015D01*
X331876Y277571D01*
X395173Y340817D01*
X398068Y342849D01*
X401472Y343763D01*
X409803Y344525D01*
X419252Y347065D01*
X428193Y351180D01*
X436219Y356819D01*
X443179Y363778D01*
X448818Y371805D01*
X452932Y380746D01*
X455472Y390194D01*
X456336Y399999D01*
X455472Y409803D01*
X453186Y418338D01*
X452983Y422452D01*
X454355Y426313D01*
X457200Y429259D01*
X460959Y430885D01*
X465074Y430885D01*
X468833Y429259D01*
X471830Y427177D01*
X480720Y423062D01*
X490220Y420522D01*
X500024Y419658D01*
X509778Y420522D01*
X519277Y423062D01*
X528167Y427177D01*
X536244Y432816D01*
X543153Y439775D01*
X548792Y447801D01*
X552958Y456742D01*
X555498Y466191D01*
X556361Y475996D01*
X555498Y485800D01*
X552958Y495249D01*
X548792Y504190D01*
X543153Y512216D01*
X536244Y519176D01*
X528167Y524814D01*
X519277Y528929D01*
X509778Y531469D01*
X500024Y532333D01*
X490220Y531469D01*
X480720Y528929D01*
X471830Y524814D01*
X463753Y519176D01*
X461975Y517398D01*
X458724Y515162D01*
X454812Y514400D01*
X338937Y514400D01*
X335330Y515061D01*
X332130Y517042D01*
X329895Y519988D01*
X325831Y528015D01*
X318109Y539242D01*
X308965Y549402D01*
X298551Y558190D01*
X287070Y565505D01*
X274675Y571246D01*
X261670Y575310D01*
X248208Y577545D01*
X234594Y578002D01*
X221030Y576681D01*
X207771Y573481D01*
X195021Y568604D01*
X183083Y562051D01*
X172110Y553974D01*
X162306Y544474D01*
X153822Y533755D01*
X146862Y522020D01*
X141579Y509473D01*
X137972Y496316D01*
X136144Y482803D01*
X136144Y469188D01*
X137972Y455676D01*
X141579Y442518D01*
X146862Y429971D01*
X153822Y418236D01*
X162306Y407517D01*
X172110Y398018D01*
X183083Y389940D01*
X195021Y383387D01*
X207771Y378510D01*
X221030Y375310D01*
X234594Y373989D01*
X248208Y374446D01*
X261670Y376682D01*
X274675Y380746D01*
X287070Y386486D01*
X298551Y393801D01*
X308965Y402590D01*
X318109Y412750D01*
X325831Y423976D01*
X329895Y432003D01*
X332130Y434949D01*
X335330Y436930D01*
X339648Y437591D01*
X343611Y436778D01*
X346964Y434492D01*
X349148Y431088D01*
X349808Y427075D01*
X348843Y423113D01*
X347065Y419252D01*
X344525Y409803D01*
X343763Y401472D01*
X342849Y398068D01*
X340817Y395173D01*
X269900Y324256D01*
X267309Y322376D01*
X264261Y321360D01*
X261061Y321411D01*
X248208Y323545D01*
X234594Y324002D01*
X221030Y322681D01*
X207771Y319481D01*
X195021Y314604D01*
X183083Y308051D01*
X172110Y299974D01*
X162306Y290474D01*
X153822Y279755D01*
X146862Y268020D01*
X141579Y255473D01*
X137972Y242316D01*
X136144Y228803D01*
X136144Y215188D01*
X137972Y201676D01*
X141579Y188518D01*
X146862Y175971D01*
X153822Y164236D01*
X162306Y153517D01*
X172110Y144018D01*
X183083Y135940D01*
X195021Y129387D01*
X207771Y124510D01*
X221030Y121310D01*
G37*
G36*
X282448Y3568446D02*
G01*
X329641Y3568446D01*
X325831Y3576015D01*
X318109Y3587242D01*
X308965Y3597401D01*
X298551Y3606190D01*
X287070Y3613505D01*
X282448Y3615639D01*
G37*
G36*
X282448Y3432352D02*
G01*
X287070Y3434486D01*
X298551Y3441801D01*
X308965Y3450590D01*
X318109Y3460750D01*
X325831Y3471976D01*
X329641Y3479546D01*
X282448Y3479546D01*
G37*
G36*
X193548Y3432200D02*
G01*
X193548Y3479546D01*
X146202Y3479546D01*
X146862Y3477971D01*
X153822Y3466236D01*
X162306Y3455517D01*
X172110Y3446018D01*
X183083Y3437940D01*
G37*
G36*
X234594Y2405989D02*
G01*
X248208Y2406446D01*
X261670Y2408682D01*
X274675Y2412746D01*
X287070Y2418486D01*
X298551Y2425801D01*
X308965Y2434590D01*
X318109Y2444750D01*
X325831Y2455976D01*
X331978Y2468118D01*
X336448Y2481021D01*
X339191Y2494381D01*
X340106Y2507996D01*
X339191Y2521610D01*
X336448Y2534970D01*
X334111Y2541676D01*
X333552Y2545435D01*
X334416Y2549093D01*
X336550Y2552192D01*
X392938Y2608630D01*
X396240Y2610815D01*
X400100Y2611577D01*
X1445971Y2611577D01*
X1450086Y2610713D01*
X1453489Y2608224D01*
X1455623Y2604617D01*
X1456080Y2600401D01*
X1454810Y2596388D01*
X1451965Y2593238D01*
X1442110Y2585974D01*
X1432306Y2576474D01*
X1423822Y2565755D01*
X1416862Y2554020D01*
X1411579Y2541473D01*
X1407972Y2528316D01*
X1406144Y2514803D01*
X1406144Y2501188D01*
X1407972Y2487676D01*
X1411579Y2474518D01*
X1416862Y2461971D01*
X1423822Y2450236D01*
X1432306Y2439517D01*
X1442110Y2430018D01*
X1453083Y2421940D01*
X1465021Y2415387D01*
X1477772Y2410510D01*
X1491030Y2407310D01*
X1504594Y2405989D01*
X1518208Y2406446D01*
X1531670Y2408682D01*
X1544675Y2412746D01*
X1557070Y2418486D01*
X1568551Y2425801D01*
X1578965Y2434590D01*
X1588109Y2444750D01*
X1595831Y2455976D01*
X1601978Y2468118D01*
X1606448Y2481021D01*
X1609191Y2494381D01*
X1610106Y2507996D01*
X1609191Y2521610D01*
X1606448Y2534970D01*
X1601978Y2547874D01*
X1595831Y2560015D01*
X1588109Y2571242D01*
X1578965Y2581402D01*
X1568551Y2590190D01*
X1564335Y2592882D01*
X1561287Y2595930D01*
X1559763Y2599944D01*
X1560068Y2604262D01*
X1562150Y2608072D01*
X1565605Y2610662D01*
X1569821Y2611577D01*
X1699971Y2611577D01*
X1704086Y2610713D01*
X1707489Y2608224D01*
X1709623Y2604617D01*
X1710080Y2600401D01*
X1708810Y2596388D01*
X1705965Y2593238D01*
X1696110Y2585974D01*
X1686306Y2576474D01*
X1677822Y2565755D01*
X1670862Y2554020D01*
X1665579Y2541473D01*
X1661972Y2528316D01*
X1660143Y2514803D01*
X1660143Y2501188D01*
X1661972Y2487676D01*
X1665579Y2474518D01*
X1670862Y2461971D01*
X1677822Y2450236D01*
X1686306Y2439517D01*
X1696110Y2430018D01*
X1707083Y2421940D01*
X1719021Y2415387D01*
X1731772Y2410510D01*
X1745030Y2407310D01*
X1758594Y2405989D01*
X1772208Y2406446D01*
X1785670Y2408682D01*
X1798675Y2412746D01*
X1811070Y2418486D01*
X1822551Y2425801D01*
X1832965Y2434590D01*
X1842109Y2444750D01*
X1849831Y2455976D01*
X1855978Y2468118D01*
X1860448Y2481021D01*
X1863191Y2494381D01*
X1864106Y2507996D01*
X1863191Y2521610D01*
X1860448Y2534970D01*
X1855978Y2547874D01*
X1849831Y2560015D01*
X1842109Y2571242D01*
X1832965Y2581402D01*
X1822551Y2590190D01*
X1818335Y2592882D01*
X1815287Y2595930D01*
X1813763Y2599944D01*
X1814068Y2604262D01*
X1816150Y2608072D01*
X1819605Y2610662D01*
X1823821Y2611577D01*
X4054805Y2611577D01*
X4058716Y2610815D01*
X4061968Y2608630D01*
X4063746Y2606852D01*
X4071823Y2601214D01*
X4080713Y2597048D01*
X4090212Y2594508D01*
X4100017Y2593644D01*
X4109770Y2594508D01*
X4119270Y2597048D01*
X4128160Y2601214D01*
X4136237Y2606852D01*
X4143146Y2613761D01*
X4148785Y2621838D01*
X4152950Y2630728D01*
X4155490Y2640228D01*
X4156354Y2649982D01*
X4155490Y2659786D01*
X4152950Y2669286D01*
X4148785Y2678176D01*
X4143146Y2686202D01*
X4136237Y2693162D01*
X4128160Y2698800D01*
X4119270Y2702966D01*
X4109770Y2705506D01*
X4100017Y2706319D01*
X4090212Y2705506D01*
X4080713Y2702966D01*
X4071823Y2698800D01*
X4063746Y2693162D01*
X4061968Y2691384D01*
X4058716Y2689199D01*
X4054805Y2688386D01*
X1854301Y2688386D01*
X1850034Y2689352D01*
X1846580Y2691993D01*
X1844548Y2695854D01*
X1844293Y2700274D01*
X1845970Y2704338D01*
X1849831Y2709976D01*
X1855978Y2722118D01*
X1860448Y2735021D01*
X1863191Y2748381D01*
X1864106Y2761996D01*
X1863191Y2775610D01*
X1860448Y2788970D01*
X1855978Y2801874D01*
X1849831Y2814015D01*
X1842109Y2825242D01*
X1832965Y2835402D01*
X1823262Y2843580D01*
X1820722Y2846832D01*
X1819656Y2850794D01*
X1820265Y2854858D01*
X1822450Y2858312D01*
X1825802Y2860700D01*
X1829816Y2861513D01*
X4154881Y2861513D01*
X4158792Y2860751D01*
X4162044Y2858516D01*
X4163771Y2856839D01*
X4171797Y2851200D01*
X4180738Y2847035D01*
X4190187Y2844495D01*
X4199991Y2843631D01*
X4209796Y2844495D01*
X4219244Y2847035D01*
X4228185Y2851200D01*
X4236212Y2856839D01*
X4243171Y2863748D01*
X4248810Y2871825D01*
X4252925Y2880715D01*
X4255465Y2890215D01*
X4256328Y2899968D01*
X4255465Y2909773D01*
X4252925Y2919272D01*
X4248810Y2928162D01*
X4243171Y2936240D01*
X4236212Y2943148D01*
X4228185Y2948787D01*
X4219244Y2952953D01*
X4209796Y2955493D01*
X4199991Y2956356D01*
X4190187Y2955493D01*
X4180738Y2952953D01*
X4171797Y2948787D01*
X4163771Y2943148D01*
X4161891Y2941320D01*
X4158640Y2939084D01*
X4154728Y2938322D01*
X2439162Y2938322D01*
X2434844Y2939288D01*
X2431338Y2941980D01*
X2429357Y2945841D01*
X2429154Y2950260D01*
X2430830Y2954324D01*
X2434082Y2957271D01*
X2442718Y2962300D01*
X2451608Y2969361D01*
X2459329Y2977692D01*
X2465730Y2987040D01*
X2470607Y2997250D01*
X2473960Y3008122D01*
X2475687Y3019298D01*
X2475687Y3030677D01*
X2473960Y3041853D01*
X2470607Y3052724D01*
X2465730Y3062935D01*
X2459329Y3072282D01*
X2451608Y3080613D01*
X2442718Y3087674D01*
X2434183Y3092602D01*
X2430932Y3095599D01*
X2429256Y3099663D01*
X2429459Y3104032D01*
X2431491Y3107944D01*
X2434945Y3110636D01*
X2439263Y3111601D01*
X4354830Y3111601D01*
X4358690Y3110788D01*
X4361992Y3108604D01*
X4363770Y3106826D01*
X4371797Y3101187D01*
X4380738Y3097022D01*
X4390186Y3094482D01*
X4399991Y3093669D01*
X4409795Y3094482D01*
X4419244Y3097022D01*
X4428185Y3101187D01*
X4436211Y3106826D01*
X4443171Y3113786D01*
X4448810Y3121812D01*
X4452924Y3130702D01*
X4455464Y3140202D01*
X4456328Y3150006D01*
X4455464Y3159760D01*
X4452924Y3169259D01*
X4448810Y3178149D01*
X4443171Y3186226D01*
X4436211Y3193135D01*
X4428185Y3198774D01*
X4419244Y3202940D01*
X4409795Y3205480D01*
X4399991Y3206343D01*
X4390186Y3205480D01*
X4380738Y3202940D01*
X4371797Y3198774D01*
X4363770Y3193135D01*
X4361992Y3191357D01*
X4358690Y3189173D01*
X4354830Y3188411D01*
X1848408Y3188411D01*
X1844598Y3189122D01*
X1841347Y3191256D01*
X1839163Y3194456D01*
X1838248Y3198215D01*
X1838909Y3202076D01*
X1840890Y3205378D01*
X1842109Y3206750D01*
X1849831Y3217976D01*
X1853641Y3225546D01*
X1806448Y3225546D01*
X1806448Y3198571D01*
X1805686Y3194659D01*
X1803450Y3191357D01*
X1800199Y3189173D01*
X1796288Y3188411D01*
X1727707Y3188411D01*
X1723796Y3189173D01*
X1720545Y3191357D01*
X1718310Y3194659D01*
X1717548Y3198571D01*
X1717548Y3225546D01*
X1670202Y3225546D01*
X1670862Y3223971D01*
X1677822Y3212236D01*
X1683664Y3204870D01*
X1685594Y3200806D01*
X1685594Y3196285D01*
X1683613Y3192221D01*
X1680057Y3189427D01*
X1675688Y3188411D01*
X1594408Y3188411D01*
X1590598Y3189122D01*
X1587347Y3191256D01*
X1585163Y3194456D01*
X1584248Y3198215D01*
X1584909Y3202076D01*
X1586890Y3205378D01*
X1588109Y3206750D01*
X1595831Y3217976D01*
X1601978Y3230118D01*
X1606448Y3243021D01*
X1609191Y3256381D01*
X1610106Y3269996D01*
X1609191Y3283610D01*
X1606448Y3296970D01*
X1601978Y3309874D01*
X1595831Y3322015D01*
X1588109Y3333242D01*
X1578610Y3343656D01*
X1576070Y3346907D01*
X1575054Y3350869D01*
X1575663Y3354933D01*
X1577797Y3358387D01*
X1581150Y3360775D01*
X1585163Y3361588D01*
X1685036Y3361588D01*
X1688998Y3360775D01*
X1692300Y3358591D01*
X1694484Y3355238D01*
X1695196Y3351326D01*
X1694383Y3347415D01*
X1692148Y3344113D01*
X1686306Y3338474D01*
X1677822Y3327755D01*
X1670862Y3316020D01*
X1670202Y3314446D01*
X1717548Y3314446D01*
X1717548Y3351428D01*
X1718310Y3355289D01*
X1720545Y3358591D01*
X1723796Y3360826D01*
X1727707Y3361588D01*
X1796288Y3361588D01*
X1800199Y3360826D01*
X1803450Y3358591D01*
X1805686Y3355289D01*
X1806448Y3351428D01*
X1806448Y3314446D01*
X1853641Y3314446D01*
X1849831Y3322015D01*
X1842109Y3333242D01*
X1832610Y3343656D01*
X1830070Y3346907D01*
X1829054Y3350869D01*
X1829663Y3354933D01*
X1831797Y3358387D01*
X1835150Y3360775D01*
X1839163Y3361588D01*
X4254804Y3361588D01*
X4258716Y3360826D01*
X4261967Y3358591D01*
X4263745Y3356813D01*
X4271822Y3351174D01*
X4280712Y3347059D01*
X4290212Y3344519D01*
X4300016Y3343656D01*
X4309770Y3344519D01*
X4319270Y3347059D01*
X4328160Y3351174D01*
X4336237Y3356813D01*
X4343146Y3363772D01*
X4348784Y3371799D01*
X4352950Y3380740D01*
X4355490Y3390188D01*
X4356354Y3399993D01*
X4355490Y3409797D01*
X4352950Y3419246D01*
X4348784Y3428187D01*
X4345330Y3433114D01*
X4343654Y3437178D01*
X4343857Y3441547D01*
X4345889Y3445459D01*
X4349394Y3448151D01*
X4353661Y3449065D01*
X4599635Y3449065D01*
X4611319Y3449929D01*
X4622342Y3452469D01*
X4632909Y3456635D01*
X4642713Y3462274D01*
X4651603Y3469386D01*
X4659325Y3477666D01*
X4665726Y3487064D01*
X4670602Y3497275D01*
X4673955Y3508095D01*
X4675682Y3519322D01*
X4675682Y3530650D01*
X4673955Y3541877D01*
X4670602Y3552698D01*
X4665726Y3562908D01*
X4659325Y3572306D01*
X4651603Y3580587D01*
X4642713Y3587699D01*
X4632909Y3593337D01*
X4622342Y3597503D01*
X4611319Y3600043D01*
X4599635Y3600907D01*
X1832508Y3600907D01*
X1829054Y3601516D01*
X1825955Y3603294D01*
X1822551Y3606190D01*
X1811070Y3613505D01*
X1798675Y3619246D01*
X1785670Y3623310D01*
X1772208Y3625545D01*
X1758594Y3626002D01*
X1745030Y3624681D01*
X1731772Y3621481D01*
X1719021Y3616604D01*
X1707083Y3610051D01*
X1696110Y3601974D01*
X1686306Y3592474D01*
X1677822Y3581755D01*
X1670862Y3570020D01*
X1665579Y3557473D01*
X1661972Y3544315D01*
X1660143Y3530803D01*
X1660143Y3517188D01*
X1661972Y3503676D01*
X1665579Y3490518D01*
X1670862Y3477971D01*
X1677822Y3466236D01*
X1686814Y3454857D01*
X1688592Y3451504D01*
X1688998Y3447796D01*
X1688033Y3444138D01*
X1685747Y3441090D01*
X1682597Y3439109D01*
X1678889Y3438398D01*
X368503Y3438398D01*
X360527Y3437636D01*
X353314Y3435451D01*
X346659Y3431895D01*
X340461Y3426815D01*
X282295Y3368598D01*
X279247Y3366515D01*
X275691Y3365652D01*
X272084Y3366058D01*
X261670Y3369310D01*
X248208Y3371545D01*
X234594Y3372002D01*
X221030Y3370681D01*
X207771Y3367481D01*
X195021Y3362604D01*
X183083Y3356051D01*
X172110Y3347974D01*
X162306Y3338474D01*
X153822Y3327755D01*
X146862Y3316020D01*
X141579Y3303473D01*
X137972Y3290315D01*
X136144Y3276803D01*
X136144Y3263188D01*
X137972Y3249676D01*
X141579Y3236518D01*
X146862Y3223971D01*
X153822Y3212236D01*
X162306Y3201517D01*
X172110Y3192018D01*
X183083Y3183940D01*
X195021Y3177387D01*
X207771Y3172510D01*
X221030Y3169310D01*
X234594Y3167989D01*
X248208Y3168446D01*
X261670Y3170682D01*
X274675Y3174746D01*
X287070Y3180486D01*
X298551Y3187801D01*
X308965Y3196590D01*
X318109Y3206750D01*
X325831Y3217976D01*
X331978Y3230118D01*
X336448Y3243021D01*
X339191Y3256381D01*
X340106Y3269996D01*
X339191Y3283610D01*
X336448Y3296970D01*
X334111Y3303676D01*
X333552Y3307435D01*
X334416Y3311093D01*
X336550Y3314192D01*
X380949Y3358591D01*
X384200Y3360826D01*
X388112Y3361588D01*
X1431036Y3361588D01*
X1434998Y3360775D01*
X1438300Y3358591D01*
X1440484Y3355238D01*
X1441196Y3351326D01*
X1440383Y3347415D01*
X1438148Y3344113D01*
X1432306Y3338474D01*
X1423822Y3327755D01*
X1416862Y3316020D01*
X1411579Y3303473D01*
X1407972Y3290315D01*
X1406144Y3276803D01*
X1406144Y3263188D01*
X1407972Y3249676D01*
X1411579Y3236518D01*
X1416862Y3223971D01*
X1423822Y3212236D01*
X1429664Y3204870D01*
X1431594Y3200806D01*
X1431594Y3196285D01*
X1429613Y3192221D01*
X1426057Y3189427D01*
X1421688Y3188411D01*
X372516Y3188411D01*
X364490Y3187598D01*
X357327Y3185414D01*
X350672Y3181908D01*
X344474Y3176778D01*
X282295Y3114598D01*
X279247Y3112516D01*
X275691Y3111652D01*
X272084Y3112058D01*
X261670Y3115310D01*
X248208Y3117545D01*
X234594Y3118002D01*
X221030Y3116681D01*
X207771Y3113481D01*
X195021Y3108604D01*
X183083Y3102051D01*
X172110Y3093974D01*
X162306Y3084474D01*
X153822Y3073755D01*
X146862Y3062020D01*
X141579Y3049473D01*
X137972Y3036316D01*
X136144Y3022803D01*
X136144Y3009188D01*
X137972Y2995676D01*
X141579Y2982518D01*
X146862Y2969971D01*
X153822Y2958236D01*
X162306Y2947517D01*
X172110Y2938018D01*
X183083Y2929940D01*
X195021Y2923387D01*
X207771Y2918510D01*
X221030Y2915310D01*
X234594Y2913989D01*
X248208Y2914446D01*
X261670Y2916682D01*
X274675Y2920746D01*
X287070Y2926486D01*
X298551Y2933801D01*
X308965Y2942590D01*
X318109Y2952750D01*
X325831Y2963976D01*
X331978Y2976118D01*
X336448Y2989021D01*
X339191Y3002381D01*
X340106Y3015996D01*
X339191Y3029610D01*
X336448Y3042970D01*
X334111Y3049676D01*
X333552Y3053435D01*
X334416Y3057093D01*
X336550Y3060192D01*
X384911Y3108604D01*
X388213Y3110788D01*
X392125Y3111601D01*
X1689201Y3111601D01*
X1693113Y3110788D01*
X1696415Y3108553D01*
X1698599Y3105251D01*
X1699361Y3101289D01*
X1698548Y3097428D01*
X1696262Y3094126D01*
X1686306Y3084474D01*
X1677822Y3073755D01*
X1670862Y3062020D01*
X1665579Y3049473D01*
X1661972Y3036316D01*
X1660143Y3022803D01*
X1660143Y3009188D01*
X1661972Y2995676D01*
X1665579Y2982518D01*
X1670862Y2969971D01*
X1677822Y2958236D01*
X1680565Y2954782D01*
X1682496Y2950718D01*
X1682496Y2946196D01*
X1680514Y2942132D01*
X1676958Y2939338D01*
X1672589Y2938322D01*
X376428Y2938322D01*
X368452Y2937560D01*
X361238Y2935376D01*
X354584Y2931820D01*
X348386Y2926740D01*
X282295Y2860598D01*
X279247Y2858516D01*
X275691Y2857652D01*
X272084Y2858058D01*
X261670Y2861310D01*
X248208Y2863545D01*
X234594Y2864002D01*
X221030Y2862681D01*
X207771Y2859481D01*
X195021Y2854604D01*
X183083Y2848051D01*
X172110Y2839974D01*
X162306Y2830474D01*
X153822Y2819755D01*
X146862Y2808020D01*
X141579Y2795473D01*
X137972Y2782316D01*
X136144Y2768803D01*
X136144Y2755188D01*
X137972Y2741676D01*
X141579Y2728518D01*
X146862Y2715971D01*
X153822Y2704236D01*
X162306Y2693517D01*
X172110Y2684018D01*
X183083Y2675940D01*
X195021Y2669387D01*
X207771Y2664510D01*
X221030Y2661310D01*
X234594Y2659989D01*
X248208Y2660446D01*
X261670Y2662682D01*
X274675Y2666746D01*
X287070Y2672486D01*
X298551Y2679801D01*
X308965Y2688590D01*
X318109Y2698750D01*
X325831Y2709976D01*
X331978Y2722118D01*
X336448Y2735021D01*
X339191Y2748381D01*
X340106Y2761996D01*
X339191Y2775610D01*
X336448Y2788970D01*
X334111Y2795676D01*
X333552Y2799435D01*
X334416Y2803093D01*
X336550Y2806192D01*
X388874Y2858516D01*
X392125Y2860751D01*
X396036Y2861513D01*
X1440434Y2861513D01*
X1444548Y2860649D01*
X1447952Y2858160D01*
X1450086Y2854502D01*
X1450543Y2850337D01*
X1449273Y2846324D01*
X1446479Y2843174D01*
X1442110Y2839974D01*
X1432306Y2830474D01*
X1423822Y2819755D01*
X1416862Y2808020D01*
X1411579Y2795473D01*
X1407972Y2782316D01*
X1406144Y2768803D01*
X1406144Y2755188D01*
X1407972Y2741676D01*
X1411579Y2728518D01*
X1416862Y2715971D01*
X1424127Y2703728D01*
X1425448Y2699715D01*
X1425041Y2695498D01*
X1422958Y2691790D01*
X1419555Y2689301D01*
X1415389Y2688386D01*
X380492Y2688386D01*
X372516Y2687624D01*
X365302Y2685440D01*
X358698Y2681884D01*
X352501Y2676804D01*
X282295Y2606598D01*
X279247Y2604516D01*
X275691Y2603652D01*
X272084Y2604058D01*
X261670Y2607310D01*
X248208Y2609545D01*
X234594Y2610002D01*
X221030Y2608681D01*
X207771Y2605481D01*
X195021Y2600604D01*
X183083Y2594051D01*
X172110Y2585974D01*
X162306Y2576474D01*
X153822Y2565755D01*
X146862Y2554020D01*
X141579Y2541473D01*
X137972Y2528316D01*
X136144Y2514803D01*
X136144Y2501188D01*
X137972Y2487676D01*
X141579Y2474518D01*
X146862Y2461971D01*
X153822Y2450236D01*
X162306Y2439517D01*
X172110Y2430018D01*
X183083Y2421940D01*
X195021Y2415387D01*
X207771Y2410510D01*
X221030Y2407310D01*
G37*
G36*
X234594Y1897989D02*
G01*
X248208Y1898446D01*
X261670Y1900682D01*
X274675Y1904746D01*
X287070Y1910486D01*
X298551Y1917801D01*
X308965Y1926589D01*
X318109Y1936750D01*
X325831Y1947976D01*
X331978Y1960118D01*
X336448Y1973021D01*
X339191Y1986381D01*
X340106Y1999996D01*
X339191Y2013610D01*
X336448Y2026970D01*
X331978Y2039874D01*
X325831Y2052015D01*
X318109Y2063242D01*
X308965Y2073402D01*
X298551Y2082190D01*
X287070Y2089505D01*
X274675Y2095246D01*
X261670Y2099310D01*
X248208Y2101545D01*
X234594Y2102002D01*
X221030Y2100681D01*
X207771Y2097481D01*
X195021Y2092604D01*
X183083Y2086051D01*
X172110Y2077974D01*
X162306Y2068474D01*
X153822Y2057755D01*
X146862Y2046020D01*
X141579Y2033473D01*
X137972Y2020316D01*
X136144Y2006803D01*
X136144Y1993188D01*
X137972Y1979675D01*
X141579Y1966518D01*
X146862Y1953971D01*
X153822Y1942236D01*
X162306Y1931517D01*
X172110Y1922018D01*
X183083Y1913940D01*
X195021Y1907387D01*
X207771Y1902510D01*
X221030Y1899310D01*
G37*
G36*
X234594Y1643989D02*
G01*
X248208Y1644446D01*
X261670Y1646682D01*
X274675Y1650746D01*
X287070Y1656486D01*
X298551Y1663801D01*
X308965Y1672589D01*
X318109Y1682750D01*
X325831Y1693976D01*
X331978Y1706118D01*
X336448Y1719021D01*
X339191Y1732381D01*
X340106Y1745996D01*
X339191Y1759610D01*
X336448Y1772970D01*
X331978Y1785874D01*
X325831Y1798015D01*
X318109Y1809242D01*
X308965Y1819402D01*
X298551Y1828190D01*
X287070Y1835505D01*
X274675Y1841246D01*
X261670Y1845310D01*
X248208Y1847545D01*
X234594Y1848002D01*
X221030Y1846681D01*
X207771Y1843481D01*
X195021Y1838604D01*
X183083Y1832051D01*
X172110Y1823974D01*
X162306Y1814474D01*
X153822Y1803755D01*
X146862Y1792020D01*
X141579Y1779473D01*
X137972Y1766316D01*
X136144Y1752803D01*
X136144Y1739188D01*
X137972Y1725675D01*
X141579Y1712518D01*
X146862Y1699971D01*
X153822Y1688236D01*
X162306Y1677517D01*
X172110Y1668018D01*
X183083Y1659940D01*
X195021Y1653387D01*
X207771Y1648510D01*
X221030Y1645310D01*
G37*
G36*
X234594Y1135989D02*
G01*
X248208Y1136446D01*
X261670Y1138682D01*
X274675Y1142746D01*
X287070Y1148486D01*
X298551Y1155801D01*
X308965Y1164590D01*
X318109Y1174750D01*
X325831Y1185976D01*
X331978Y1198118D01*
X336448Y1211021D01*
X339191Y1224381D01*
X340106Y1237996D01*
X339191Y1251610D01*
X336448Y1264970D01*
X331978Y1277874D01*
X325831Y1290015D01*
X318109Y1301242D01*
X308965Y1311402D01*
X298551Y1320190D01*
X287070Y1327505D01*
X274675Y1333246D01*
X261670Y1337310D01*
X248208Y1339545D01*
X234594Y1340002D01*
X221030Y1338681D01*
X207771Y1335481D01*
X195021Y1330604D01*
X183083Y1324051D01*
X172110Y1315974D01*
X162306Y1306474D01*
X153822Y1295755D01*
X146862Y1284020D01*
X141579Y1271473D01*
X137972Y1258316D01*
X136144Y1244803D01*
X136144Y1231188D01*
X137972Y1217676D01*
X141579Y1204518D01*
X146862Y1191971D01*
X153822Y1180236D01*
X162306Y1169517D01*
X172110Y1160018D01*
X183083Y1151940D01*
X195021Y1145387D01*
X207771Y1140510D01*
X221030Y1137310D01*
G37*
G36*
X1758594Y373989D02*
G01*
X1772208Y374446D01*
X1785670Y376682D01*
X1798675Y380746D01*
X1811070Y386486D01*
X1822551Y393801D01*
X1832965Y402590D01*
X1842109Y412750D01*
X1849831Y423976D01*
X1855978Y436118D01*
X1860448Y449021D01*
X1861362Y453440D01*
X1862632Y456692D01*
X1864868Y459282D01*
X1867916Y461009D01*
X1871319Y461568D01*
X2654808Y461568D01*
X2658719Y460806D01*
X2661970Y458622D01*
X2663748Y456844D01*
X2671826Y451205D01*
X2680716Y447040D01*
X2690215Y444500D01*
X2700020Y443636D01*
X2709773Y444500D01*
X2719273Y447040D01*
X2728163Y451205D01*
X2736240Y456844D01*
X2743149Y463753D01*
X2748788Y471830D01*
X2752953Y480720D01*
X2755493Y490220D01*
X2756357Y499973D01*
X2755493Y509778D01*
X2752953Y519277D01*
X2748788Y528167D01*
X2743149Y536244D01*
X2736240Y543153D01*
X2728163Y548792D01*
X2719273Y552958D01*
X2709773Y555498D01*
X2700020Y556361D01*
X2690215Y555498D01*
X2680716Y552958D01*
X2671826Y548792D01*
X2663748Y543153D01*
X2661970Y541375D01*
X2658719Y539191D01*
X2654808Y538429D01*
X1847392Y538429D01*
X1843278Y539292D01*
X1839874Y541731D01*
X1832965Y549402D01*
X1822551Y558190D01*
X1811070Y565505D01*
X1798675Y571246D01*
X1785670Y575310D01*
X1772208Y577545D01*
X1758594Y578002D01*
X1745030Y576681D01*
X1731772Y573481D01*
X1719021Y568604D01*
X1707083Y562051D01*
X1696110Y553974D01*
X1686306Y544474D01*
X1677822Y533755D01*
X1670862Y522020D01*
X1665579Y509473D01*
X1661972Y496316D01*
X1660143Y482803D01*
X1660143Y469188D01*
X1661972Y455676D01*
X1665579Y442518D01*
X1670862Y429971D01*
X1677822Y418236D01*
X1686306Y407517D01*
X1696110Y398018D01*
X1707083Y389940D01*
X1719021Y383387D01*
X1731772Y378510D01*
X1745030Y375310D01*
G37*
G36*
X5342331Y387553D02*
G01*
X5344515Y388518D01*
X5357520Y396392D01*
X5369458Y405790D01*
X5380228Y416509D01*
X5389575Y428498D01*
X5397449Y441502D01*
X5398414Y443636D01*
X5342331Y443636D01*
G37*
G36*
X3056331Y387553D02*
G01*
X3058515Y388518D01*
X3071520Y396392D01*
X3083458Y405790D01*
X3094228Y416509D01*
X3103575Y428498D01*
X3111449Y441502D01*
X3112414Y443636D01*
X3056331Y443636D01*
G37*
G36*
X2943656Y387553D02*
G01*
X2943656Y443636D01*
X2887573Y443636D01*
X2888538Y441502D01*
X2896412Y428498D01*
X2905760Y416509D01*
X2916529Y405790D01*
X2928467Y396392D01*
X2941472Y388518D01*
G37*
G36*
X5229656Y387553D02*
G01*
X5229656Y443636D01*
X5173573Y443636D01*
X5174538Y441502D01*
X5182412Y428498D01*
X5191760Y416509D01*
X5202529Y405790D01*
X5214467Y396392D01*
X5227472Y388518D01*
G37*
G36*
X234594Y881989D02*
G01*
X248208Y882446D01*
X261670Y884682D01*
X274675Y888746D01*
X287070Y894486D01*
X298551Y901801D01*
X308965Y910590D01*
X318109Y920750D01*
X325831Y931976D01*
X331978Y944118D01*
X336448Y957021D01*
X339191Y970381D01*
X340106Y983996D01*
X339191Y997610D01*
X336448Y1010970D01*
X331978Y1023874D01*
X325831Y1036015D01*
X318109Y1047242D01*
X308965Y1057402D01*
X298551Y1066190D01*
X287070Y1073505D01*
X274675Y1079246D01*
X261670Y1083310D01*
X248208Y1085545D01*
X234594Y1086002D01*
X221030Y1084681D01*
X207771Y1081481D01*
X195021Y1076604D01*
X183083Y1070051D01*
X172110Y1061974D01*
X162306Y1052474D01*
X153822Y1041755D01*
X146862Y1030020D01*
X141579Y1017473D01*
X137972Y1004316D01*
X136144Y990803D01*
X136144Y977188D01*
X137972Y963676D01*
X141579Y950518D01*
X146862Y937971D01*
X153822Y926236D01*
X162306Y915517D01*
X172110Y906018D01*
X183083Y897940D01*
X195021Y891387D01*
X207771Y886510D01*
X221030Y883310D01*
G37*
G36*
X2999994Y628091D02*
G01*
X3015183Y629005D01*
X3030118Y631748D01*
X3044596Y636270D01*
X3058515Y642518D01*
X3071520Y650392D01*
X3083458Y659790D01*
X3094228Y670509D01*
X3103575Y682498D01*
X3111449Y695502D01*
X3117697Y709371D01*
X3122218Y723849D01*
X3124962Y738835D01*
X3125876Y753973D01*
X3124962Y769162D01*
X3122218Y784148D01*
X3117697Y798626D01*
X3111449Y812495D01*
X3103575Y825500D01*
X3094228Y837488D01*
X3083458Y848207D01*
X3071520Y857605D01*
X3058515Y865479D01*
X3044596Y871728D01*
X3041396Y873963D01*
X3039313Y877214D01*
X3038602Y880973D01*
X3039313Y884783D01*
X3041396Y888034D01*
X3044596Y890269D01*
X3058515Y896518D01*
X3071520Y904392D01*
X3083458Y913790D01*
X3094228Y924509D01*
X3103575Y936498D01*
X3111449Y949502D01*
X3117697Y963371D01*
X3122218Y977849D01*
X3124962Y992835D01*
X3125876Y1007973D01*
X3124962Y1023162D01*
X3122218Y1038148D01*
X3117697Y1052626D01*
X3111449Y1066495D01*
X3103575Y1079500D01*
X3094228Y1091488D01*
X3083458Y1102207D01*
X3071520Y1111605D01*
X3058515Y1119479D01*
X3044596Y1125728D01*
X3041396Y1127963D01*
X3039313Y1131214D01*
X3038602Y1134973D01*
X3039313Y1138783D01*
X3041396Y1142034D01*
X3044596Y1144270D01*
X3058515Y1150518D01*
X3071520Y1158392D01*
X3083458Y1167790D01*
X3094228Y1178509D01*
X3103575Y1190498D01*
X3111449Y1203502D01*
X3117697Y1217371D01*
X3122218Y1231849D01*
X3124962Y1246835D01*
X3125876Y1261973D01*
X3124962Y1277162D01*
X3122218Y1292148D01*
X3117697Y1306626D01*
X3111449Y1320495D01*
X3103575Y1333500D01*
X3094228Y1345488D01*
X3083458Y1356207D01*
X3071520Y1365605D01*
X3058515Y1373479D01*
X3044596Y1379728D01*
X3041396Y1381963D01*
X3039313Y1385214D01*
X3038602Y1388973D01*
X3039313Y1392783D01*
X3041396Y1396034D01*
X3044596Y1398270D01*
X3058515Y1404518D01*
X3071520Y1412392D01*
X3083458Y1421790D01*
X3094228Y1432509D01*
X3103575Y1444498D01*
X3111449Y1457502D01*
X3117697Y1471371D01*
X3122218Y1485849D01*
X3124962Y1500835D01*
X3125876Y1515973D01*
X3124962Y1531162D01*
X3122218Y1546148D01*
X3117697Y1560626D01*
X3111449Y1574495D01*
X3103575Y1587500D01*
X3094228Y1599488D01*
X3083458Y1610207D01*
X3071520Y1619605D01*
X3058515Y1627479D01*
X3044596Y1633728D01*
X3041396Y1635963D01*
X3039313Y1639214D01*
X3038602Y1642973D01*
X3039313Y1646783D01*
X3041396Y1650034D01*
X3044596Y1652270D01*
X3058515Y1658518D01*
X3071520Y1666392D01*
X3083458Y1675790D01*
X3094228Y1686509D01*
X3103575Y1698498D01*
X3111449Y1711502D01*
X3117697Y1725371D01*
X3122218Y1739849D01*
X3124962Y1754835D01*
X3125876Y1769973D01*
X3124962Y1785162D01*
X3122218Y1800148D01*
X3117697Y1814626D01*
X3111449Y1828495D01*
X3103575Y1841500D01*
X3094228Y1853488D01*
X3083458Y1864207D01*
X3071520Y1873605D01*
X3058515Y1881479D01*
X3044596Y1887728D01*
X3041396Y1889963D01*
X3039313Y1893214D01*
X3038602Y1896973D01*
X3039313Y1900783D01*
X3041396Y1904034D01*
X3044596Y1906270D01*
X3058515Y1912518D01*
X3071520Y1920392D01*
X3083458Y1929790D01*
X3094228Y1940509D01*
X3103575Y1952498D01*
X3111449Y1965502D01*
X3117697Y1979371D01*
X3122218Y1993849D01*
X3124962Y2008835D01*
X3125876Y2023973D01*
X3124962Y2039162D01*
X3122218Y2054148D01*
X3117697Y2068626D01*
X3111449Y2082495D01*
X3103575Y2095500D01*
X3094228Y2107488D01*
X3083458Y2118207D01*
X3071520Y2127605D01*
X3062173Y2133244D01*
X3059023Y2136241D01*
X3057398Y2140305D01*
X3057652Y2144674D01*
X3059684Y2148535D01*
X3063189Y2151176D01*
X3067456Y2152091D01*
X3099409Y2152091D01*
X3105759Y2152802D01*
X3111195Y2154732D01*
X3116122Y2157780D01*
X3120186Y2161895D01*
X3123285Y2166772D01*
X3125165Y2172258D01*
X3125927Y2178558D01*
X3125927Y2377440D01*
X3125165Y2383739D01*
X3123285Y2389225D01*
X3120186Y2394102D01*
X3116122Y2398217D01*
X3111195Y2401265D01*
X3105759Y2403195D01*
X3099409Y2403906D01*
X2900578Y2403906D01*
X2894228Y2403195D01*
X2888792Y2401265D01*
X2883865Y2398217D01*
X2879801Y2394102D01*
X2876702Y2389225D01*
X2874822Y2383739D01*
X2874111Y2377440D01*
X2874111Y2326589D01*
X2873298Y2322677D01*
X2871114Y2319375D01*
X2867812Y2317191D01*
X2863900Y2316429D01*
X2745181Y2316429D01*
X2741269Y2317191D01*
X2738018Y2319375D01*
X2736240Y2321153D01*
X2728163Y2326792D01*
X2719273Y2330958D01*
X2709773Y2333498D01*
X2700020Y2334361D01*
X2690215Y2333498D01*
X2680716Y2330958D01*
X2671826Y2326792D01*
X2663748Y2321153D01*
X2656840Y2314244D01*
X2651201Y2306167D01*
X2647035Y2297277D01*
X2644495Y2287778D01*
X2643632Y2277973D01*
X2644495Y2268220D01*
X2647035Y2258720D01*
X2651201Y2249830D01*
X2656840Y2241753D01*
X2663748Y2234844D01*
X2671826Y2229205D01*
X2680716Y2225040D01*
X2690215Y2222500D01*
X2700020Y2221636D01*
X2709773Y2222500D01*
X2719273Y2225040D01*
X2728163Y2229205D01*
X2736240Y2234844D01*
X2738018Y2236622D01*
X2741269Y2238806D01*
X2745181Y2239568D01*
X2863900Y2239568D01*
X2867812Y2238806D01*
X2871114Y2236622D01*
X2873298Y2233320D01*
X2874111Y2229408D01*
X2874111Y2178558D01*
X2874822Y2172258D01*
X2876702Y2166772D01*
X2879801Y2161895D01*
X2883865Y2157780D01*
X2888792Y2154732D01*
X2894228Y2152802D01*
X2900578Y2152091D01*
X2932531Y2152091D01*
X2936798Y2151176D01*
X2940304Y2148535D01*
X2942336Y2144674D01*
X2942590Y2140305D01*
X2940964Y2136241D01*
X2937814Y2133244D01*
X2928467Y2127605D01*
X2916529Y2118207D01*
X2905760Y2107488D01*
X2896412Y2095500D01*
X2888538Y2082495D01*
X2882239Y2068525D01*
X2880004Y2065375D01*
X2876753Y2063292D01*
X2872994Y2062530D01*
X1995982Y2062530D01*
X1992071Y2063292D01*
X1988820Y2065528D01*
X1902561Y2151786D01*
X1896364Y2156866D01*
X1889709Y2160422D01*
X1882495Y2162606D01*
X1874520Y2163368D01*
X1840280Y2163368D01*
X1836470Y2164130D01*
X1833219Y2166213D01*
X1830984Y2169414D01*
X1830120Y2173173D01*
X1830730Y2177034D01*
X1832711Y2180336D01*
X1842109Y2190750D01*
X1849831Y2201976D01*
X1855978Y2214118D01*
X1860448Y2227021D01*
X1863191Y2240381D01*
X1864106Y2253996D01*
X1863191Y2267610D01*
X1860448Y2280970D01*
X1855978Y2293874D01*
X1849831Y2306015D01*
X1842109Y2317242D01*
X1832965Y2327402D01*
X1822551Y2336190D01*
X1811070Y2343505D01*
X1798675Y2349246D01*
X1785670Y2353310D01*
X1772208Y2355545D01*
X1758594Y2356002D01*
X1745030Y2354681D01*
X1731772Y2351481D01*
X1719021Y2346604D01*
X1707083Y2340051D01*
X1696110Y2331974D01*
X1686306Y2322474D01*
X1677822Y2311755D01*
X1670862Y2300020D01*
X1665579Y2287473D01*
X1661972Y2274316D01*
X1660143Y2260803D01*
X1660143Y2247188D01*
X1661972Y2233676D01*
X1665579Y2220518D01*
X1670862Y2207971D01*
X1677822Y2196236D01*
X1686306Y2185517D01*
X1691132Y2180844D01*
X1693418Y2177542D01*
X1694230Y2173630D01*
X1693468Y2169718D01*
X1691284Y2166366D01*
X1687982Y2164181D01*
X1684070Y2163368D01*
X1586280Y2163368D01*
X1582470Y2164130D01*
X1579219Y2166213D01*
X1576984Y2169414D01*
X1576120Y2173173D01*
X1576730Y2177034D01*
X1578711Y2180336D01*
X1588109Y2190750D01*
X1595831Y2201976D01*
X1601978Y2214118D01*
X1606448Y2227021D01*
X1609191Y2240381D01*
X1610106Y2253996D01*
X1609191Y2267610D01*
X1606448Y2280970D01*
X1601978Y2293874D01*
X1595831Y2306015D01*
X1588109Y2317242D01*
X1578965Y2327402D01*
X1568551Y2336190D01*
X1557070Y2343505D01*
X1544675Y2349246D01*
X1531670Y2353310D01*
X1518208Y2355545D01*
X1504594Y2356002D01*
X1491030Y2354681D01*
X1477772Y2351481D01*
X1465021Y2346604D01*
X1453083Y2340051D01*
X1442110Y2331974D01*
X1432306Y2322474D01*
X1423822Y2311755D01*
X1416862Y2300020D01*
X1411579Y2287473D01*
X1407972Y2274316D01*
X1406144Y2260803D01*
X1406144Y2247188D01*
X1407972Y2233676D01*
X1411579Y2220518D01*
X1416862Y2207971D01*
X1423822Y2196236D01*
X1432306Y2185517D01*
X1437132Y2180844D01*
X1439418Y2177542D01*
X1440230Y2173630D01*
X1439468Y2169718D01*
X1437284Y2166366D01*
X1433982Y2164181D01*
X1430070Y2163368D01*
X387146Y2163368D01*
X383235Y2164130D01*
X379984Y2166366D01*
X336550Y2209800D01*
X334416Y2212898D01*
X333552Y2216556D01*
X334111Y2220315D01*
X336448Y2227021D01*
X339191Y2240381D01*
X340106Y2253996D01*
X339191Y2267610D01*
X336448Y2280970D01*
X331978Y2293874D01*
X325831Y2306015D01*
X318109Y2317242D01*
X308965Y2327402D01*
X298551Y2336190D01*
X287070Y2343505D01*
X274675Y2349246D01*
X261670Y2353310D01*
X248208Y2355545D01*
X234594Y2356002D01*
X221030Y2354681D01*
X207771Y2351481D01*
X195021Y2346604D01*
X183083Y2340051D01*
X172110Y2331974D01*
X162306Y2322474D01*
X153822Y2311755D01*
X146862Y2300020D01*
X141579Y2287473D01*
X137972Y2274316D01*
X136144Y2260803D01*
X136144Y2247188D01*
X137972Y2233676D01*
X141579Y2220518D01*
X146862Y2207971D01*
X153822Y2196236D01*
X162306Y2185517D01*
X172110Y2176018D01*
X183083Y2167940D01*
X195021Y2161387D01*
X207771Y2156510D01*
X221030Y2153310D01*
X234594Y2151989D01*
X248208Y2152446D01*
X261670Y2154682D01*
X272084Y2157933D01*
X275691Y2158339D01*
X279247Y2157476D01*
X282295Y2155393D01*
X339496Y2098141D01*
X345694Y2093061D01*
X352348Y2089505D01*
X359562Y2087321D01*
X367538Y2086559D01*
X1679854Y2086559D01*
X1683766Y2085746D01*
X1687068Y2083562D01*
X1689303Y2080209D01*
X1690014Y2076297D01*
X1689201Y2072386D01*
X1677822Y2057755D01*
X1670862Y2046020D01*
X1665579Y2033473D01*
X1661972Y2020316D01*
X1660143Y2006803D01*
X1660143Y1993188D01*
X1661972Y1979675D01*
X1665579Y1966518D01*
X1670862Y1953971D01*
X1677822Y1942236D01*
X1686306Y1931517D01*
X1696110Y1922018D01*
X1707083Y1913940D01*
X1718868Y1907489D01*
X1722221Y1904542D01*
X1723999Y1900478D01*
X1723847Y1896059D01*
X1721815Y1892096D01*
X1718310Y1889353D01*
X1713992Y1888388D01*
X645160Y1888388D01*
X641299Y1889201D01*
X637997Y1891385D01*
X636219Y1893163D01*
X628192Y1898802D01*
X619252Y1902968D01*
X609803Y1905507D01*
X599998Y1906320D01*
X590194Y1905507D01*
X580745Y1902968D01*
X571804Y1898802D01*
X563778Y1893163D01*
X556818Y1886204D01*
X551180Y1878177D01*
X547065Y1869287D01*
X544525Y1859788D01*
X543661Y1849983D01*
X544525Y1840230D01*
X547065Y1830730D01*
X551180Y1821840D01*
X556818Y1813763D01*
X563778Y1806854D01*
X571804Y1801215D01*
X580745Y1797050D01*
X590194Y1794510D01*
X599998Y1793646D01*
X609803Y1794510D01*
X619252Y1797050D01*
X628192Y1801215D01*
X636219Y1806854D01*
X637997Y1808632D01*
X641299Y1810816D01*
X645160Y1811578D01*
X1664614Y1811578D01*
X1668780Y1810715D01*
X1672234Y1808175D01*
X1674317Y1804517D01*
X1674723Y1800250D01*
X1673402Y1796237D01*
X1670862Y1792020D01*
X1665579Y1779473D01*
X1661972Y1766316D01*
X1660143Y1752803D01*
X1660143Y1739188D01*
X1661972Y1725675D01*
X1665579Y1712518D01*
X1670862Y1699971D01*
X1677822Y1688236D01*
X1686306Y1677517D01*
X1696110Y1668018D01*
X1707083Y1659940D01*
X1719021Y1653387D01*
X1731772Y1648510D01*
X1745030Y1645310D01*
X1758594Y1643989D01*
X1772208Y1644446D01*
X1785670Y1646682D01*
X1798675Y1650746D01*
X1811070Y1656486D01*
X1822551Y1663801D01*
X1832965Y1672589D01*
X1842109Y1682750D01*
X1849831Y1693976D01*
X1855978Y1706118D01*
X1860448Y1719021D01*
X1863039Y1731670D01*
X1864461Y1735124D01*
X1867052Y1737868D01*
X1870456Y1739442D01*
X1874215Y1739696D01*
X1877822Y1738579D01*
X1885340Y1734566D01*
X1892503Y1732381D01*
X1900478Y1731568D01*
X2872892Y1731568D01*
X2876702Y1730857D01*
X2879953Y1728774D01*
X2882188Y1725625D01*
X2888538Y1711502D01*
X2896412Y1698498D01*
X2905760Y1686509D01*
X2916529Y1675790D01*
X2928467Y1666392D01*
X2941472Y1658518D01*
X2955391Y1652270D01*
X2958592Y1650034D01*
X2960674Y1646783D01*
X2961386Y1642973D01*
X2960674Y1639214D01*
X2958592Y1635963D01*
X2955391Y1633728D01*
X2941472Y1627479D01*
X2928467Y1619605D01*
X2916529Y1610207D01*
X2905760Y1599488D01*
X2896412Y1587500D01*
X2888538Y1574495D01*
X2882188Y1560372D01*
X2879953Y1557223D01*
X2876702Y1555140D01*
X2872892Y1554429D01*
X2845155Y1554429D01*
X2841294Y1555191D01*
X2837992Y1557375D01*
X2836214Y1559153D01*
X2828188Y1564792D01*
X2819247Y1568958D01*
X2809798Y1571498D01*
X2799994Y1572361D01*
X2790190Y1571498D01*
X2780741Y1568958D01*
X2771800Y1564792D01*
X2763774Y1559153D01*
X2756814Y1552244D01*
X2751175Y1544167D01*
X2747060Y1535277D01*
X2744520Y1525778D01*
X2743657Y1515973D01*
X2744520Y1506220D01*
X2747060Y1496720D01*
X2751175Y1487830D01*
X2756814Y1479753D01*
X2763774Y1472844D01*
X2771800Y1467205D01*
X2780741Y1463040D01*
X2790190Y1460500D01*
X2799994Y1459636D01*
X2809798Y1460500D01*
X2819247Y1463040D01*
X2828188Y1467205D01*
X2836214Y1472844D01*
X2837992Y1474622D01*
X2841294Y1476806D01*
X2845155Y1477568D01*
X2872892Y1477568D01*
X2876702Y1476857D01*
X2879953Y1474774D01*
X2882188Y1471625D01*
X2888538Y1457502D01*
X2896412Y1444498D01*
X2905760Y1432509D01*
X2916529Y1421790D01*
X2928467Y1412392D01*
X2941472Y1404518D01*
X2955391Y1398270D01*
X2958592Y1396034D01*
X2960674Y1392783D01*
X2961386Y1388973D01*
X2960674Y1385214D01*
X2958592Y1381963D01*
X2955391Y1379728D01*
X2941472Y1373479D01*
X2928467Y1365605D01*
X2916529Y1356207D01*
X2905760Y1345488D01*
X2896412Y1333500D01*
X2888538Y1320495D01*
X2882239Y1306525D01*
X2880004Y1303375D01*
X2876753Y1301292D01*
X2872994Y1300530D01*
X1958086Y1300530D01*
X1954225Y1301292D01*
X1950923Y1303477D01*
X1877364Y1376883D01*
X1871218Y1381912D01*
X1864563Y1385468D01*
X1857349Y1387652D01*
X1849374Y1388414D01*
X1823821Y1388414D01*
X1819605Y1389329D01*
X1816150Y1391920D01*
X1814068Y1395730D01*
X1813763Y1400048D01*
X1815287Y1404112D01*
X1818386Y1407160D01*
X1822551Y1409801D01*
X1832965Y1418590D01*
X1842109Y1428750D01*
X1849831Y1439976D01*
X1855978Y1452118D01*
X1860448Y1465021D01*
X1863191Y1478381D01*
X1864106Y1491996D01*
X1863191Y1505610D01*
X1860448Y1518970D01*
X1855978Y1531874D01*
X1849831Y1544015D01*
X1842109Y1555242D01*
X1832965Y1565402D01*
X1822551Y1574190D01*
X1811070Y1581505D01*
X1798675Y1587246D01*
X1785670Y1591310D01*
X1772208Y1593545D01*
X1758594Y1594002D01*
X1745030Y1592681D01*
X1731772Y1589481D01*
X1719021Y1584604D01*
X1707083Y1578051D01*
X1696110Y1569974D01*
X1686306Y1560474D01*
X1677822Y1549755D01*
X1670862Y1538020D01*
X1665579Y1525473D01*
X1661972Y1512316D01*
X1660143Y1498803D01*
X1660143Y1485188D01*
X1661972Y1471676D01*
X1665579Y1458518D01*
X1670862Y1445971D01*
X1677822Y1434236D01*
X1686306Y1423517D01*
X1696110Y1414018D01*
X1705965Y1406753D01*
X1708759Y1403604D01*
X1710029Y1399590D01*
X1709572Y1395425D01*
X1707489Y1391767D01*
X1704086Y1389278D01*
X1699920Y1388414D01*
X445160Y1388414D01*
X441299Y1389176D01*
X437997Y1391361D01*
X436219Y1393139D01*
X428193Y1398778D01*
X419252Y1402943D01*
X409803Y1405483D01*
X399999Y1406347D01*
X390194Y1405483D01*
X380746Y1402943D01*
X371805Y1398778D01*
X363778Y1393139D01*
X356819Y1386230D01*
X351180Y1378153D01*
X347065Y1369263D01*
X344525Y1359763D01*
X343662Y1350010D01*
X344525Y1340205D01*
X347065Y1330706D01*
X351180Y1321816D01*
X356819Y1313789D01*
X363778Y1306830D01*
X371805Y1301191D01*
X380746Y1297025D01*
X390194Y1294485D01*
X399999Y1293672D01*
X409803Y1294485D01*
X419252Y1297025D01*
X428193Y1301191D01*
X436219Y1306830D01*
X437997Y1308608D01*
X441299Y1310792D01*
X445160Y1311605D01*
X1669389Y1311605D01*
X1673555Y1310690D01*
X1676958Y1308201D01*
X1679092Y1304493D01*
X1679498Y1300276D01*
X1678127Y1296263D01*
X1670862Y1284020D01*
X1665579Y1271473D01*
X1661972Y1258316D01*
X1660143Y1244803D01*
X1660143Y1231188D01*
X1661972Y1217676D01*
X1665579Y1204518D01*
X1670862Y1191971D01*
X1677822Y1180236D01*
X1686306Y1169517D01*
X1696110Y1160018D01*
X1700580Y1156766D01*
X1703374Y1153617D01*
X1704644Y1149604D01*
X1704187Y1145387D01*
X1702054Y1141730D01*
X1698650Y1139291D01*
X1694535Y1138428D01*
X545185Y1138428D01*
X541274Y1139190D01*
X538022Y1141374D01*
X536244Y1143152D01*
X528167Y1148791D01*
X519277Y1152956D01*
X509778Y1155496D01*
X500024Y1156360D01*
X490220Y1155496D01*
X480720Y1152956D01*
X471830Y1148791D01*
X463753Y1143152D01*
X456844Y1136243D01*
X451205Y1128166D01*
X447040Y1119276D01*
X444500Y1109776D01*
X443636Y1099972D01*
X444500Y1090218D01*
X447040Y1080719D01*
X451205Y1071829D01*
X456844Y1063752D01*
X463753Y1056843D01*
X471830Y1051204D01*
X480720Y1047038D01*
X490220Y1044498D01*
X500024Y1043635D01*
X509778Y1044498D01*
X519277Y1047038D01*
X528167Y1051204D01*
X536244Y1056843D01*
X538022Y1058621D01*
X541274Y1060805D01*
X545185Y1061567D01*
X1672539Y1061567D01*
X1676907Y1060602D01*
X1680464Y1057757D01*
X1682394Y1053693D01*
X1682445Y1049223D01*
X1680514Y1045108D01*
X1677822Y1041755D01*
X1670862Y1030020D01*
X1665579Y1017473D01*
X1661972Y1004316D01*
X1660143Y990803D01*
X1660143Y977188D01*
X1661972Y963676D01*
X1665579Y950518D01*
X1670862Y937971D01*
X1677822Y926236D01*
X1686306Y915517D01*
X1696110Y906018D01*
X1707083Y897940D01*
X1719021Y891387D01*
X1731772Y886510D01*
X1745030Y883310D01*
X1758594Y881989D01*
X1772208Y882446D01*
X1785670Y884682D01*
X1798675Y888746D01*
X1811070Y894486D01*
X1822551Y901801D01*
X1832965Y910590D01*
X1842109Y920750D01*
X1849831Y931976D01*
X1855978Y944118D01*
X1860448Y957021D01*
X1863191Y970381D01*
X1864106Y983996D01*
X1863191Y997610D01*
X1860448Y1010970D01*
X1855978Y1023874D01*
X1849831Y1036015D01*
X1843227Y1045667D01*
X1841550Y1049731D01*
X1841754Y1054100D01*
X1843836Y1058011D01*
X1847291Y1060653D01*
X1851558Y1061567D01*
X1879854Y1061567D01*
X1883765Y1060805D01*
X1887067Y1058621D01*
X1964486Y981202D01*
X1970684Y976121D01*
X1977339Y972566D01*
X1984502Y970381D01*
X1992477Y969568D01*
X2872892Y969568D01*
X2876702Y968857D01*
X2879953Y966774D01*
X2882188Y963625D01*
X2888538Y949502D01*
X2896412Y936498D01*
X2905760Y924509D01*
X2916529Y913790D01*
X2928467Y904392D01*
X2941472Y896518D01*
X2955391Y890269D01*
X2958592Y888034D01*
X2960674Y884783D01*
X2961386Y880973D01*
X2960674Y877214D01*
X2958592Y873963D01*
X2955391Y871728D01*
X2941472Y865479D01*
X2928467Y857605D01*
X2916529Y848207D01*
X2905760Y837488D01*
X2902864Y833780D01*
X2900680Y831697D01*
X2897886Y830376D01*
X2894888Y829919D01*
X2400198Y829919D01*
X2394305Y829665D01*
X2388666Y829056D01*
X2383129Y827989D01*
X2377643Y826516D01*
X2372258Y824636D01*
X2367076Y822401D01*
X2362047Y819708D01*
X2357221Y816711D01*
X2352649Y813358D01*
X2348382Y809650D01*
X2344369Y805637D01*
X2340660Y801319D01*
X2337308Y796747D01*
X2334260Y791972D01*
X2331618Y786942D01*
X2329332Y781710D01*
X2327452Y776376D01*
X2325979Y770890D01*
X2324963Y765302D01*
X2324303Y759764D01*
X2324100Y750265D01*
X2324963Y738682D01*
X2327503Y727608D01*
X2331618Y717042D01*
X2337308Y707237D01*
X2344369Y698398D01*
X2352700Y690676D01*
X2362047Y684276D01*
X2372258Y679348D01*
X2383129Y675995D01*
X2394305Y674319D01*
X2405684Y674319D01*
X2416860Y675995D01*
X2422194Y677621D01*
X2425192Y678078D01*
X2894888Y678078D01*
X2897886Y677621D01*
X2900680Y676300D01*
X2902864Y674217D01*
X2905760Y670509D01*
X2916529Y659790D01*
X2928467Y650392D01*
X2941472Y642518D01*
X2955391Y636270D01*
X2969869Y631748D01*
X2984804Y629005D01*
G37*
G36*
X5285994Y628091D02*
G01*
X5301183Y629005D01*
X5316118Y631748D01*
X5330596Y636270D01*
X5344515Y642518D01*
X5357520Y650392D01*
X5369458Y659790D01*
X5380228Y670509D01*
X5389575Y682498D01*
X5397449Y695502D01*
X5403697Y709371D01*
X5408218Y723849D01*
X5410962Y738835D01*
X5411876Y753973D01*
X5410962Y769162D01*
X5408218Y784148D01*
X5403697Y798626D01*
X5397449Y812495D01*
X5389575Y825500D01*
X5380228Y837488D01*
X5369458Y848207D01*
X5357520Y857605D01*
X5344515Y865479D01*
X5330596Y871728D01*
X5327396Y873963D01*
X5325313Y877214D01*
X5324602Y880973D01*
X5325313Y884783D01*
X5327396Y888034D01*
X5330596Y890269D01*
X5344515Y896518D01*
X5357520Y904392D01*
X5369458Y913790D01*
X5380228Y924509D01*
X5389575Y936498D01*
X5397449Y949502D01*
X5403697Y963371D01*
X5408218Y977849D01*
X5410962Y992835D01*
X5411876Y1007973D01*
X5410962Y1023162D01*
X5408218Y1038148D01*
X5403697Y1052626D01*
X5397449Y1066495D01*
X5389575Y1079500D01*
X5380228Y1091488D01*
X5369458Y1102207D01*
X5357520Y1111605D01*
X5344515Y1119479D01*
X5330596Y1125728D01*
X5327396Y1127963D01*
X5325313Y1131214D01*
X5324602Y1134973D01*
X5325313Y1138783D01*
X5327396Y1142034D01*
X5330596Y1144270D01*
X5344515Y1150518D01*
X5357520Y1158392D01*
X5369458Y1167790D01*
X5380228Y1178509D01*
X5389575Y1190498D01*
X5397449Y1203502D01*
X5403697Y1217371D01*
X5408218Y1231849D01*
X5410962Y1246835D01*
X5411876Y1261973D01*
X5410962Y1277162D01*
X5408218Y1292148D01*
X5403697Y1306626D01*
X5397449Y1320495D01*
X5389575Y1333500D01*
X5380228Y1345488D01*
X5369458Y1356207D01*
X5357520Y1365605D01*
X5344515Y1373479D01*
X5330596Y1379728D01*
X5327396Y1381963D01*
X5325313Y1385214D01*
X5324602Y1388973D01*
X5325313Y1392783D01*
X5327396Y1396034D01*
X5330596Y1398270D01*
X5344515Y1404518D01*
X5357520Y1412392D01*
X5369458Y1421790D01*
X5380228Y1432509D01*
X5389575Y1444498D01*
X5397449Y1457502D01*
X5403697Y1471371D01*
X5408218Y1485849D01*
X5410962Y1500835D01*
X5411876Y1515973D01*
X5410962Y1531162D01*
X5408218Y1546148D01*
X5403697Y1560626D01*
X5397449Y1574495D01*
X5389575Y1587500D01*
X5380228Y1599488D01*
X5369458Y1610207D01*
X5357520Y1619605D01*
X5344515Y1627479D01*
X5330596Y1633728D01*
X5327396Y1635963D01*
X5325313Y1639214D01*
X5324602Y1642973D01*
X5325313Y1646783D01*
X5327396Y1650034D01*
X5330596Y1652270D01*
X5344515Y1658518D01*
X5357520Y1666392D01*
X5369458Y1675790D01*
X5380228Y1686509D01*
X5389575Y1698498D01*
X5397449Y1711502D01*
X5403697Y1725371D01*
X5408218Y1739849D01*
X5410962Y1754835D01*
X5411876Y1769973D01*
X5410962Y1785162D01*
X5408218Y1800148D01*
X5403697Y1814626D01*
X5397449Y1828495D01*
X5389575Y1841500D01*
X5380228Y1853488D01*
X5369458Y1864207D01*
X5357520Y1873605D01*
X5344515Y1881479D01*
X5330596Y1887728D01*
X5327396Y1889963D01*
X5325313Y1893214D01*
X5324602Y1896973D01*
X5325313Y1900783D01*
X5327396Y1904034D01*
X5330596Y1906270D01*
X5344515Y1912518D01*
X5357520Y1920392D01*
X5369458Y1929790D01*
X5380228Y1940509D01*
X5389575Y1952498D01*
X5397449Y1965502D01*
X5403697Y1979371D01*
X5408218Y1993849D01*
X5410962Y2008835D01*
X5411876Y2023973D01*
X5410962Y2039162D01*
X5408218Y2054148D01*
X5403697Y2068626D01*
X5397449Y2082495D01*
X5389575Y2095500D01*
X5380228Y2107488D01*
X5369458Y2118207D01*
X5357520Y2127605D01*
X5344515Y2135479D01*
X5330596Y2141728D01*
X5327396Y2143963D01*
X5325313Y2147214D01*
X5324602Y2150973D01*
X5325313Y2154783D01*
X5327396Y2158034D01*
X5330596Y2160270D01*
X5344515Y2166518D01*
X5357520Y2174392D01*
X5369458Y2183790D01*
X5380228Y2194509D01*
X5389575Y2206498D01*
X5397449Y2219502D01*
X5403697Y2233371D01*
X5408218Y2247849D01*
X5410962Y2262835D01*
X5411876Y2277973D01*
X5410962Y2293162D01*
X5408218Y2308148D01*
X5403697Y2322626D01*
X5397449Y2336495D01*
X5389575Y2349500D01*
X5380228Y2361488D01*
X5369458Y2372207D01*
X5357520Y2381605D01*
X5344515Y2389479D01*
X5330647Y2395728D01*
X5316118Y2400249D01*
X5301183Y2402992D01*
X5285994Y2403906D01*
X5270804Y2402992D01*
X5255869Y2400249D01*
X5241340Y2395728D01*
X5227472Y2389479D01*
X5214467Y2381605D01*
X5202529Y2372207D01*
X5191760Y2361488D01*
X5182412Y2349500D01*
X5174538Y2336495D01*
X5168188Y2322372D01*
X5165953Y2319223D01*
X5162702Y2317140D01*
X5158892Y2316429D01*
X4145178Y2316429D01*
X4141266Y2317191D01*
X4138015Y2319375D01*
X4136237Y2321153D01*
X4128160Y2326792D01*
X4119270Y2330958D01*
X4109770Y2333498D01*
X4100017Y2334361D01*
X4090212Y2333498D01*
X4080713Y2330958D01*
X4071823Y2326792D01*
X4063746Y2321153D01*
X4056837Y2314244D01*
X4051198Y2306167D01*
X4047032Y2297277D01*
X4044492Y2287778D01*
X4043629Y2277973D01*
X4044492Y2268220D01*
X4047032Y2258720D01*
X4051198Y2249830D01*
X4056837Y2241753D01*
X4063746Y2234844D01*
X4071823Y2229205D01*
X4080713Y2225040D01*
X4090212Y2222500D01*
X4100017Y2221636D01*
X4109770Y2222500D01*
X4119270Y2225040D01*
X4128160Y2229205D01*
X4136237Y2234844D01*
X4138015Y2236622D01*
X4141266Y2238806D01*
X4145178Y2239568D01*
X5158892Y2239568D01*
X5162702Y2238857D01*
X5165953Y2236774D01*
X5168188Y2233625D01*
X5174538Y2219502D01*
X5182412Y2206498D01*
X5191760Y2194509D01*
X5202529Y2183790D01*
X5214467Y2174392D01*
X5227472Y2166518D01*
X5241391Y2160270D01*
X5244592Y2158034D01*
X5246674Y2154783D01*
X5247386Y2150973D01*
X5246674Y2147214D01*
X5244592Y2143963D01*
X5241391Y2141728D01*
X5227472Y2135479D01*
X5214467Y2127605D01*
X5202529Y2118207D01*
X5191760Y2107488D01*
X5182412Y2095500D01*
X5174538Y2082495D01*
X5168239Y2068525D01*
X5166004Y2065375D01*
X5162753Y2063292D01*
X5158994Y2062530D01*
X4245051Y2062530D01*
X4241190Y2063292D01*
X4237888Y2065528D01*
X4236110Y2067306D01*
X4228084Y2072944D01*
X4219143Y2077059D01*
X4209694Y2079599D01*
X4199890Y2080463D01*
X4190085Y2079599D01*
X4180636Y2077059D01*
X4171696Y2072944D01*
X4163669Y2067306D01*
X4156710Y2060346D01*
X4151071Y2052320D01*
X4146956Y2043379D01*
X4144416Y2033930D01*
X4143552Y2024125D01*
X4144416Y2014321D01*
X4146956Y2004872D01*
X4151071Y1995932D01*
X4156710Y1987905D01*
X4163669Y1980946D01*
X4171696Y1975307D01*
X4180636Y1971192D01*
X4190085Y1968652D01*
X4199890Y1967788D01*
X4209694Y1968652D01*
X4219143Y1971192D01*
X4228084Y1975307D01*
X4236110Y1980946D01*
X4237888Y1982724D01*
X4241190Y1984959D01*
X4245051Y1985721D01*
X5158841Y1985721D01*
X5162651Y1984959D01*
X5165902Y1982876D01*
X5168138Y1979726D01*
X5174538Y1965502D01*
X5182412Y1952498D01*
X5191760Y1940509D01*
X5202529Y1929790D01*
X5214467Y1920392D01*
X5227472Y1912518D01*
X5241391Y1906270D01*
X5244592Y1904034D01*
X5246674Y1900783D01*
X5247386Y1896973D01*
X5246674Y1893214D01*
X5244592Y1889963D01*
X5241391Y1887728D01*
X5227472Y1881479D01*
X5214467Y1873605D01*
X5202529Y1864207D01*
X5191760Y1853488D01*
X5182412Y1841500D01*
X5174538Y1828495D01*
X5168188Y1814372D01*
X5165953Y1811223D01*
X5162702Y1809140D01*
X5158892Y1808429D01*
X4345178Y1808429D01*
X4341266Y1809191D01*
X4338015Y1811375D01*
X4336237Y1813153D01*
X4328160Y1818792D01*
X4319270Y1822957D01*
X4309770Y1825498D01*
X4300016Y1826361D01*
X4290212Y1825498D01*
X4280712Y1822957D01*
X4271822Y1818792D01*
X4263745Y1813153D01*
X4256836Y1806244D01*
X4251198Y1798167D01*
X4247032Y1789277D01*
X4244492Y1779778D01*
X4243628Y1769973D01*
X4244492Y1760220D01*
X4247032Y1750720D01*
X4251198Y1741830D01*
X4256836Y1733753D01*
X4263745Y1726844D01*
X4271822Y1721205D01*
X4280712Y1717039D01*
X4290212Y1714500D01*
X4300016Y1713636D01*
X4309770Y1714500D01*
X4319270Y1717039D01*
X4328160Y1721205D01*
X4336237Y1726844D01*
X4338015Y1728622D01*
X4341266Y1730806D01*
X4345178Y1731568D01*
X5158892Y1731568D01*
X5162702Y1730857D01*
X5165953Y1728774D01*
X5168188Y1725625D01*
X5174538Y1711502D01*
X5182412Y1698498D01*
X5191760Y1686509D01*
X5202529Y1675790D01*
X5214467Y1666392D01*
X5227472Y1658518D01*
X5241391Y1652270D01*
X5244592Y1650034D01*
X5246674Y1646783D01*
X5247386Y1642973D01*
X5246674Y1639214D01*
X5244592Y1635963D01*
X5241391Y1633728D01*
X5227472Y1627479D01*
X5214467Y1619605D01*
X5202529Y1610207D01*
X5191760Y1599488D01*
X5182412Y1587500D01*
X5174538Y1574495D01*
X5168188Y1560372D01*
X5165953Y1557223D01*
X5162702Y1555140D01*
X5158892Y1554429D01*
X4445152Y1554429D01*
X4441291Y1555191D01*
X4437989Y1557375D01*
X4436211Y1559153D01*
X4428185Y1564792D01*
X4419244Y1568958D01*
X4409795Y1571498D01*
X4399991Y1572361D01*
X4390186Y1571498D01*
X4380738Y1568958D01*
X4371797Y1564792D01*
X4363770Y1559153D01*
X4356811Y1552244D01*
X4351172Y1544167D01*
X4347057Y1535277D01*
X4344517Y1525778D01*
X4343654Y1515973D01*
X4344517Y1506220D01*
X4347057Y1496720D01*
X4351172Y1487830D01*
X4356811Y1479753D01*
X4363770Y1472844D01*
X4371797Y1467205D01*
X4380738Y1463040D01*
X4390186Y1460500D01*
X4399991Y1459636D01*
X4409795Y1460500D01*
X4419244Y1463040D01*
X4428185Y1467205D01*
X4436211Y1472844D01*
X4437989Y1474622D01*
X4441291Y1476806D01*
X4445152Y1477568D01*
X5158892Y1477568D01*
X5162702Y1476857D01*
X5165953Y1474774D01*
X5168188Y1471625D01*
X5174538Y1457502D01*
X5182412Y1444498D01*
X5191760Y1432509D01*
X5202529Y1421790D01*
X5214467Y1412392D01*
X5227472Y1404518D01*
X5241391Y1398270D01*
X5244592Y1396034D01*
X5246674Y1392783D01*
X5247386Y1388973D01*
X5246674Y1385214D01*
X5244592Y1381963D01*
X5241391Y1379728D01*
X5227472Y1373479D01*
X5214467Y1365605D01*
X5202529Y1356207D01*
X5191760Y1345488D01*
X5182412Y1333500D01*
X5174538Y1320495D01*
X5168188Y1306372D01*
X5165953Y1303223D01*
X5162702Y1301140D01*
X5158892Y1300429D01*
X4245152Y1300429D01*
X4241292Y1301191D01*
X4237990Y1303375D01*
X4236212Y1305153D01*
X4228185Y1310792D01*
X4219244Y1314958D01*
X4209796Y1317498D01*
X4199991Y1318361D01*
X4190187Y1317498D01*
X4180738Y1314958D01*
X4171797Y1310792D01*
X4163771Y1305153D01*
X4156811Y1298244D01*
X4151172Y1290167D01*
X4147058Y1281277D01*
X4144518Y1271778D01*
X4143654Y1261973D01*
X4144518Y1252220D01*
X4147058Y1242720D01*
X4151172Y1233830D01*
X4156811Y1225753D01*
X4163771Y1218844D01*
X4171797Y1213205D01*
X4180738Y1209040D01*
X4190187Y1206500D01*
X4199991Y1205636D01*
X4209796Y1206500D01*
X4219244Y1209040D01*
X4228185Y1213205D01*
X4236212Y1218844D01*
X4237990Y1220622D01*
X4241292Y1222806D01*
X4245152Y1223568D01*
X5158892Y1223568D01*
X5162702Y1222857D01*
X5165953Y1220774D01*
X5168188Y1217625D01*
X5174538Y1203502D01*
X5182412Y1190498D01*
X5191760Y1178509D01*
X5202529Y1167790D01*
X5214467Y1158392D01*
X5227472Y1150518D01*
X5241391Y1144270D01*
X5244592Y1142034D01*
X5246674Y1138783D01*
X5247386Y1134973D01*
X5246674Y1131214D01*
X5244592Y1127963D01*
X5241391Y1125728D01*
X5227472Y1119479D01*
X5214467Y1111605D01*
X5202529Y1102207D01*
X5191760Y1091488D01*
X5182412Y1079500D01*
X5174538Y1066495D01*
X5168188Y1052372D01*
X5165953Y1049223D01*
X5162702Y1047140D01*
X5158892Y1046429D01*
X4445152Y1046429D01*
X4441291Y1047191D01*
X4437989Y1049375D01*
X4436211Y1051153D01*
X4428185Y1056792D01*
X4419244Y1060958D01*
X4409795Y1063498D01*
X4399991Y1064361D01*
X4390186Y1063498D01*
X4380738Y1060958D01*
X4371797Y1056792D01*
X4363770Y1051153D01*
X4356811Y1044244D01*
X4351172Y1036167D01*
X4347057Y1027277D01*
X4344517Y1017778D01*
X4343654Y1007973D01*
X4344517Y998219D01*
X4347057Y988720D01*
X4351172Y979830D01*
X4356811Y971753D01*
X4363770Y964844D01*
X4371797Y959205D01*
X4380738Y955040D01*
X4390186Y952500D01*
X4399991Y951636D01*
X4409795Y952500D01*
X4419244Y955040D01*
X4428185Y959205D01*
X4436211Y964844D01*
X4437989Y966622D01*
X4441291Y968806D01*
X4445152Y969568D01*
X5158892Y969568D01*
X5162702Y968857D01*
X5165953Y966774D01*
X5168188Y963625D01*
X5174538Y949502D01*
X5182412Y936498D01*
X5191760Y924509D01*
X5202529Y913790D01*
X5214467Y904392D01*
X5227472Y896518D01*
X5241391Y890269D01*
X5244592Y888034D01*
X5246674Y884783D01*
X5247386Y880973D01*
X5246674Y877214D01*
X5244592Y873963D01*
X5241391Y871728D01*
X5227472Y865479D01*
X5214467Y857605D01*
X5202529Y848207D01*
X5191760Y837488D01*
X5188864Y833780D01*
X5186680Y831697D01*
X5183886Y830376D01*
X5180888Y829919D01*
X4600346Y829919D01*
X4588662Y829056D01*
X4577638Y826516D01*
X4567072Y822350D01*
X4557268Y816711D01*
X4548378Y809599D01*
X4540656Y801319D01*
X4534255Y791921D01*
X4529378Y781710D01*
X4526026Y770890D01*
X4524298Y759663D01*
X4524298Y748334D01*
X4526026Y737108D01*
X4529378Y726287D01*
X4534255Y716076D01*
X4540656Y706678D01*
X4548378Y698398D01*
X4557268Y691286D01*
X4567072Y685647D01*
X4577638Y681482D01*
X4588662Y678942D01*
X4600346Y678078D01*
X5180888Y678078D01*
X5183886Y677621D01*
X5186680Y676300D01*
X5188864Y674217D01*
X5191760Y670509D01*
X5202529Y659790D01*
X5214467Y650392D01*
X5227472Y642518D01*
X5241391Y636270D01*
X5255869Y631748D01*
X5270804Y629005D01*
G37*
G36*
X234594Y627989D02*
G01*
X248208Y628446D01*
X261670Y630682D01*
X274675Y634746D01*
X287070Y640486D01*
X298551Y647801D01*
X308965Y656590D01*
X318109Y666750D01*
X325831Y677976D01*
X329895Y686003D01*
X332130Y688949D01*
X335330Y690930D01*
X338937Y691591D01*
X554837Y691591D01*
X558698Y690829D01*
X562000Y688594D01*
X563778Y686816D01*
X571804Y681177D01*
X580745Y677062D01*
X590194Y674522D01*
X599998Y673658D01*
X609803Y674522D01*
X619252Y677062D01*
X628192Y681177D01*
X636219Y686816D01*
X643178Y693775D01*
X648817Y701802D01*
X652932Y710742D01*
X655472Y720191D01*
X656336Y729996D01*
X655472Y739800D01*
X652932Y749249D01*
X648817Y758190D01*
X643178Y766216D01*
X636219Y773176D01*
X628192Y778814D01*
X619252Y782929D01*
X609803Y785469D01*
X599998Y786333D01*
X590194Y785469D01*
X580745Y782929D01*
X571804Y778814D01*
X563778Y773176D01*
X562000Y771398D01*
X558698Y769162D01*
X554837Y768400D01*
X338937Y768400D01*
X335330Y769061D01*
X332130Y771042D01*
X329895Y773988D01*
X325831Y782015D01*
X318109Y793242D01*
X308965Y803402D01*
X298551Y812190D01*
X287070Y819505D01*
X274675Y825246D01*
X261670Y829310D01*
X248208Y831545D01*
X234594Y832002D01*
X221030Y830681D01*
X207771Y827481D01*
X195021Y822604D01*
X183083Y816051D01*
X172110Y807974D01*
X162306Y798474D01*
X153822Y787755D01*
X146862Y776020D01*
X141579Y763473D01*
X137972Y750316D01*
X136144Y736803D01*
X136144Y723188D01*
X137972Y709676D01*
X141579Y696518D01*
X146862Y683971D01*
X153822Y672236D01*
X162306Y661517D01*
X172110Y652018D01*
X183083Y643940D01*
X195021Y637387D01*
X207771Y632510D01*
X221030Y629310D01*
G37*
G36*
X2887573Y556361D02*
G01*
X2943656Y556361D01*
X2943656Y612444D01*
X2941472Y611479D01*
X2928467Y603605D01*
X2916529Y594207D01*
X2905760Y583488D01*
X2896412Y571500D01*
X2888538Y558495D01*
G37*
G36*
X5173573Y556361D02*
G01*
X5229656Y556361D01*
X5229656Y612444D01*
X5227472Y611479D01*
X5214467Y603605D01*
X5202529Y594207D01*
X5191760Y583488D01*
X5182412Y571500D01*
X5174538Y558495D01*
G37*
G36*
X3056331Y556361D02*
G01*
X3112414Y556361D01*
X3111449Y558495D01*
X3103575Y571500D01*
X3094228Y583488D01*
X3083458Y594207D01*
X3071520Y603605D01*
X3058515Y611479D01*
X3056331Y612444D01*
G37*
G36*
X5342331Y556361D02*
G01*
X5398414Y556361D01*
X5397449Y558495D01*
X5389575Y571500D01*
X5380228Y583488D01*
X5369458Y594207D01*
X5357520Y603605D01*
X5344515Y611479D01*
X5342331Y612444D01*
G37*
G36*
X1758594Y627989D02*
G01*
X1772208Y628446D01*
X1785670Y630682D01*
X1798675Y634746D01*
X1811070Y640486D01*
X1822551Y647801D01*
X1832965Y656590D01*
X1842109Y666750D01*
X1849831Y677976D01*
X1855978Y690118D01*
X1860448Y703021D01*
X1863191Y716381D01*
X1864106Y729996D01*
X1863191Y743610D01*
X1860448Y756970D01*
X1855978Y769874D01*
X1849831Y782015D01*
X1842109Y793242D01*
X1832965Y803402D01*
X1822551Y812190D01*
X1811070Y819505D01*
X1798675Y825246D01*
X1785670Y829310D01*
X1772208Y831545D01*
X1758594Y832002D01*
X1745030Y830681D01*
X1731772Y827481D01*
X1719021Y822604D01*
X1707083Y816051D01*
X1696110Y807974D01*
X1686306Y798474D01*
X1677822Y787755D01*
X1670862Y776020D01*
X1665579Y763473D01*
X1661972Y750316D01*
X1660143Y736803D01*
X1660143Y723188D01*
X1661972Y709676D01*
X1665579Y696518D01*
X1670862Y683971D01*
X1677822Y672236D01*
X1686306Y661517D01*
X1696110Y652018D01*
X1707083Y643940D01*
X1719021Y637387D01*
X1731772Y632510D01*
X1745030Y629310D01*
G37*
G36*
X234594Y1389989D02*
G01*
X248208Y1390446D01*
X261670Y1392682D01*
X274675Y1396746D01*
X287070Y1402486D01*
X298551Y1409801D01*
X308965Y1418590D01*
X318109Y1428750D01*
X325831Y1439976D01*
X331978Y1452118D01*
X336448Y1465021D01*
X339191Y1478381D01*
X340106Y1491996D01*
X339191Y1505610D01*
X336448Y1518970D01*
X331978Y1531874D01*
X325831Y1544015D01*
X318109Y1555242D01*
X308965Y1565402D01*
X298551Y1574190D01*
X287070Y1581505D01*
X274675Y1587246D01*
X261670Y1591310D01*
X248208Y1593545D01*
X234594Y1594002D01*
X221030Y1592681D01*
X207771Y1589481D01*
X195021Y1584604D01*
X183083Y1578051D01*
X172110Y1569974D01*
X162306Y1560474D01*
X153822Y1549755D01*
X146862Y1538020D01*
X141579Y1525473D01*
X137972Y1512316D01*
X136144Y1498803D01*
X136144Y1485188D01*
X137972Y1471676D01*
X141579Y1458518D01*
X146862Y1445971D01*
X153822Y1434236D01*
X162306Y1423517D01*
X172110Y1414018D01*
X183083Y1405940D01*
X195021Y1399387D01*
X207771Y1394510D01*
X221030Y1391310D01*
G37*

%LPD*%
D10*
X4599990Y3524986D02*
G01*
X1762991Y3524986D01*
X1762000Y3523995D01*
X5285993Y753998D02*
G01*
X4599990Y753998D01*
X2399995Y3024987D02*
G01*
X1770992Y3024987D01*
X1762000Y3015995D01*
X2999991Y754001D02*
G01*
X2399995Y754001D01*
X2399995Y749985D01*
D11*
X4199991Y99999D02*
G01*
X2199995Y99999D01*
X5285993Y1261998D02*
G01*
X4199991Y1261998D01*
X4399991Y299999D02*
G01*
X1999995Y299999D01*
X5285993Y1007998D02*
G01*
X4599990Y1007998D01*
X4399991Y1007998D01*
X599998Y1849996D02*
G01*
X856198Y1849996D01*
X237997Y729995D02*
G01*
X599998Y729995D01*
X499998Y1099997D02*
G01*
X999997Y1099997D01*
X237997Y475995D02*
G01*
X499998Y475995D01*
X399999Y1349997D02*
G01*
X800100Y1349997D01*
X237997Y221995D02*
G01*
X237997Y237997D01*
X399999Y399999D01*
X1975865Y2024126D02*
G01*
X1875028Y2124963D01*
X367029Y2124963D01*
X237997Y2253995D01*
X2999993Y2024126D02*
G01*
X1975865Y2024126D01*
X4099991Y2649994D02*
G01*
X379996Y2649994D01*
X237997Y2507995D01*
X5285993Y2277998D02*
G01*
X4099991Y2277998D01*
X599947Y2899918D02*
G01*
X375920Y2899918D01*
X237997Y2761995D01*
X4199890Y2899918D02*
G01*
X599947Y2899918D01*
X5285993Y2024126D02*
G01*
X4199890Y2024126D01*
X4299991Y3399993D02*
G01*
X4299988Y3399990D01*
X367995Y3399990D01*
X238000Y3269995D01*
X5285993Y1769998D02*
G01*
X4299991Y1769998D01*
X4399991Y3149993D02*
G01*
X371995Y3149993D01*
X237997Y3015995D01*
X5285993Y1515998D02*
G01*
X4399991Y1515998D01*
X2699994Y499998D02*
G01*
X1786001Y499998D01*
X1761997Y475995D01*
X2999993Y2277998D02*
G01*
X2699994Y2277998D01*
X2999993Y1769998D02*
G01*
X1899996Y1769998D01*
X1819998Y1849996D01*
X849998Y1849996D01*
X2799994Y199999D02*
G01*
X1783994Y199999D01*
X1761997Y221995D01*
X2999993Y1515998D02*
G01*
X2799994Y1515998D01*
X2999993Y1262126D02*
G01*
X1938020Y1262126D01*
X1849881Y1350010D01*
X800100Y1350010D01*
X1771853Y1099997D02*
G01*
X999997Y1099997D01*
X2999993Y1007998D02*
G01*
X1991995Y1007998D01*
X1899996Y1099997D01*
X1771853Y1099997D01*
D12*
G01*
X2999993Y499998D03*
G01*
X2999993Y753998D03*
G01*
X5285993Y753998D03*
G01*
X5285993Y499998D03*
G01*
X2999993Y1007998D03*
G01*
X2999993Y1261998D03*
G01*
X5285993Y1261998D03*
G01*
X5285993Y1007998D03*
G01*
X2999993Y1515998D03*
G01*
X2999993Y1769998D03*
G01*
X5285993Y1769998D03*
G01*
X5285993Y1515998D03*
G01*
X2999993Y2023998D03*
G36*
X2899994Y2377998D02*
G01*
X3099993Y2377998D01*
X3099993Y2177999D01*
X2899994Y2177999D01*
G37*
G01*
X5285993Y2277998D03*
G01*
X5285993Y2023998D03*
D13*
G01*
X237997Y3523995D03*
G01*
X237997Y3269995D03*
G01*
X237997Y3015995D03*
G01*
X237997Y2761995D03*
G01*
X237997Y2507995D03*
G01*
X237997Y2253995D03*
G01*
X237997Y1999995D03*
G01*
X237997Y1745995D03*
G01*
X237997Y1491995D03*
G01*
X237997Y1237995D03*
G01*
X237997Y983995D03*
G01*
X237997Y729995D03*
G01*
X237997Y475995D03*
G01*
X237997Y221995D03*
G01*
X491997Y221995D03*
G01*
X745997Y221995D03*
G01*
X999997Y221995D03*
G01*
X1253997Y221995D03*
G01*
X1507997Y221995D03*
G01*
X1761997Y221995D03*
G01*
X1761997Y475995D03*
G01*
X1761997Y729995D03*
G01*
X1761997Y983995D03*
G01*
X1761997Y1237995D03*
G01*
X1761997Y1491995D03*
G01*
X1761997Y1745995D03*
G01*
X1761997Y1999995D03*
G01*
X1761997Y2253995D03*
G01*
X1761997Y2507995D03*
G01*
X1761997Y2761995D03*
G01*
X1761997Y3015995D03*
G01*
X1761997Y3269995D03*
G01*
X1761997Y3523995D03*
G01*
X1507997Y3269995D03*
G01*
X1507997Y2761995D03*
G01*
X1507997Y2507995D03*
G01*
X1507997Y2253995D03*
D14*
G01*
X2399995Y749998D03*
G01*
X2399995Y3024992D03*
G01*
X2799994Y1515998D03*
G01*
X2799994Y199999D03*
G01*
X2699994Y2277998D03*
G01*
X2699994Y499998D03*
G01*
X4599990Y753998D03*
G01*
X4599990Y3524991D03*
G01*
X4399991Y1515998D03*
G01*
X4399991Y3149993D03*
G01*
X4299991Y1769998D03*
G01*
X4299991Y3399993D03*
G01*
X4199991Y2899994D03*
G01*
X4199890Y2024126D03*
G01*
X4099991Y2277998D03*
G01*
X4099991Y2649994D03*
G01*
X399999Y399999D03*
G01*
X399999Y1349997D03*
G01*
X499998Y475995D03*
G01*
X499998Y1099997D03*
G01*
X599998Y729995D03*
G01*
X599998Y1849996D03*
G01*
X4399991Y1007998D03*
G01*
X4399991Y299999D03*
G01*
X1999995Y299999D03*
G01*
X4199991Y1261998D03*
G01*
X4199991Y99999D03*
G01*
X2199995Y99999D03*
M02*
