G04 Layer: TopSolderMaskLayer*
G04 EasyEDA v6.5.9, 2022-09-16 14:53:16*
G04 a67cddfb3fce44daa9051d46cbbcc19f,10*
G04 Gerber Generator version 0.2*
G04 Scale: 100 percent, Rotated: No, Reflected: No *
G04 Dimensions in millimeters *
G04 leading zeros omitted , absolute positions ,4 integer and 5 decimal *
%FSLAX45Y45*%
%MOMM*%

%ADD10C,2.2032*%
%ADD11C,1.6256*%

%LPD*%
D10*
G01*
X2999993Y499998D03*
G01*
X2999993Y753998D03*
G01*
X5285993Y753998D03*
G01*
X5285993Y499998D03*
G01*
X2999993Y1007998D03*
G01*
X2999993Y1261998D03*
G01*
X5285993Y1261998D03*
G01*
X5285993Y1007998D03*
G01*
X2999993Y1515998D03*
G01*
X2999993Y1769998D03*
G01*
X5285993Y1769998D03*
G01*
X5285993Y1515998D03*
G01*
X2999993Y2023998D03*
G36*
X2899994Y2167839D02*
G01*
X2896946Y2168347D01*
X2893898Y2169871D01*
X2891866Y2171903D01*
X2890342Y2174951D01*
X2889834Y2177999D01*
X2889758Y2178050D01*
X2889758Y2377947D01*
X2889834Y2377998D01*
X2890342Y2381046D01*
X2891866Y2384094D01*
X2893898Y2386126D01*
X2896946Y2387650D01*
X2899994Y2388158D01*
X2899918Y2388107D01*
X3100070Y2388107D01*
X3099993Y2388158D01*
X3103041Y2387650D01*
X3106089Y2386126D01*
X3108121Y2384094D01*
X3109645Y2381046D01*
X3110153Y2377998D01*
X3110229Y2377947D01*
X3110229Y2178050D01*
X3110153Y2177999D01*
X3109645Y2174951D01*
X3108121Y2171903D01*
X3106089Y2169871D01*
X3103041Y2168347D01*
X3099993Y2167839D01*
X3100070Y2167889D01*
X2899918Y2167889D01*
G37*
G01*
X5285993Y2277998D03*
G01*
X5285993Y2023998D03*
D11*
G01*
X237997Y3523995D03*
G01*
X237997Y3269995D03*
G01*
X237997Y3015995D03*
G01*
X237997Y2761995D03*
G01*
X237997Y2507995D03*
G01*
X237997Y2253995D03*
G01*
X237997Y1999995D03*
G01*
X237997Y1745995D03*
G01*
X237997Y1491995D03*
G01*
X237997Y1237995D03*
G01*
X237997Y983995D03*
G01*
X237997Y729995D03*
G01*
X237997Y475995D03*
G01*
X237997Y221995D03*
G01*
X491997Y221995D03*
G01*
X745997Y221995D03*
G01*
X999997Y221995D03*
G01*
X1253997Y221995D03*
G01*
X1507997Y221995D03*
G01*
X1761997Y221995D03*
G01*
X1761997Y475995D03*
G01*
X1761997Y729995D03*
G01*
X1761997Y983995D03*
G01*
X1761997Y1237995D03*
G01*
X1761997Y1491995D03*
G01*
X1761997Y1745995D03*
G01*
X1761997Y1999995D03*
G01*
X1761997Y2253995D03*
G01*
X1761997Y2507995D03*
G01*
X1761997Y2761995D03*
G01*
X1761997Y3015995D03*
G01*
X1761997Y3269995D03*
G01*
X1761997Y3523995D03*
G01*
X1507997Y3269995D03*
G01*
X1507997Y2761995D03*
G01*
X1507997Y2507995D03*
G01*
X1507997Y2253995D03*
M02*
