G04 Layer: TopSilkscreenLayer*
G04 EasyEDA v6.5.9, 2022-09-16 14:53:16*
G04 a67cddfb3fce44daa9051d46cbbcc19f,10*
G04 Gerber Generator version 0.2*
G04 Scale: 100 percent, Rotated: No, Reflected: No *
G04 Dimensions in millimeters *
G04 leading zeros omitted , absolute positions ,4 integer and 5 decimal *
%FSLAX45Y45*%
%MOMM*%

%ADD10C,0.2032*%
%ADD11C,0.1524*%
%ADD12C,0.2540*%

%LPD*%
D10*
X1864613Y4305045D02*
G01*
X1864613Y4110989D01*
X1800097Y4305045D02*
G01*
X1929384Y4305045D01*
X1990343Y4184904D02*
G01*
X2101088Y4184904D01*
X2101088Y4203445D01*
X2091943Y4221987D01*
X2082545Y4231131D01*
X2064258Y4240276D01*
X2036572Y4240276D01*
X2018029Y4231131D01*
X1999488Y4212589D01*
X1990343Y4184904D01*
X1990343Y4166615D01*
X1999488Y4138676D01*
X2018029Y4120387D01*
X2036572Y4110989D01*
X2064258Y4110989D01*
X2082545Y4120387D01*
X2101088Y4138676D01*
X2162047Y4184904D02*
G01*
X2272791Y4184904D01*
X2272791Y4203445D01*
X2263647Y4221987D01*
X2254504Y4231131D01*
X2235961Y4240276D01*
X2208275Y4240276D01*
X2189734Y4231131D01*
X2171191Y4212589D01*
X2162047Y4184904D01*
X2162047Y4166615D01*
X2171191Y4138676D01*
X2189734Y4120387D01*
X2208275Y4110989D01*
X2235961Y4110989D01*
X2254504Y4120387D01*
X2272791Y4138676D01*
X2333752Y4240276D02*
G01*
X2333752Y4110989D01*
X2333752Y4203445D02*
G01*
X2361691Y4231131D01*
X2379979Y4240276D01*
X2407665Y4240276D01*
X2426208Y4231131D01*
X2435352Y4203445D01*
X2435352Y4110989D01*
X2597911Y4212589D02*
G01*
X2588768Y4231131D01*
X2561081Y4240276D01*
X2533395Y4240276D01*
X2505709Y4231131D01*
X2496311Y4212589D01*
X2505709Y4194302D01*
X2524252Y4184904D01*
X2570225Y4175760D01*
X2588768Y4166615D01*
X2597911Y4148073D01*
X2597911Y4138676D01*
X2588768Y4120387D01*
X2561081Y4110989D01*
X2533395Y4110989D01*
X2505709Y4120387D01*
X2496311Y4138676D01*
X2668270Y4240276D02*
G01*
X2723641Y4110989D01*
X2779013Y4240276D02*
G01*
X2723641Y4110989D01*
X2705100Y4074160D01*
X2686811Y4055618D01*
X2668270Y4046473D01*
X2658872Y4046473D01*
X3009900Y4305045D02*
G01*
X3009900Y4148073D01*
X3019297Y4120387D01*
X3037586Y4110989D01*
X3056127Y4110989D01*
X2982213Y4240276D02*
G01*
X3046984Y4240276D01*
X3163315Y4240276D02*
G01*
X3144774Y4231131D01*
X3126231Y4212589D01*
X3117088Y4184904D01*
X3117088Y4166615D01*
X3126231Y4138676D01*
X3144774Y4120387D01*
X3163315Y4110989D01*
X3191002Y4110989D01*
X3209543Y4120387D01*
X3227831Y4138676D01*
X3237229Y4166615D01*
X3237229Y4184904D01*
X3227831Y4212589D01*
X3209543Y4231131D01*
X3191002Y4240276D01*
X3163315Y4240276D01*
X3578859Y4258818D02*
G01*
X3569715Y4277360D01*
X3551174Y4295902D01*
X3532631Y4305045D01*
X3495802Y4305045D01*
X3477259Y4295902D01*
X3458972Y4277360D01*
X3449574Y4258818D01*
X3440429Y4231131D01*
X3440429Y4184904D01*
X3449574Y4157218D01*
X3458972Y4138676D01*
X3477259Y4120387D01*
X3495802Y4110989D01*
X3532631Y4110989D01*
X3551174Y4120387D01*
X3569715Y4138676D01*
X3578859Y4157218D01*
X3639820Y4305045D02*
G01*
X3639820Y4110989D01*
X3700779Y4305045D02*
G01*
X3710177Y4295902D01*
X3719322Y4305045D01*
X3710177Y4314189D01*
X3700779Y4305045D01*
X3710177Y4240276D02*
G01*
X3710177Y4110989D01*
X3891025Y4212589D02*
G01*
X3872738Y4231131D01*
X3854195Y4240276D01*
X3826509Y4240276D01*
X3807968Y4231131D01*
X3789425Y4212589D01*
X3780281Y4184904D01*
X3780281Y4166615D01*
X3789425Y4138676D01*
X3807968Y4120387D01*
X3826509Y4110989D01*
X3854195Y4110989D01*
X3872738Y4120387D01*
X3891025Y4138676D01*
X3951986Y4305045D02*
G01*
X3951986Y4110989D01*
X4044441Y4240276D02*
G01*
X3951986Y4148073D01*
X3989070Y4184904D02*
G01*
X4053586Y4110989D01*
X4367784Y4240276D02*
G01*
X4367784Y4110989D01*
X4367784Y4212589D02*
G01*
X4349241Y4231131D01*
X4330700Y4240276D01*
X4303013Y4240276D01*
X4284472Y4231131D01*
X4266184Y4212589D01*
X4256786Y4184904D01*
X4256786Y4166615D01*
X4266184Y4138676D01*
X4284472Y4120387D01*
X4303013Y4110989D01*
X4330700Y4110989D01*
X4349241Y4120387D01*
X4367784Y4138676D01*
X4539488Y4305045D02*
G01*
X4539488Y4110989D01*
X4539488Y4212589D02*
G01*
X4520945Y4231131D01*
X4502658Y4240276D01*
X4474972Y4240276D01*
X4456429Y4231131D01*
X4437888Y4212589D01*
X4428743Y4184904D01*
X4428743Y4166615D01*
X4437888Y4138676D01*
X4456429Y4120387D01*
X4474972Y4110989D01*
X4502658Y4110989D01*
X4520945Y4120387D01*
X4539488Y4138676D01*
X4711191Y4240276D02*
G01*
X4711191Y4110989D01*
X4711191Y4212589D02*
G01*
X4692904Y4231131D01*
X4674361Y4240276D01*
X4646675Y4240276D01*
X4628134Y4231131D01*
X4609591Y4212589D01*
X4600447Y4184904D01*
X4600447Y4166615D01*
X4609591Y4138676D01*
X4628134Y4120387D01*
X4646675Y4110989D01*
X4674361Y4110989D01*
X4692904Y4120387D01*
X4711191Y4138676D01*
X4772152Y4240276D02*
G01*
X4772152Y4046473D01*
X4772152Y4212589D02*
G01*
X4790693Y4231131D01*
X4809236Y4240276D01*
X4836922Y4240276D01*
X4855463Y4231131D01*
X4873752Y4212589D01*
X4883150Y4184904D01*
X4883150Y4166615D01*
X4873752Y4138676D01*
X4855463Y4120387D01*
X4836922Y4110989D01*
X4809236Y4110989D01*
X4790693Y4120387D01*
X4772152Y4138676D01*
X4971795Y4305045D02*
G01*
X4971795Y4148073D01*
X4980940Y4120387D01*
X4999481Y4110989D01*
X5018024Y4110989D01*
X4944109Y4240276D02*
G01*
X5008625Y4240276D01*
X5078984Y4184904D02*
G01*
X5189727Y4184904D01*
X5189727Y4203445D01*
X5180584Y4221987D01*
X5171186Y4231131D01*
X5152897Y4240276D01*
X5125211Y4240276D01*
X5106670Y4231131D01*
X5088127Y4212589D01*
X5078984Y4184904D01*
X5078984Y4166615D01*
X5088127Y4138676D01*
X5106670Y4120387D01*
X5125211Y4110989D01*
X5152897Y4110989D01*
X5171186Y4120387D01*
X5189727Y4138676D01*
X5250688Y4240276D02*
G01*
X5250688Y4110989D01*
X5250688Y4184904D02*
G01*
X5259831Y4212589D01*
X5278374Y4231131D01*
X5296915Y4240276D01*
X5324602Y4240276D01*
X1800097Y4000245D02*
G01*
X1874012Y3806189D01*
X1947672Y4000245D02*
G01*
X1874012Y3806189D01*
X2008631Y3880104D02*
G01*
X2119629Y3880104D01*
X2119629Y3898645D01*
X2110231Y3917187D01*
X2101088Y3926331D01*
X2082545Y3935476D01*
X2054859Y3935476D01*
X2036572Y3926331D01*
X2018029Y3907789D01*
X2008631Y3880104D01*
X2008631Y3861815D01*
X2018029Y3833876D01*
X2036572Y3815587D01*
X2054859Y3806189D01*
X2082545Y3806189D01*
X2101088Y3815587D01*
X2119629Y3833876D01*
X2180590Y3935476D02*
G01*
X2180590Y3806189D01*
X2180590Y3880104D02*
G01*
X2189734Y3907789D01*
X2208275Y3926331D01*
X2226818Y3935476D01*
X2254504Y3935476D01*
X2417063Y3907789D02*
G01*
X2407665Y3926331D01*
X2379979Y3935476D01*
X2352293Y3935476D01*
X2324608Y3926331D01*
X2315463Y3907789D01*
X2324608Y3889502D01*
X2343150Y3880104D01*
X2389377Y3870960D01*
X2407665Y3861815D01*
X2417063Y3843273D01*
X2417063Y3833876D01*
X2407665Y3815587D01*
X2379979Y3806189D01*
X2352293Y3806189D01*
X2324608Y3815587D01*
X2315463Y3833876D01*
X2478024Y4000245D02*
G01*
X2487168Y3991102D01*
X2496311Y4000245D01*
X2487168Y4009389D01*
X2478024Y4000245D01*
X2487168Y3935476D02*
G01*
X2487168Y3806189D01*
X2603500Y3935476D02*
G01*
X2585211Y3926331D01*
X2566670Y3907789D01*
X2557272Y3880104D01*
X2557272Y3861815D01*
X2566670Y3833876D01*
X2585211Y3815587D01*
X2603500Y3806189D01*
X2631186Y3806189D01*
X2649727Y3815587D01*
X2668270Y3833876D01*
X2677413Y3861815D01*
X2677413Y3880104D01*
X2668270Y3907789D01*
X2649727Y3926331D01*
X2631186Y3935476D01*
X2603500Y3935476D01*
X2738374Y3935476D02*
G01*
X2738374Y3806189D01*
X2738374Y3898645D02*
G01*
X2766059Y3926331D01*
X2784602Y3935476D01*
X2812288Y3935476D01*
X2830829Y3926331D01*
X2839974Y3898645D01*
X2839974Y3806189D01*
X3043174Y3963415D02*
G01*
X3061715Y3972560D01*
X3089402Y4000245D01*
X3089402Y3806189D01*
X3159506Y3852418D02*
G01*
X3150361Y3843273D01*
X3159506Y3833876D01*
X3168904Y3843273D01*
X3159506Y3852418D01*
X3285236Y4000245D02*
G01*
X3257550Y3991102D01*
X3239008Y3963415D01*
X3229863Y3917187D01*
X3229863Y3889502D01*
X3239008Y3843273D01*
X3257550Y3815587D01*
X3285236Y3806189D01*
X3303777Y3806189D01*
X3331463Y3815587D01*
X3349752Y3843273D01*
X3359150Y3889502D01*
X3359150Y3917187D01*
X3349752Y3963415D01*
X3331463Y3991102D01*
X3303777Y4000245D01*
X3285236Y4000245D01*
D11*
X4195063Y3129914D02*
G01*
X4195063Y3046856D01*
X4189729Y3031109D01*
X4184650Y3026029D01*
X4174236Y3020948D01*
X4163822Y3020948D01*
X4153408Y3026029D01*
X4148074Y3031109D01*
X4142993Y3046856D01*
X4142993Y3057270D01*
X4229354Y3109087D02*
G01*
X4239513Y3114420D01*
X4255261Y3129914D01*
X4255261Y3020948D01*
D10*
X3266693Y2343022D02*
G01*
X3215893Y2209419D01*
X3266693Y2343022D02*
G01*
X3317747Y2209419D01*
X3234943Y2253869D02*
G01*
X3298697Y2253869D01*
X3359658Y2343022D02*
G01*
X3359658Y2209419D01*
X3359658Y2343022D02*
G01*
X3448811Y2209419D01*
X3448811Y2343022D02*
G01*
X3448811Y2209419D01*
X3215893Y2089022D02*
G01*
X3215893Y1955419D01*
X3215893Y2089022D02*
G01*
X3273043Y2089022D01*
X3292347Y2082672D01*
X3298697Y2076322D01*
X3305047Y2063622D01*
X3305047Y2050922D01*
X3298697Y2038222D01*
X3292347Y2031872D01*
X3273043Y2025522D01*
X3215893Y2025522D01*
X3260343Y2025522D02*
G01*
X3305047Y1955419D01*
X3436111Y2069972D02*
G01*
X3423411Y2082672D01*
X3404361Y2089022D01*
X3378708Y2089022D01*
X3359658Y2082672D01*
X3346958Y2069972D01*
X3346958Y2057272D01*
X3353308Y2044572D01*
X3359658Y2038222D01*
X3372358Y2031872D01*
X3410711Y2019172D01*
X3423411Y2012822D01*
X3429761Y2006219D01*
X3436111Y1993519D01*
X3436111Y1974469D01*
X3423411Y1961769D01*
X3404361Y1955419D01*
X3378708Y1955419D01*
X3359658Y1961769D01*
X3346958Y1974469D01*
X3522725Y2089022D02*
G01*
X3522725Y1955419D01*
X3478022Y2089022D02*
G01*
X3567175Y2089022D01*
X3215893Y1327022D02*
G01*
X3215893Y1193419D01*
X3215893Y1327022D02*
G01*
X3266693Y1193419D01*
X3317747Y1327022D02*
G01*
X3266693Y1193419D01*
X3317747Y1327022D02*
G01*
X3317747Y1193419D01*
X3359658Y1327022D02*
G01*
X3359658Y1193419D01*
X3490722Y1307972D02*
G01*
X3478022Y1320672D01*
X3458972Y1327022D01*
X3433572Y1327022D01*
X3414522Y1320672D01*
X3401822Y1307972D01*
X3401822Y1295272D01*
X3408172Y1282572D01*
X3414522Y1276222D01*
X3427222Y1269872D01*
X3465322Y1257172D01*
X3478022Y1250822D01*
X3484372Y1244219D01*
X3490722Y1231519D01*
X3490722Y1212469D01*
X3478022Y1199769D01*
X3458972Y1193419D01*
X3433572Y1193419D01*
X3414522Y1199769D01*
X3401822Y1212469D01*
X3570986Y1327022D02*
G01*
X3558286Y1320672D01*
X3545586Y1307972D01*
X3539236Y1295272D01*
X3532886Y1276222D01*
X3532886Y1244219D01*
X3539236Y1225169D01*
X3545586Y1212469D01*
X3558286Y1199769D01*
X3570986Y1193419D01*
X3596386Y1193419D01*
X3609086Y1199769D01*
X3621786Y1212469D01*
X3628136Y1225169D01*
X3634740Y1244219D01*
X3634740Y1276222D01*
X3628136Y1295272D01*
X3621786Y1307972D01*
X3609086Y1320672D01*
X3596386Y1327022D01*
X3570986Y1327022D01*
X4727193Y2343022D02*
G01*
X4727193Y2209419D01*
X4727193Y2343022D02*
G01*
X4784343Y2343022D01*
X4803647Y2336672D01*
X4809997Y2330322D01*
X4816347Y2317622D01*
X4816347Y2298572D01*
X4809997Y2285872D01*
X4803647Y2279522D01*
X4784343Y2273172D01*
X4727193Y2273172D01*
X4858258Y2343022D02*
G01*
X4890008Y2209419D01*
X4922011Y2343022D02*
G01*
X4890008Y2209419D01*
X4922011Y2343022D02*
G01*
X4953761Y2209419D01*
X4985511Y2343022D02*
G01*
X4953761Y2209419D01*
X5027675Y2343022D02*
G01*
X5027675Y2209419D01*
X5027675Y2343022D02*
G01*
X5078475Y2209419D01*
X5129275Y2343022D02*
G01*
X5078475Y2209419D01*
X5129275Y2343022D02*
G01*
X5129275Y2209419D01*
X4727193Y2076322D02*
G01*
X4727193Y1942719D01*
X4769104Y2076322D02*
G01*
X4769104Y1942719D01*
X4769104Y2076322D02*
G01*
X4858258Y1942719D01*
X4858258Y2076322D02*
G01*
X4858258Y1942719D01*
X4944872Y2076322D02*
G01*
X4944872Y1942719D01*
X4900168Y2076322D02*
G01*
X4989322Y2076322D01*
X4727193Y1835022D02*
G01*
X4727193Y1701419D01*
X4727193Y1835022D02*
G01*
X4784343Y1835022D01*
X4803647Y1828672D01*
X4809997Y1822322D01*
X4816347Y1809622D01*
X4816347Y1796922D01*
X4809997Y1784222D01*
X4803647Y1777872D01*
X4784343Y1771522D01*
X4727193Y1771522D01*
X4771643Y1771522D02*
G01*
X4816347Y1701419D01*
X4858258Y1835022D02*
G01*
X4947411Y1701419D01*
X4947411Y1835022D02*
G01*
X4858258Y1701419D01*
X4771643Y1581022D02*
G01*
X4771643Y1447419D01*
X4727193Y1581022D02*
G01*
X4816347Y1581022D01*
X4858258Y1581022D02*
G01*
X4947411Y1447419D01*
X4947411Y1581022D02*
G01*
X4858258Y1447419D01*
X4816347Y1307972D02*
G01*
X4803647Y1320672D01*
X4784343Y1327022D01*
X4758943Y1327022D01*
X4739893Y1320672D01*
X4727193Y1307972D01*
X4727193Y1295272D01*
X4733543Y1282572D01*
X4739893Y1276222D01*
X4752593Y1269872D01*
X4790947Y1257172D01*
X4803647Y1250822D01*
X4809997Y1244219D01*
X4816347Y1231519D01*
X4816347Y1212469D01*
X4803647Y1199769D01*
X4784343Y1193419D01*
X4758943Y1193419D01*
X4739893Y1199769D01*
X4727193Y1212469D01*
X4953761Y1295272D02*
G01*
X4947411Y1307972D01*
X4934711Y1320672D01*
X4922011Y1327022D01*
X4896358Y1327022D01*
X4883658Y1320672D01*
X4870958Y1307972D01*
X4864608Y1295272D01*
X4858258Y1276222D01*
X4858258Y1244219D01*
X4864608Y1225169D01*
X4870958Y1212469D01*
X4883658Y1199769D01*
X4896358Y1193419D01*
X4922011Y1193419D01*
X4934711Y1199769D01*
X4947411Y1212469D01*
X4953761Y1225169D01*
X4995672Y1327022D02*
G01*
X4995672Y1193419D01*
X4995672Y1193419D02*
G01*
X5072125Y1193419D01*
X4816347Y1053972D02*
G01*
X4803647Y1066672D01*
X4784343Y1073022D01*
X4758943Y1073022D01*
X4739893Y1066672D01*
X4727193Y1053972D01*
X4727193Y1041272D01*
X4733543Y1028572D01*
X4739893Y1022222D01*
X4752593Y1015872D01*
X4790947Y1003172D01*
X4803647Y996822D01*
X4809997Y990219D01*
X4816347Y977519D01*
X4816347Y958469D01*
X4803647Y945769D01*
X4784343Y939419D01*
X4758943Y939419D01*
X4739893Y945769D01*
X4727193Y958469D01*
X4858258Y1073022D02*
G01*
X4858258Y939419D01*
X4858258Y1073022D02*
G01*
X4902708Y1073022D01*
X4922011Y1066672D01*
X4934711Y1053972D01*
X4941061Y1041272D01*
X4947411Y1022222D01*
X4947411Y990219D01*
X4941061Y971169D01*
X4934711Y958469D01*
X4922011Y945769D01*
X4902708Y939419D01*
X4858258Y939419D01*
X5040375Y1073022D02*
G01*
X4989322Y939419D01*
X5040375Y1073022D02*
G01*
X5091175Y939419D01*
X5008372Y983869D02*
G01*
X5072125Y983869D01*
X4803647Y806322D02*
G01*
X4739893Y806322D01*
X4733543Y749172D01*
X4739893Y755522D01*
X4758943Y761872D01*
X4777993Y761872D01*
X4797297Y755522D01*
X4809997Y742822D01*
X4816347Y723519D01*
X4816347Y710819D01*
X4809997Y691769D01*
X4797297Y679069D01*
X4777993Y672719D01*
X4758943Y672719D01*
X4739893Y679069D01*
X4733543Y685419D01*
X4727193Y698119D01*
X4858258Y806322D02*
G01*
X4909311Y672719D01*
X4960111Y806322D02*
G01*
X4909311Y672719D01*
X4822697Y533272D02*
G01*
X4816347Y545972D01*
X4803647Y558672D01*
X4790947Y565022D01*
X4765293Y565022D01*
X4752593Y558672D01*
X4739893Y545972D01*
X4733543Y533272D01*
X4727193Y514222D01*
X4727193Y482219D01*
X4733543Y463169D01*
X4739893Y450469D01*
X4752593Y437769D01*
X4765293Y431419D01*
X4790947Y431419D01*
X4803647Y437769D01*
X4816347Y450469D01*
X4822697Y463169D01*
X4822697Y482219D01*
X4790947Y482219D02*
G01*
X4822697Y482219D01*
X4864608Y565022D02*
G01*
X4864608Y431419D01*
X4864608Y565022D02*
G01*
X4953761Y431419D01*
X4953761Y565022D02*
G01*
X4953761Y431419D01*
X4995672Y565022D02*
G01*
X4995672Y431419D01*
X4995672Y565022D02*
G01*
X5040375Y565022D01*
X5059425Y558672D01*
X5072125Y545972D01*
X5078475Y533272D01*
X5084825Y514222D01*
X5084825Y482219D01*
X5078475Y463169D01*
X5072125Y450469D01*
X5059425Y437769D01*
X5040375Y431419D01*
X4995672Y431419D01*
X3311397Y533272D02*
G01*
X3305047Y545972D01*
X3292347Y558672D01*
X3279647Y565022D01*
X3253993Y565022D01*
X3241293Y558672D01*
X3228593Y545972D01*
X3222243Y533272D01*
X3215893Y514222D01*
X3215893Y482219D01*
X3222243Y463169D01*
X3228593Y450469D01*
X3241293Y437769D01*
X3253993Y431419D01*
X3279647Y431419D01*
X3292347Y437769D01*
X3305047Y450469D01*
X3311397Y463169D01*
X3311397Y482219D01*
X3279647Y482219D02*
G01*
X3311397Y482219D01*
X3353308Y565022D02*
G01*
X3353308Y431419D01*
X3353308Y565022D02*
G01*
X3442461Y431419D01*
X3442461Y565022D02*
G01*
X3442461Y431419D01*
X3484372Y565022D02*
G01*
X3484372Y431419D01*
X3484372Y565022D02*
G01*
X3529075Y565022D01*
X3548125Y558672D01*
X3560825Y545972D01*
X3567175Y533272D01*
X3573525Y514222D01*
X3573525Y482219D01*
X3567175Y463169D01*
X3560825Y450469D01*
X3548125Y437769D01*
X3529075Y431419D01*
X3484372Y431419D01*
X3273043Y799972D02*
G01*
X3273043Y685419D01*
X3215893Y742822D02*
G01*
X3330447Y742822D01*
X3385058Y819022D02*
G01*
X3455161Y819022D01*
X3417061Y768222D01*
X3436111Y768222D01*
X3448811Y761872D01*
X3455161Y755522D01*
X3461511Y736219D01*
X3461511Y723519D01*
X3455161Y704469D01*
X3442461Y691769D01*
X3423411Y685419D01*
X3404361Y685419D01*
X3385058Y691769D01*
X3378708Y698119D01*
X3372358Y710819D01*
X3509772Y717169D02*
G01*
X3503422Y710819D01*
X3509772Y704469D01*
X3516375Y710819D01*
X3509772Y717169D01*
X3570986Y819022D02*
G01*
X3641090Y819022D01*
X3602736Y768222D01*
X3621786Y768222D01*
X3634740Y761872D01*
X3641090Y755522D01*
X3647440Y736219D01*
X3647440Y723519D01*
X3641090Y704469D01*
X3628136Y691769D01*
X3609086Y685419D01*
X3590036Y685419D01*
X3570986Y691769D01*
X3564636Y698119D01*
X3558286Y710819D01*
X3689350Y819022D02*
G01*
X3740150Y685419D01*
X3791204Y819022D02*
G01*
X3740150Y685419D01*
X3215893Y1073022D02*
G01*
X3215893Y939419D01*
X3215893Y1073022D02*
G01*
X3266693Y939419D01*
X3317747Y1073022D02*
G01*
X3266693Y939419D01*
X3317747Y1073022D02*
G01*
X3317747Y939419D01*
X3398011Y1073022D02*
G01*
X3385058Y1066672D01*
X3372358Y1053972D01*
X3366008Y1041272D01*
X3359658Y1022222D01*
X3359658Y990219D01*
X3366008Y971169D01*
X3372358Y958469D01*
X3385058Y945769D01*
X3398011Y939419D01*
X3423411Y939419D01*
X3436111Y945769D01*
X3448811Y958469D01*
X3455161Y971169D01*
X3461511Y990219D01*
X3461511Y1022222D01*
X3455161Y1041272D01*
X3448811Y1053972D01*
X3436111Y1066672D01*
X3423411Y1073022D01*
X3398011Y1073022D01*
X3592575Y1053972D02*
G01*
X3579875Y1066672D01*
X3560825Y1073022D01*
X3535425Y1073022D01*
X3516375Y1066672D01*
X3503422Y1053972D01*
X3503422Y1041272D01*
X3509772Y1028572D01*
X3516375Y1022222D01*
X3529075Y1015872D01*
X3567175Y1003172D01*
X3579875Y996822D01*
X3586225Y990219D01*
X3592575Y977519D01*
X3592575Y958469D01*
X3579875Y945769D01*
X3560825Y939419D01*
X3535425Y939419D01*
X3516375Y945769D01*
X3503422Y958469D01*
X3634740Y1073022D02*
G01*
X3634740Y939419D01*
X3305047Y1561972D02*
G01*
X3292347Y1574672D01*
X3273043Y1581022D01*
X3247643Y1581022D01*
X3228593Y1574672D01*
X3215893Y1561972D01*
X3215893Y1549272D01*
X3222243Y1536572D01*
X3228593Y1530222D01*
X3241293Y1523872D01*
X3279647Y1511172D01*
X3292347Y1504822D01*
X3298697Y1498219D01*
X3305047Y1485519D01*
X3305047Y1466469D01*
X3292347Y1453769D01*
X3273043Y1447419D01*
X3247643Y1447419D01*
X3228593Y1453769D01*
X3215893Y1466469D01*
X3442461Y1549272D02*
G01*
X3436111Y1561972D01*
X3423411Y1574672D01*
X3410711Y1581022D01*
X3385058Y1581022D01*
X3372358Y1574672D01*
X3359658Y1561972D01*
X3353308Y1549272D01*
X3346958Y1530222D01*
X3346958Y1498219D01*
X3353308Y1479169D01*
X3359658Y1466469D01*
X3372358Y1453769D01*
X3385058Y1447419D01*
X3410711Y1447419D01*
X3423411Y1453769D01*
X3436111Y1466469D01*
X3442461Y1479169D01*
X3484372Y1581022D02*
G01*
X3484372Y1447419D01*
X3573525Y1581022D02*
G01*
X3484372Y1491869D01*
X3516375Y1523872D02*
G01*
X3573525Y1447419D01*
X3311397Y1803272D02*
G01*
X3305047Y1815972D01*
X3292347Y1828672D01*
X3279647Y1835022D01*
X3253993Y1835022D01*
X3241293Y1828672D01*
X3228593Y1815972D01*
X3222243Y1803272D01*
X3215893Y1784222D01*
X3215893Y1752219D01*
X3222243Y1733169D01*
X3228593Y1720469D01*
X3241293Y1707769D01*
X3253993Y1701419D01*
X3279647Y1701419D01*
X3292347Y1707769D01*
X3305047Y1720469D01*
X3311397Y1733169D01*
X3442461Y1815972D02*
G01*
X3429761Y1828672D01*
X3410711Y1835022D01*
X3385058Y1835022D01*
X3366008Y1828672D01*
X3353308Y1815972D01*
X3353308Y1803272D01*
X3359658Y1790572D01*
X3366008Y1784222D01*
X3378708Y1777872D01*
X3417061Y1765172D01*
X3429761Y1758822D01*
X3436111Y1752219D01*
X3442461Y1739519D01*
X3442461Y1720469D01*
X3429761Y1707769D01*
X3410711Y1701419D01*
X3385058Y1701419D01*
X3366008Y1707769D01*
X3353308Y1720469D01*
D11*
X999997Y3918712D02*
G01*
X999997Y3840734D01*
X1005078Y3825239D01*
X1015492Y3814826D01*
X1031239Y3809745D01*
X1041654Y3809745D01*
X1057147Y3814826D01*
X1067562Y3825239D01*
X1072642Y3840734D01*
X1072642Y3918712D01*
X1106931Y3897884D02*
G01*
X1117345Y3903218D01*
X1133094Y3918712D01*
X1133094Y3809745D01*
D10*
X911100Y1258572D02*
G01*
X1080772Y1258572D01*
X911100Y1201930D02*
G01*
X911100Y1314960D01*
X1016256Y1368300D02*
G01*
X1016256Y1465328D01*
X1000000Y1465328D01*
X983998Y1457200D01*
X975870Y1449326D01*
X967742Y1433070D01*
X967742Y1408940D01*
X975870Y1392684D01*
X991872Y1376428D01*
X1016256Y1368300D01*
X1032258Y1368300D01*
X1056642Y1376428D01*
X1072898Y1392684D01*
X1080772Y1408940D01*
X1080772Y1433070D01*
X1072898Y1449326D01*
X1056642Y1465328D01*
X1016256Y1518668D02*
G01*
X1016256Y1615696D01*
X1000000Y1615696D01*
X983998Y1607568D01*
X975870Y1599440D01*
X967742Y1583438D01*
X967742Y1559054D01*
X975870Y1543052D01*
X991872Y1526796D01*
X1016256Y1518668D01*
X1032258Y1518668D01*
X1056642Y1526796D01*
X1072898Y1543052D01*
X1080772Y1559054D01*
X1080772Y1583438D01*
X1072898Y1599440D01*
X1056642Y1615696D01*
X967742Y1669036D02*
G01*
X1080772Y1669036D01*
X1000000Y1669036D02*
G01*
X975870Y1693420D01*
X967742Y1709422D01*
X967742Y1733806D01*
X975870Y1749808D01*
X1000000Y1757936D01*
X1080772Y1757936D01*
X991872Y1900176D02*
G01*
X975870Y1892048D01*
X967742Y1867918D01*
X967742Y1843534D01*
X975870Y1819404D01*
X991872Y1811276D01*
X1008128Y1819404D01*
X1016256Y1835660D01*
X1024384Y1876046D01*
X1032258Y1892048D01*
X1048514Y1900176D01*
X1056642Y1900176D01*
X1072898Y1892048D01*
X1080772Y1867918D01*
X1080772Y1843534D01*
X1072898Y1819404D01*
X1056642Y1811276D01*
X967742Y1961644D02*
G01*
X1080772Y2010158D01*
X967742Y2058672D02*
G01*
X1080772Y2010158D01*
X1113284Y1993902D01*
X1129286Y1977900D01*
X1137414Y1961644D01*
X1137414Y1953516D01*
X911100Y2236472D02*
G01*
X1080772Y2236472D01*
X1080772Y2236472D02*
G01*
X1080772Y2333500D01*
X951486Y2507998D02*
G01*
X935484Y2499870D01*
X919228Y2483614D01*
X911100Y2467612D01*
X911100Y2435100D01*
X919228Y2419098D01*
X935484Y2402842D01*
X951486Y2394714D01*
X975870Y2386840D01*
X1016256Y2386840D01*
X1040386Y2394714D01*
X1056642Y2402842D01*
X1072898Y2419098D01*
X1080772Y2435100D01*
X1080772Y2467612D01*
X1072898Y2483614D01*
X1056642Y2499870D01*
X1040386Y2507998D01*
D12*
X2872993Y2989198D02*
G01*
X5412993Y2989198D01*
X5412993Y334898D01*
X5197093Y118998D01*
X2872993Y118998D01*
X2872993Y2989198D01*
X618997Y3777995D02*
G01*
X1380997Y3777995D01*
X1380997Y3142995D01*
X618997Y3142995D01*
X618997Y3777995D01*
X1126997Y653795D02*
G01*
X872997Y653795D01*
X872997Y399795D02*
G01*
X1126997Y399795D01*
X618997Y3650995D02*
G01*
X110997Y3650995D01*
X110997Y94995D01*
X1888997Y94995D01*
X1888997Y3650995D01*
X1380997Y3650995D01*
G75*
G01*
X872998Y399796D02*
G02*
X872998Y653796I2540J127000D01*
G75*
G01*
X1126998Y399796D02*
G03*
X1126998Y653796I-2565J127000D01*
M02*
