G04 Layer: BottomLayer*
G04 EasyEDA v6.5.9, 2022-09-16 14:53:16*
G04 a67cddfb3fce44daa9051d46cbbcc19f,10*
G04 Gerber Generator version 0.2*
G04 Scale: 100 percent, Rotated: No, Reflected: No *
G04 Dimensions in millimeters *
G04 leading zeros omitted , absolute positions ,4 integer and 5 decimal *
%FSLAX45Y45*%
%MOMM*%

%ADD10C,1.0000*%
%ADD11C,0.2500*%
%ADD12C,2.0000*%
%ADD13C,1.5240*%
%ADD14C,0.6096*%
%ADD15C,0.0157*%

%LPD*%
G36*
X200863Y25908D02*
G01*
X182422Y26873D01*
X165557Y29413D01*
X148996Y33578D01*
X132943Y39420D01*
X117500Y46736D01*
X102870Y55575D01*
X89204Y65786D01*
X76606Y77266D01*
X65125Y89966D01*
X55016Y103733D01*
X46278Y118414D01*
X39014Y133858D01*
X33324Y149961D01*
X29209Y166522D01*
X26771Y183438D01*
X25908Y200863D01*
X25908Y4299153D01*
X26873Y4317542D01*
X29413Y4334408D01*
X33578Y4350969D01*
X39420Y4367072D01*
X46736Y4382465D01*
X55575Y4397095D01*
X65786Y4410760D01*
X77266Y4423410D01*
X89966Y4434840D01*
X103733Y4445000D01*
X118414Y4453737D01*
X133858Y4460951D01*
X149961Y4466691D01*
X166522Y4470806D01*
X183438Y4473244D01*
X200863Y4474057D01*
X5299151Y4474057D01*
X5317540Y4473143D01*
X5334406Y4470603D01*
X5350967Y4466386D01*
X5367070Y4460595D01*
X5382463Y4453229D01*
X5397093Y4444441D01*
X5410758Y4434230D01*
X5423408Y4422698D01*
X5434838Y4409998D01*
X5444998Y4396282D01*
X5453735Y4381601D01*
X5460949Y4366107D01*
X5466689Y4350054D01*
X5470804Y4333443D01*
X5473242Y4316577D01*
X5474106Y4299153D01*
X5474106Y200863D01*
X5473141Y182422D01*
X5470601Y165557D01*
X5466384Y148996D01*
X5460593Y132943D01*
X5453227Y117500D01*
X5444439Y102870D01*
X5434228Y89204D01*
X5422696Y76606D01*
X5409996Y65125D01*
X5396280Y55016D01*
X5381599Y46278D01*
X5366105Y39014D01*
X5350052Y33324D01*
X5333441Y29209D01*
X5316575Y26771D01*
X5299151Y25908D01*
X4217517Y25908D01*
X4213453Y26771D01*
X4210100Y29159D01*
X4207967Y32715D01*
X4207408Y36830D01*
X4208576Y40792D01*
X4211218Y43992D01*
X4214926Y45872D01*
X4219244Y47040D01*
X4228185Y51206D01*
X4236212Y56845D01*
X4243171Y63754D01*
X4248810Y71831D01*
X4252925Y80721D01*
X4255465Y90220D01*
X4256328Y99974D01*
X4255465Y109778D01*
X4252925Y119278D01*
X4248810Y128168D01*
X4243171Y136245D01*
X4241393Y138023D01*
X4239158Y141274D01*
X4238396Y145186D01*
X4238396Y1216812D01*
X4239158Y1220724D01*
X4241393Y1223975D01*
X4243171Y1225753D01*
X4248810Y1233830D01*
X4252925Y1242720D01*
X4255465Y1252220D01*
X4256328Y1261973D01*
X4255465Y1271778D01*
X4252925Y1281277D01*
X4248810Y1290167D01*
X4243171Y1298244D01*
X4236212Y1305153D01*
X4228185Y1310792D01*
X4219244Y1314958D01*
X4209796Y1317498D01*
X4199991Y1318361D01*
X4190187Y1317498D01*
X4180738Y1314958D01*
X4171797Y1310792D01*
X4163771Y1305153D01*
X4156811Y1298244D01*
X4151172Y1290167D01*
X4147058Y1281277D01*
X4144518Y1271778D01*
X4143654Y1261973D01*
X4144518Y1252220D01*
X4147058Y1242720D01*
X4151172Y1233830D01*
X4156811Y1225753D01*
X4158589Y1223975D01*
X4160824Y1220724D01*
X4161586Y1216812D01*
X4161586Y145186D01*
X4160824Y141274D01*
X4158589Y138023D01*
X4156811Y136245D01*
X4151172Y128168D01*
X4147058Y119278D01*
X4144518Y109778D01*
X4143654Y99974D01*
X4144518Y90220D01*
X4147058Y80721D01*
X4151172Y71831D01*
X4156811Y63754D01*
X4163771Y56845D01*
X4171797Y51206D01*
X4180738Y47040D01*
X4185056Y45872D01*
X4188764Y43992D01*
X4191406Y40792D01*
X4192574Y36830D01*
X4192015Y32715D01*
X4189882Y29159D01*
X4186529Y26771D01*
X4182465Y25908D01*
X2246274Y25908D01*
X2242566Y26619D01*
X2239365Y28600D01*
X2237130Y31648D01*
X2236165Y35255D01*
X2236571Y39014D01*
X2237638Y42519D01*
X2238400Y50495D01*
X2238400Y54813D01*
X2239162Y58724D01*
X2241397Y62026D01*
X2243175Y63754D01*
X2248814Y71831D01*
X2252929Y80721D01*
X2255469Y90220D01*
X2256332Y99974D01*
X2255469Y109778D01*
X2252929Y119278D01*
X2248814Y128168D01*
X2243175Y136245D01*
X2241397Y137972D01*
X2239162Y141274D01*
X2238400Y145186D01*
X2238400Y1053846D01*
X2237638Y1061821D01*
X2235454Y1069035D01*
X2231898Y1075690D01*
X2226818Y1081887D01*
X2043887Y1264818D01*
X2037689Y1269898D01*
X2031034Y1273454D01*
X2023821Y1275638D01*
X2015845Y1276400D01*
X1862937Y1276400D01*
X1859330Y1277061D01*
X1856130Y1279042D01*
X1853895Y1281988D01*
X1849831Y1290015D01*
X1842109Y1301242D01*
X1832965Y1311402D01*
X1822551Y1320190D01*
X1811070Y1327505D01*
X1798675Y1333246D01*
X1785670Y1337310D01*
X1772208Y1339545D01*
X1758594Y1340002D01*
X1745030Y1338681D01*
X1731772Y1335481D01*
X1719021Y1330604D01*
X1707083Y1324051D01*
X1696110Y1315974D01*
X1686306Y1306474D01*
X1677822Y1295755D01*
X1670862Y1284020D01*
X1665579Y1271473D01*
X1661972Y1258316D01*
X1660143Y1244803D01*
X1660143Y1231188D01*
X1661972Y1217676D01*
X1665579Y1204518D01*
X1670862Y1191971D01*
X1677822Y1180236D01*
X1686306Y1169517D01*
X1696110Y1160018D01*
X1707083Y1151940D01*
X1719021Y1145387D01*
X1731772Y1140510D01*
X1745030Y1137310D01*
X1758594Y1135989D01*
X1772208Y1136446D01*
X1785670Y1138682D01*
X1798675Y1142746D01*
X1811070Y1148486D01*
X1822551Y1155801D01*
X1832965Y1164590D01*
X1842109Y1174750D01*
X1849831Y1185976D01*
X1853895Y1194003D01*
X1856130Y1196949D01*
X1859330Y1198930D01*
X1862937Y1199591D01*
X1996236Y1199591D01*
X2000148Y1198829D01*
X2003399Y1196594D01*
X2158593Y1041400D01*
X2160828Y1038098D01*
X2161590Y1034237D01*
X2161590Y145186D01*
X2160828Y141325D01*
X2158593Y138023D01*
X2156815Y136245D01*
X2151176Y128168D01*
X2147062Y119278D01*
X2144522Y109778D01*
X2143658Y99974D01*
X2144522Y90220D01*
X2147062Y80721D01*
X2151176Y71831D01*
X2156815Y63754D01*
X2158593Y61976D01*
X2160828Y58674D01*
X2161590Y54813D01*
X2161590Y50495D01*
X2162403Y42519D01*
X2163419Y39014D01*
X2163826Y35255D01*
X2162860Y31648D01*
X2160625Y28600D01*
X2157425Y26619D01*
X2153716Y25908D01*
G37*

%LPC*%
G36*
X146202Y3568446D02*
G01*
X193548Y3568446D01*
X193548Y3615791D01*
X183083Y3610051D01*
X172110Y3601974D01*
X162306Y3592474D01*
X153822Y3581755D01*
X146862Y3570020D01*
G37*
G36*
X282448Y3568446D02*
G01*
X329641Y3568446D01*
X325831Y3576015D01*
X318109Y3587242D01*
X308965Y3597401D01*
X298551Y3606190D01*
X287070Y3613505D01*
X282448Y3615639D01*
G37*
G36*
X742594Y119989D02*
G01*
X756208Y120446D01*
X769670Y122682D01*
X782675Y126746D01*
X795070Y132486D01*
X806551Y139801D01*
X816965Y148590D01*
X826109Y158750D01*
X833831Y169976D01*
X839978Y182118D01*
X844448Y195021D01*
X847191Y208381D01*
X848106Y221996D01*
X847191Y235610D01*
X844448Y248970D01*
X839978Y261874D01*
X833831Y274015D01*
X826109Y285242D01*
X816965Y295402D01*
X806551Y304190D01*
X795070Y311505D01*
X782675Y317246D01*
X769670Y321310D01*
X756208Y323545D01*
X742594Y324002D01*
X729030Y322681D01*
X715772Y319481D01*
X703021Y314604D01*
X691083Y308051D01*
X680110Y299974D01*
X670306Y290474D01*
X661822Y279755D01*
X654862Y268020D01*
X649579Y255473D01*
X645972Y242316D01*
X644144Y228803D01*
X644144Y215188D01*
X645972Y201676D01*
X649579Y188518D01*
X654862Y175971D01*
X661822Y164236D01*
X670306Y153517D01*
X680110Y144018D01*
X691083Y135940D01*
X703021Y129387D01*
X715772Y124510D01*
X729030Y121310D01*
G37*
G36*
X1250594Y119989D02*
G01*
X1264208Y120446D01*
X1277670Y122682D01*
X1290675Y126746D01*
X1303070Y132486D01*
X1314551Y139801D01*
X1324965Y148590D01*
X1334109Y158750D01*
X1341831Y169976D01*
X1347978Y182118D01*
X1352448Y195021D01*
X1355191Y208381D01*
X1356106Y221996D01*
X1355191Y235610D01*
X1352448Y248970D01*
X1347978Y261874D01*
X1341831Y274015D01*
X1334109Y285242D01*
X1324965Y295402D01*
X1314551Y304190D01*
X1303070Y311505D01*
X1290675Y317246D01*
X1277670Y321310D01*
X1264208Y323545D01*
X1250594Y324002D01*
X1237030Y322681D01*
X1223772Y319481D01*
X1211021Y314604D01*
X1199083Y308051D01*
X1188110Y299974D01*
X1178306Y290474D01*
X1169822Y279755D01*
X1162862Y268020D01*
X1157579Y255473D01*
X1153972Y242316D01*
X1152144Y228803D01*
X1152144Y215188D01*
X1153972Y201676D01*
X1157579Y188518D01*
X1162862Y175971D01*
X1169822Y164236D01*
X1178306Y153517D01*
X1188110Y144018D01*
X1199083Y135940D01*
X1211021Y129387D01*
X1223772Y124510D01*
X1237030Y121310D01*
G37*
G36*
X1504594Y119989D02*
G01*
X1518208Y120446D01*
X1531670Y122682D01*
X1544675Y126746D01*
X1557070Y132486D01*
X1568551Y139801D01*
X1578965Y148590D01*
X1588109Y158750D01*
X1595831Y169976D01*
X1601978Y182118D01*
X1606448Y195021D01*
X1609191Y208381D01*
X1610106Y221996D01*
X1609191Y235610D01*
X1606448Y248970D01*
X1601978Y261874D01*
X1595831Y274015D01*
X1588109Y285242D01*
X1578965Y295402D01*
X1568551Y304190D01*
X1557070Y311505D01*
X1544675Y317246D01*
X1531670Y321310D01*
X1518208Y323545D01*
X1504594Y324002D01*
X1491030Y322681D01*
X1477772Y319481D01*
X1465021Y314604D01*
X1453083Y308051D01*
X1442110Y299974D01*
X1432306Y290474D01*
X1423822Y279755D01*
X1416862Y268020D01*
X1411579Y255473D01*
X1407972Y242316D01*
X1406144Y228803D01*
X1406144Y215188D01*
X1407972Y201676D01*
X1411579Y188518D01*
X1416862Y175971D01*
X1423822Y164236D01*
X1432306Y153517D01*
X1442110Y144018D01*
X1453083Y135940D01*
X1465021Y129387D01*
X1477772Y124510D01*
X1491030Y121310D01*
G37*
G36*
X234594Y119989D02*
G01*
X248208Y120446D01*
X261670Y122682D01*
X274675Y126746D01*
X287070Y132486D01*
X298551Y139801D01*
X308965Y148590D01*
X318109Y158750D01*
X325831Y169976D01*
X331978Y182118D01*
X336448Y195021D01*
X339191Y208381D01*
X340106Y221996D01*
X339191Y235610D01*
X336448Y248970D01*
X331978Y261874D01*
X325831Y274015D01*
X318109Y285242D01*
X308965Y295402D01*
X298551Y304190D01*
X287070Y311505D01*
X274675Y317246D01*
X261670Y321310D01*
X248208Y323545D01*
X234594Y324002D01*
X221030Y322681D01*
X207771Y319481D01*
X195021Y314604D01*
X183083Y308051D01*
X172110Y299974D01*
X162306Y290474D01*
X153822Y279755D01*
X146862Y268020D01*
X141579Y255473D01*
X137972Y242316D01*
X136144Y228803D01*
X136144Y215188D01*
X137972Y201676D01*
X141579Y188518D01*
X146862Y175971D01*
X153822Y164236D01*
X162306Y153517D01*
X172110Y144018D01*
X183083Y135940D01*
X195021Y129387D01*
X207771Y124510D01*
X221030Y121310D01*
G37*
G36*
X488594Y119989D02*
G01*
X502208Y120446D01*
X515670Y122682D01*
X528675Y126746D01*
X541070Y132486D01*
X552551Y139801D01*
X562965Y148590D01*
X572109Y158750D01*
X579831Y169976D01*
X585978Y182118D01*
X590448Y195021D01*
X593191Y208381D01*
X594106Y221996D01*
X593191Y235610D01*
X590448Y248970D01*
X585978Y261874D01*
X579831Y274015D01*
X572109Y285242D01*
X562965Y295402D01*
X552551Y304190D01*
X541070Y311505D01*
X528675Y317246D01*
X515670Y321310D01*
X502208Y323545D01*
X488594Y324002D01*
X475030Y322681D01*
X461772Y319481D01*
X449021Y314604D01*
X437083Y308051D01*
X426110Y299974D01*
X416306Y290474D01*
X407822Y279755D01*
X400862Y268020D01*
X395579Y255473D01*
X391972Y242316D01*
X390144Y228803D01*
X390144Y215188D01*
X391972Y201676D01*
X395579Y188518D01*
X400862Y175971D01*
X407822Y164236D01*
X416306Y153517D01*
X426110Y144018D01*
X437083Y135940D01*
X449021Y129387D01*
X461772Y124510D01*
X475030Y121310D01*
G37*
G36*
X1758594Y119989D02*
G01*
X1772208Y120446D01*
X1785670Y122682D01*
X1798675Y126746D01*
X1811070Y132486D01*
X1822551Y139801D01*
X1832965Y148590D01*
X1842109Y158750D01*
X1849831Y169976D01*
X1855978Y182118D01*
X1860448Y195021D01*
X1863191Y208381D01*
X1864106Y221996D01*
X1863191Y235610D01*
X1860448Y248970D01*
X1855978Y261874D01*
X1849831Y274015D01*
X1842109Y285242D01*
X1832965Y295402D01*
X1822551Y304190D01*
X1811070Y311505D01*
X1798675Y317246D01*
X1785670Y321310D01*
X1772208Y323545D01*
X1758594Y324002D01*
X1745030Y322681D01*
X1731772Y319481D01*
X1719021Y314604D01*
X1707083Y308051D01*
X1696110Y299974D01*
X1686306Y290474D01*
X1677822Y279755D01*
X1670862Y268020D01*
X1665579Y255473D01*
X1661972Y242316D01*
X1660143Y228803D01*
X1660143Y215188D01*
X1661972Y201676D01*
X1665579Y188518D01*
X1670862Y175971D01*
X1677822Y164236D01*
X1686306Y153517D01*
X1696110Y144018D01*
X1707083Y135940D01*
X1719021Y129387D01*
X1731772Y124510D01*
X1745030Y121310D01*
G37*
G36*
X996594Y119989D02*
G01*
X1010208Y120446D01*
X1023670Y122682D01*
X1036675Y126746D01*
X1049070Y132486D01*
X1060551Y139801D01*
X1070965Y148590D01*
X1080109Y158750D01*
X1087831Y169976D01*
X1093978Y182118D01*
X1098448Y195021D01*
X1101191Y208381D01*
X1102106Y221996D01*
X1101191Y235610D01*
X1098448Y248970D01*
X1093978Y261874D01*
X1087831Y274015D01*
X1080109Y285242D01*
X1070965Y295402D01*
X1060551Y304190D01*
X1049070Y311505D01*
X1036675Y317246D01*
X1023670Y321310D01*
X1010208Y323545D01*
X996594Y324002D01*
X983030Y322681D01*
X969771Y319481D01*
X957021Y314604D01*
X945083Y308051D01*
X934110Y299974D01*
X924306Y290474D01*
X915822Y279755D01*
X908862Y268020D01*
X903579Y255473D01*
X899972Y242316D01*
X898144Y228803D01*
X898144Y215188D01*
X899972Y201676D01*
X903579Y188518D01*
X908862Y175971D01*
X915822Y164236D01*
X924306Y153517D01*
X934110Y144018D01*
X945083Y135940D01*
X957021Y129387D01*
X969771Y124510D01*
X983030Y121310D01*
G37*
G36*
X2799994Y143662D02*
G01*
X2809798Y144526D01*
X2819247Y147066D01*
X2828188Y151180D01*
X2836214Y156819D01*
X2843174Y163779D01*
X2848813Y171805D01*
X2852928Y180746D01*
X2855468Y190195D01*
X2856331Y199999D01*
X2855468Y209804D01*
X2852928Y219252D01*
X2848813Y228193D01*
X2843174Y236220D01*
X2841498Y237896D01*
X2839262Y241198D01*
X2838500Y245059D01*
X2838500Y1470914D01*
X2839262Y1474825D01*
X2841498Y1478076D01*
X2843174Y1479753D01*
X2848813Y1487830D01*
X2852928Y1496720D01*
X2854960Y1504289D01*
X2856788Y1507947D01*
X2859887Y1510588D01*
X2863748Y1511808D01*
X2867812Y1511401D01*
X2871368Y1509420D01*
X2873857Y1506220D01*
X2875026Y1500835D01*
X2877769Y1485849D01*
X2882290Y1471371D01*
X2888538Y1457502D01*
X2896412Y1444498D01*
X2905760Y1432509D01*
X2916529Y1421790D01*
X2928467Y1412392D01*
X2941472Y1404518D01*
X2955391Y1398270D01*
X2958592Y1396034D01*
X2960674Y1392783D01*
X2961386Y1388973D01*
X2960674Y1385214D01*
X2958592Y1381963D01*
X2955391Y1379728D01*
X2941472Y1373479D01*
X2928467Y1365605D01*
X2916529Y1356207D01*
X2905760Y1345488D01*
X2896412Y1333500D01*
X2888538Y1320495D01*
X2882290Y1306626D01*
X2877769Y1292148D01*
X2875026Y1277162D01*
X2874111Y1261973D01*
X2875026Y1246835D01*
X2877769Y1231849D01*
X2882290Y1217371D01*
X2888538Y1203502D01*
X2896412Y1190498D01*
X2905760Y1178509D01*
X2916529Y1167790D01*
X2928467Y1158392D01*
X2941472Y1150518D01*
X2955391Y1144270D01*
X2958592Y1142034D01*
X2960674Y1138783D01*
X2961386Y1134973D01*
X2960674Y1131214D01*
X2958592Y1127963D01*
X2955391Y1125728D01*
X2941472Y1119479D01*
X2928467Y1111605D01*
X2916529Y1102207D01*
X2905760Y1091488D01*
X2896412Y1079500D01*
X2888538Y1066495D01*
X2882290Y1052626D01*
X2877769Y1038148D01*
X2875026Y1023162D01*
X2874111Y1007973D01*
X2875026Y992835D01*
X2877769Y977849D01*
X2882290Y963371D01*
X2888538Y949502D01*
X2896412Y936498D01*
X2905760Y924509D01*
X2916529Y913790D01*
X2928467Y904392D01*
X2941472Y896518D01*
X2955391Y890269D01*
X2958592Y888034D01*
X2960674Y884783D01*
X2961386Y880973D01*
X2960674Y877214D01*
X2958592Y873963D01*
X2955391Y871728D01*
X2941472Y865479D01*
X2928467Y857605D01*
X2916529Y848207D01*
X2905760Y837488D01*
X2896412Y825500D01*
X2888538Y812495D01*
X2882290Y798626D01*
X2877769Y784148D01*
X2875026Y769162D01*
X2874111Y753973D01*
X2875026Y738835D01*
X2877769Y723849D01*
X2882290Y709371D01*
X2888538Y695502D01*
X2896412Y682498D01*
X2905760Y670509D01*
X2916529Y659790D01*
X2928467Y650392D01*
X2941472Y642518D01*
X2955391Y636270D01*
X2969869Y631748D01*
X2984804Y629005D01*
X2999994Y628091D01*
X3015183Y629005D01*
X3030118Y631748D01*
X3044596Y636270D01*
X3058515Y642518D01*
X3071520Y650392D01*
X3083458Y659790D01*
X3094228Y670509D01*
X3103575Y682498D01*
X3111449Y695502D01*
X3117697Y709371D01*
X3122218Y723849D01*
X3124962Y738835D01*
X3125876Y753973D01*
X3124962Y769162D01*
X3122218Y784148D01*
X3117697Y798626D01*
X3111449Y812495D01*
X3103575Y825500D01*
X3094228Y837488D01*
X3083458Y848207D01*
X3071520Y857605D01*
X3058515Y865479D01*
X3044596Y871728D01*
X3041396Y873963D01*
X3039313Y877214D01*
X3038602Y880973D01*
X3039313Y884783D01*
X3041396Y888034D01*
X3044596Y890269D01*
X3058515Y896518D01*
X3071520Y904392D01*
X3083458Y913790D01*
X3094228Y924509D01*
X3103575Y936498D01*
X3111449Y949502D01*
X3117697Y963371D01*
X3122218Y977849D01*
X3124962Y992835D01*
X3125876Y1007973D01*
X3124962Y1023162D01*
X3122218Y1038148D01*
X3117697Y1052626D01*
X3111449Y1066495D01*
X3103575Y1079500D01*
X3094228Y1091488D01*
X3083458Y1102207D01*
X3071520Y1111605D01*
X3058515Y1119479D01*
X3044596Y1125728D01*
X3041396Y1127963D01*
X3039313Y1131214D01*
X3038602Y1134973D01*
X3039313Y1138783D01*
X3041396Y1142034D01*
X3044596Y1144270D01*
X3058515Y1150518D01*
X3071520Y1158392D01*
X3083458Y1167790D01*
X3094228Y1178509D01*
X3103575Y1190498D01*
X3111449Y1203502D01*
X3117697Y1217371D01*
X3122218Y1231849D01*
X3124962Y1246835D01*
X3125876Y1261973D01*
X3124962Y1277162D01*
X3122218Y1292148D01*
X3117697Y1306626D01*
X3111449Y1320495D01*
X3103575Y1333500D01*
X3094228Y1345488D01*
X3083458Y1356207D01*
X3071520Y1365605D01*
X3058515Y1373479D01*
X3044596Y1379728D01*
X3041396Y1381963D01*
X3039313Y1385214D01*
X3038602Y1388973D01*
X3039313Y1392783D01*
X3041396Y1396034D01*
X3044596Y1398270D01*
X3058515Y1404518D01*
X3071520Y1412392D01*
X3083458Y1421790D01*
X3094228Y1432509D01*
X3103575Y1444498D01*
X3111449Y1457502D01*
X3117697Y1471371D01*
X3122218Y1485849D01*
X3124962Y1500835D01*
X3125876Y1515973D01*
X3124962Y1531162D01*
X3122218Y1546148D01*
X3117697Y1560626D01*
X3111449Y1574495D01*
X3103575Y1587500D01*
X3094228Y1599488D01*
X3083458Y1610207D01*
X3071520Y1619605D01*
X3058515Y1627479D01*
X3044596Y1633728D01*
X3041396Y1635963D01*
X3039313Y1639214D01*
X3038602Y1642973D01*
X3039313Y1646783D01*
X3041396Y1650034D01*
X3044596Y1652270D01*
X3058515Y1658518D01*
X3071520Y1666392D01*
X3083458Y1675790D01*
X3094228Y1686509D01*
X3103575Y1698498D01*
X3111449Y1711502D01*
X3117697Y1725371D01*
X3122218Y1739849D01*
X3124962Y1754835D01*
X3125876Y1769973D01*
X3124962Y1785162D01*
X3122218Y1800148D01*
X3117697Y1814626D01*
X3111449Y1828495D01*
X3103575Y1841500D01*
X3094228Y1853488D01*
X3083458Y1864207D01*
X3071520Y1873605D01*
X3058515Y1881479D01*
X3044596Y1887728D01*
X3041396Y1889963D01*
X3039313Y1893214D01*
X3038602Y1896973D01*
X3039313Y1900783D01*
X3041396Y1904034D01*
X3044596Y1906270D01*
X3058515Y1912518D01*
X3071520Y1920392D01*
X3083458Y1929790D01*
X3094228Y1940509D01*
X3103575Y1952498D01*
X3111449Y1965502D01*
X3117697Y1979371D01*
X3122218Y1993849D01*
X3124962Y2008835D01*
X3125876Y2023973D01*
X3124962Y2039162D01*
X3122218Y2054148D01*
X3117697Y2068626D01*
X3111449Y2082495D01*
X3103575Y2095500D01*
X3094228Y2107488D01*
X3083458Y2118207D01*
X3071520Y2127605D01*
X3062173Y2133244D01*
X3059023Y2136241D01*
X3057398Y2140305D01*
X3057652Y2144674D01*
X3059684Y2148535D01*
X3063189Y2151176D01*
X3067456Y2152091D01*
X3099409Y2152091D01*
X3105759Y2152802D01*
X3111195Y2154732D01*
X3116122Y2157780D01*
X3120186Y2161895D01*
X3123285Y2166772D01*
X3125165Y2172258D01*
X3125927Y2178558D01*
X3125927Y2377440D01*
X3125165Y2383739D01*
X3123285Y2389225D01*
X3120186Y2394102D01*
X3116122Y2398217D01*
X3111195Y2401265D01*
X3105759Y2403195D01*
X3099409Y2403906D01*
X2900578Y2403906D01*
X2894228Y2403195D01*
X2888792Y2401265D01*
X2883865Y2398217D01*
X2879801Y2394102D01*
X2876702Y2389225D01*
X2874822Y2383739D01*
X2874111Y2377440D01*
X2874111Y2178558D01*
X2874822Y2172258D01*
X2876702Y2166772D01*
X2879801Y2161895D01*
X2883865Y2157780D01*
X2888792Y2154732D01*
X2894228Y2152802D01*
X2900578Y2152091D01*
X2932531Y2152091D01*
X2936798Y2151176D01*
X2940304Y2148535D01*
X2942336Y2144674D01*
X2942590Y2140305D01*
X2940964Y2136241D01*
X2937814Y2133244D01*
X2928467Y2127605D01*
X2916529Y2118207D01*
X2905760Y2107488D01*
X2896412Y2095500D01*
X2888538Y2082495D01*
X2882290Y2068626D01*
X2877769Y2054148D01*
X2875026Y2039162D01*
X2874111Y2023973D01*
X2875026Y2008835D01*
X2877769Y1993849D01*
X2882290Y1979371D01*
X2888538Y1965502D01*
X2896412Y1952498D01*
X2905760Y1940509D01*
X2916529Y1929790D01*
X2928467Y1920392D01*
X2941472Y1912518D01*
X2955391Y1906270D01*
X2958592Y1904034D01*
X2960674Y1900783D01*
X2961386Y1896973D01*
X2960674Y1893214D01*
X2958592Y1889963D01*
X2955391Y1887728D01*
X2941472Y1881479D01*
X2928467Y1873605D01*
X2916529Y1864207D01*
X2905760Y1853488D01*
X2896412Y1841500D01*
X2888538Y1828495D01*
X2882290Y1814626D01*
X2877769Y1800148D01*
X2875026Y1785162D01*
X2874111Y1769973D01*
X2875026Y1754835D01*
X2877769Y1739849D01*
X2882290Y1725371D01*
X2888538Y1711502D01*
X2896412Y1698498D01*
X2905760Y1686509D01*
X2916529Y1675790D01*
X2928467Y1666392D01*
X2941472Y1658518D01*
X2955391Y1652270D01*
X2958592Y1650034D01*
X2960674Y1646783D01*
X2961386Y1642973D01*
X2960674Y1639214D01*
X2958592Y1635963D01*
X2955391Y1633728D01*
X2941472Y1627479D01*
X2928467Y1619605D01*
X2916529Y1610207D01*
X2905760Y1599488D01*
X2896412Y1587500D01*
X2888538Y1574495D01*
X2882290Y1560626D01*
X2877769Y1546148D01*
X2875026Y1531162D01*
X2873857Y1525778D01*
X2871368Y1522577D01*
X2867812Y1520596D01*
X2863748Y1520190D01*
X2859887Y1521409D01*
X2856788Y1524050D01*
X2854960Y1527708D01*
X2852928Y1535277D01*
X2848813Y1544167D01*
X2843174Y1552244D01*
X2836214Y1559153D01*
X2828188Y1564792D01*
X2819247Y1568958D01*
X2809798Y1571498D01*
X2799994Y1572361D01*
X2790190Y1571498D01*
X2780741Y1568958D01*
X2771800Y1564792D01*
X2763774Y1559153D01*
X2753715Y1549349D01*
X2749651Y1548028D01*
X2745435Y1548434D01*
X2741777Y1550568D01*
X2739288Y1553972D01*
X2738424Y1558137D01*
X2738424Y2232812D01*
X2739186Y2236724D01*
X2741371Y2239975D01*
X2743149Y2241753D01*
X2748788Y2249830D01*
X2752953Y2258720D01*
X2755493Y2268220D01*
X2756357Y2277973D01*
X2755493Y2287778D01*
X2752953Y2297277D01*
X2748788Y2306167D01*
X2743149Y2314244D01*
X2736240Y2321153D01*
X2728163Y2326792D01*
X2719273Y2330958D01*
X2709773Y2333498D01*
X2700020Y2334361D01*
X2690215Y2333498D01*
X2680716Y2330958D01*
X2671826Y2326792D01*
X2663748Y2321153D01*
X2656840Y2314244D01*
X2651201Y2306167D01*
X2647035Y2297277D01*
X2644495Y2287778D01*
X2643632Y2277973D01*
X2644495Y2268220D01*
X2647035Y2258720D01*
X2651201Y2249830D01*
X2656840Y2241753D01*
X2658618Y2239975D01*
X2660802Y2236724D01*
X2661564Y2232812D01*
X2661564Y545185D01*
X2660802Y541274D01*
X2658618Y538022D01*
X2656840Y536244D01*
X2651201Y528167D01*
X2647035Y519277D01*
X2644495Y509778D01*
X2643632Y499973D01*
X2644495Y490220D01*
X2647035Y480720D01*
X2651201Y471830D01*
X2656840Y463753D01*
X2663748Y456844D01*
X2671826Y451205D01*
X2680716Y447040D01*
X2690215Y444500D01*
X2700020Y443636D01*
X2709773Y444500D01*
X2719273Y447040D01*
X2728163Y451205D01*
X2736240Y456844D01*
X2746298Y466750D01*
X2750362Y468122D01*
X2754579Y467715D01*
X2758287Y465582D01*
X2760776Y462178D01*
X2761691Y458012D01*
X2761691Y245262D01*
X2760929Y241401D01*
X2758694Y238099D01*
X2756814Y236220D01*
X2751175Y228193D01*
X2747060Y219252D01*
X2744520Y209804D01*
X2743657Y199999D01*
X2744520Y190195D01*
X2747060Y180746D01*
X2751175Y171805D01*
X2756814Y163779D01*
X2763774Y156819D01*
X2771800Y151180D01*
X2780741Y147066D01*
X2790190Y144526D01*
G37*
G36*
X4399991Y243636D02*
G01*
X4409795Y244500D01*
X4419244Y247040D01*
X4428185Y251206D01*
X4436211Y256844D01*
X4443171Y263753D01*
X4448810Y271830D01*
X4452924Y280720D01*
X4455464Y290220D01*
X4456328Y299974D01*
X4455464Y309778D01*
X4452924Y319278D01*
X4448810Y328168D01*
X4443171Y336245D01*
X4441393Y338023D01*
X4439158Y341274D01*
X4438396Y345186D01*
X4438396Y962812D01*
X4439158Y966724D01*
X4441393Y969975D01*
X4443171Y971753D01*
X4448810Y979830D01*
X4452924Y988720D01*
X4455464Y998219D01*
X4456328Y1007973D01*
X4455464Y1017778D01*
X4452924Y1027277D01*
X4448810Y1036167D01*
X4443171Y1044244D01*
X4436211Y1051153D01*
X4428185Y1056792D01*
X4419244Y1060958D01*
X4409795Y1063498D01*
X4399991Y1064361D01*
X4390186Y1063498D01*
X4380738Y1060958D01*
X4371797Y1056792D01*
X4363770Y1051153D01*
X4356811Y1044244D01*
X4351172Y1036167D01*
X4347057Y1027277D01*
X4344517Y1017778D01*
X4343654Y1007973D01*
X4344517Y998219D01*
X4347057Y988720D01*
X4351172Y979830D01*
X4356811Y971753D01*
X4358589Y969975D01*
X4360824Y966724D01*
X4361586Y962812D01*
X4361586Y345186D01*
X4360824Y341274D01*
X4358589Y338023D01*
X4356811Y336245D01*
X4351172Y328168D01*
X4347057Y319278D01*
X4344517Y309778D01*
X4343654Y299974D01*
X4344517Y290220D01*
X4347057Y280720D01*
X4351172Y271830D01*
X4356811Y263753D01*
X4363770Y256844D01*
X4371797Y251206D01*
X4380738Y247040D01*
X4390186Y244500D01*
G37*
G36*
X1999996Y243636D02*
G01*
X2009800Y244500D01*
X2019249Y247040D01*
X2028189Y251206D01*
X2036216Y256844D01*
X2043175Y263753D01*
X2048814Y271830D01*
X2052929Y280720D01*
X2055469Y290220D01*
X2056333Y299974D01*
X2055469Y309778D01*
X2052929Y319278D01*
X2048814Y328168D01*
X2043175Y336245D01*
X2041398Y338023D01*
X2039162Y341274D01*
X2038400Y345186D01*
X2038400Y899515D01*
X2037638Y907491D01*
X2035454Y914653D01*
X2031898Y921308D01*
X2026818Y927506D01*
X1943506Y1010818D01*
X1937308Y1015898D01*
X1930654Y1019454D01*
X1923491Y1021638D01*
X1915515Y1022400D01*
X1862937Y1022400D01*
X1859330Y1023061D01*
X1856130Y1025042D01*
X1853895Y1027988D01*
X1849831Y1036015D01*
X1842109Y1047242D01*
X1832965Y1057402D01*
X1822551Y1066190D01*
X1811070Y1073505D01*
X1798675Y1079246D01*
X1785670Y1083310D01*
X1772208Y1085545D01*
X1758594Y1086002D01*
X1745030Y1084681D01*
X1731772Y1081481D01*
X1719021Y1076604D01*
X1707083Y1070051D01*
X1696110Y1061974D01*
X1686306Y1052474D01*
X1677822Y1041755D01*
X1670862Y1030020D01*
X1665579Y1017473D01*
X1661972Y1004316D01*
X1660143Y990803D01*
X1660143Y977188D01*
X1661972Y963676D01*
X1665579Y950518D01*
X1670862Y937971D01*
X1677822Y926236D01*
X1686306Y915517D01*
X1696110Y906018D01*
X1707083Y897940D01*
X1719021Y891387D01*
X1731772Y886510D01*
X1745030Y883310D01*
X1758594Y881989D01*
X1772208Y882446D01*
X1785670Y884682D01*
X1798675Y888746D01*
X1811070Y894486D01*
X1822551Y901801D01*
X1832965Y910590D01*
X1842109Y920750D01*
X1849831Y931976D01*
X1853895Y940003D01*
X1856130Y942949D01*
X1859330Y944930D01*
X1862937Y945591D01*
X1895856Y945591D01*
X1899767Y944829D01*
X1903069Y942594D01*
X1958593Y887069D01*
X1960829Y883767D01*
X1961591Y879856D01*
X1961591Y345186D01*
X1960829Y341274D01*
X1958593Y338023D01*
X1956816Y336245D01*
X1951177Y328168D01*
X1947062Y319278D01*
X1944522Y309778D01*
X1943658Y299974D01*
X1944522Y290220D01*
X1947062Y280720D01*
X1951177Y271830D01*
X1956816Y263753D01*
X1963775Y256844D01*
X1971802Y251206D01*
X1980742Y247040D01*
X1990191Y244500D01*
G37*
G36*
X399999Y343662D02*
G01*
X409803Y344525D01*
X419252Y347065D01*
X428193Y351180D01*
X436219Y356819D01*
X443179Y363778D01*
X448818Y371805D01*
X452932Y380746D01*
X455472Y390194D01*
X456336Y399999D01*
X455472Y409803D01*
X453186Y418338D01*
X452983Y422452D01*
X454355Y426313D01*
X457200Y429259D01*
X460959Y430885D01*
X465074Y430885D01*
X468833Y429259D01*
X471830Y427177D01*
X480720Y423062D01*
X490220Y420522D01*
X500024Y419658D01*
X509778Y420522D01*
X519277Y423062D01*
X528167Y427177D01*
X536244Y432816D01*
X543153Y439775D01*
X548792Y447801D01*
X552958Y456742D01*
X555498Y466191D01*
X556361Y475996D01*
X555498Y485800D01*
X552958Y495249D01*
X548792Y504190D01*
X543153Y512216D01*
X541375Y513994D01*
X539191Y517296D01*
X538429Y521157D01*
X538429Y687882D01*
X539292Y691997D01*
X541782Y695452D01*
X545439Y697534D01*
X549656Y697941D01*
X553720Y696620D01*
X563778Y686816D01*
X571804Y681177D01*
X580745Y677062D01*
X590194Y674522D01*
X599998Y673658D01*
X609803Y674522D01*
X619252Y677062D01*
X628192Y681177D01*
X636219Y686816D01*
X643178Y693775D01*
X648817Y701802D01*
X652932Y710742D01*
X655472Y720191D01*
X656336Y729996D01*
X655472Y739800D01*
X652932Y749249D01*
X648817Y758190D01*
X643178Y766216D01*
X641400Y767994D01*
X639165Y771296D01*
X638403Y775157D01*
X638403Y1804822D01*
X639165Y1808683D01*
X641400Y1811985D01*
X643178Y1813763D01*
X648817Y1821840D01*
X652932Y1830730D01*
X655472Y1840230D01*
X656336Y1849983D01*
X655472Y1859788D01*
X652932Y1869287D01*
X648817Y1878177D01*
X643178Y1886204D01*
X636219Y1893163D01*
X628192Y1898802D01*
X619252Y1902968D01*
X609803Y1905507D01*
X599998Y1906320D01*
X590194Y1905507D01*
X580745Y1902968D01*
X571804Y1898802D01*
X563778Y1893163D01*
X556818Y1886204D01*
X551180Y1878177D01*
X547065Y1869287D01*
X544525Y1859788D01*
X543661Y1849983D01*
X544525Y1840230D01*
X547065Y1830730D01*
X551180Y1821840D01*
X556818Y1813763D01*
X558596Y1811985D01*
X560832Y1808683D01*
X561594Y1804822D01*
X561594Y1142136D01*
X560730Y1137970D01*
X558190Y1134567D01*
X554532Y1132433D01*
X550316Y1132027D01*
X546303Y1133348D01*
X543153Y1136192D01*
X536244Y1143152D01*
X528167Y1148791D01*
X519277Y1152956D01*
X509778Y1155496D01*
X500024Y1156360D01*
X490220Y1155496D01*
X480720Y1152956D01*
X471830Y1148791D01*
X463753Y1143152D01*
X456844Y1136192D01*
X453694Y1133348D01*
X449681Y1132027D01*
X445465Y1132433D01*
X441807Y1134567D01*
X439267Y1137970D01*
X438404Y1142136D01*
X438404Y1304798D01*
X439166Y1308709D01*
X441401Y1312011D01*
X443179Y1313789D01*
X448818Y1321816D01*
X452932Y1330706D01*
X455472Y1340205D01*
X456336Y1350010D01*
X455472Y1359763D01*
X452932Y1369263D01*
X448818Y1378153D01*
X443179Y1386230D01*
X436219Y1393139D01*
X428193Y1398778D01*
X419252Y1402943D01*
X409803Y1405483D01*
X399999Y1406347D01*
X390194Y1405483D01*
X380746Y1402943D01*
X371805Y1398778D01*
X363778Y1393139D01*
X356819Y1386230D01*
X351180Y1378153D01*
X347065Y1369263D01*
X344525Y1359763D01*
X343662Y1350010D01*
X344525Y1340205D01*
X347065Y1330706D01*
X351180Y1321816D01*
X356819Y1313789D01*
X358597Y1312011D01*
X360832Y1308709D01*
X361594Y1304798D01*
X361594Y445160D01*
X360832Y441299D01*
X358597Y437997D01*
X356819Y436219D01*
X351180Y428193D01*
X347065Y419252D01*
X344525Y409803D01*
X343662Y399999D01*
X344525Y390194D01*
X347065Y380746D01*
X351180Y371805D01*
X356819Y363778D01*
X363778Y356819D01*
X371805Y351180D01*
X380746Y347065D01*
X390194Y344525D01*
G37*
G36*
X1758594Y373989D02*
G01*
X1772208Y374446D01*
X1785670Y376682D01*
X1798675Y380746D01*
X1811070Y386486D01*
X1822551Y393801D01*
X1832965Y402590D01*
X1842109Y412750D01*
X1849831Y423976D01*
X1855978Y436118D01*
X1860448Y449021D01*
X1863191Y462381D01*
X1864106Y475996D01*
X1863191Y489610D01*
X1860448Y502970D01*
X1855978Y515874D01*
X1849831Y528015D01*
X1842109Y539242D01*
X1832965Y549402D01*
X1822551Y558190D01*
X1811070Y565505D01*
X1798675Y571246D01*
X1785670Y575310D01*
X1772208Y577545D01*
X1758594Y578002D01*
X1745030Y576681D01*
X1731772Y573481D01*
X1719021Y568604D01*
X1707083Y562051D01*
X1696110Y553974D01*
X1686306Y544474D01*
X1677822Y533755D01*
X1670862Y522020D01*
X1665579Y509473D01*
X1661972Y496316D01*
X1660143Y482803D01*
X1660143Y469188D01*
X1661972Y455676D01*
X1665579Y442518D01*
X1670862Y429971D01*
X1677822Y418236D01*
X1686306Y407517D01*
X1696110Y398018D01*
X1707083Y389940D01*
X1719021Y383387D01*
X1731772Y378510D01*
X1745030Y375310D01*
G37*
G36*
X234594Y373989D02*
G01*
X248208Y374446D01*
X261670Y376682D01*
X274675Y380746D01*
X287070Y386486D01*
X298551Y393801D01*
X308965Y402590D01*
X318109Y412750D01*
X325831Y423976D01*
X331978Y436118D01*
X336448Y449021D01*
X339191Y462381D01*
X340106Y475996D01*
X339191Y489610D01*
X336448Y502970D01*
X331978Y515874D01*
X325831Y528015D01*
X318109Y539242D01*
X308965Y549402D01*
X298551Y558190D01*
X287070Y565505D01*
X274675Y571246D01*
X261670Y575310D01*
X248208Y577545D01*
X234594Y578002D01*
X221030Y576681D01*
X207771Y573481D01*
X195021Y568604D01*
X183083Y562051D01*
X172110Y553974D01*
X162306Y544474D01*
X153822Y533755D01*
X146862Y522020D01*
X141579Y509473D01*
X137972Y496316D01*
X136144Y482803D01*
X136144Y469188D01*
X137972Y455676D01*
X141579Y442518D01*
X146862Y429971D01*
X153822Y418236D01*
X162306Y407517D01*
X172110Y398018D01*
X183083Y389940D01*
X195021Y383387D01*
X207771Y378510D01*
X221030Y375310D01*
G37*
G36*
X5342331Y387553D02*
G01*
X5344515Y388518D01*
X5357520Y396392D01*
X5369458Y405790D01*
X5380228Y416509D01*
X5389575Y428498D01*
X5397449Y441502D01*
X5398414Y443636D01*
X5342331Y443636D01*
G37*
G36*
X3056331Y387553D02*
G01*
X3058515Y388518D01*
X3071520Y396392D01*
X3083458Y405790D01*
X3094228Y416509D01*
X3103575Y428498D01*
X3111449Y441502D01*
X3112414Y443636D01*
X3056331Y443636D01*
G37*
G36*
X2943656Y387553D02*
G01*
X2943656Y443636D01*
X2887573Y443636D01*
X2888538Y441502D01*
X2896412Y428498D01*
X2905760Y416509D01*
X2916529Y405790D01*
X2928467Y396392D01*
X2941472Y388518D01*
G37*
G36*
X5229656Y387553D02*
G01*
X5229656Y443636D01*
X5173573Y443636D01*
X5174538Y441502D01*
X5182412Y428498D01*
X5191760Y416509D01*
X5202529Y405790D01*
X5214467Y396392D01*
X5227472Y388518D01*
G37*
G36*
X282448Y3432352D02*
G01*
X287070Y3434486D01*
X298551Y3441801D01*
X308965Y3450590D01*
X318109Y3460750D01*
X325831Y3471976D01*
X329641Y3479546D01*
X282448Y3479546D01*
G37*
G36*
X193548Y3432200D02*
G01*
X193548Y3479546D01*
X146202Y3479546D01*
X146862Y3477971D01*
X153822Y3466236D01*
X162306Y3455517D01*
X172110Y3446018D01*
X183083Y3437940D01*
G37*
G36*
X5173573Y556361D02*
G01*
X5229656Y556361D01*
X5229656Y612444D01*
X5227472Y611479D01*
X5214467Y603605D01*
X5202529Y594207D01*
X5191760Y583488D01*
X5182412Y571500D01*
X5174538Y558495D01*
G37*
G36*
X2887573Y556361D02*
G01*
X2943656Y556361D01*
X2943656Y612444D01*
X2941472Y611479D01*
X2928467Y603605D01*
X2916529Y594207D01*
X2905760Y583488D01*
X2896412Y571500D01*
X2888538Y558495D01*
G37*
G36*
X5342331Y556361D02*
G01*
X5398414Y556361D01*
X5397449Y558495D01*
X5389575Y571500D01*
X5380228Y583488D01*
X5369458Y594207D01*
X5357520Y603605D01*
X5344515Y611479D01*
X5342331Y612444D01*
G37*
G36*
X3056331Y556361D02*
G01*
X3112414Y556361D01*
X3111449Y558495D01*
X3103575Y571500D01*
X3094228Y583488D01*
X3083458Y594207D01*
X3071520Y603605D01*
X3058515Y611479D01*
X3056331Y612444D01*
G37*
G36*
X1758594Y627989D02*
G01*
X1772208Y628446D01*
X1785670Y630682D01*
X1798675Y634746D01*
X1811070Y640486D01*
X1822551Y647801D01*
X1832965Y656590D01*
X1842109Y666750D01*
X1849831Y677976D01*
X1855978Y690118D01*
X1860448Y703021D01*
X1863191Y716381D01*
X1864106Y729996D01*
X1863191Y743610D01*
X1860448Y756970D01*
X1855978Y769874D01*
X1849831Y782015D01*
X1842109Y793242D01*
X1832965Y803402D01*
X1822551Y812190D01*
X1811070Y819505D01*
X1798675Y825246D01*
X1785670Y829310D01*
X1772208Y831545D01*
X1758594Y832002D01*
X1745030Y830681D01*
X1731772Y827481D01*
X1719021Y822604D01*
X1707083Y816051D01*
X1696110Y807974D01*
X1686306Y798474D01*
X1677822Y787755D01*
X1670862Y776020D01*
X1665579Y763473D01*
X1661972Y750316D01*
X1660143Y736803D01*
X1660143Y723188D01*
X1661972Y709676D01*
X1665579Y696518D01*
X1670862Y683971D01*
X1677822Y672236D01*
X1686306Y661517D01*
X1696110Y652018D01*
X1707083Y643940D01*
X1719021Y637387D01*
X1731772Y632510D01*
X1745030Y629310D01*
G37*
G36*
X234594Y627989D02*
G01*
X248208Y628446D01*
X261670Y630682D01*
X274675Y634746D01*
X287070Y640486D01*
X298551Y647801D01*
X308965Y656590D01*
X318109Y666750D01*
X325831Y677976D01*
X331978Y690118D01*
X336448Y703021D01*
X339191Y716381D01*
X340106Y729996D01*
X339191Y743610D01*
X336448Y756970D01*
X331978Y769874D01*
X325831Y782015D01*
X318109Y793242D01*
X308965Y803402D01*
X298551Y812190D01*
X287070Y819505D01*
X274675Y825246D01*
X261670Y829310D01*
X248208Y831545D01*
X234594Y832002D01*
X221030Y830681D01*
X207771Y827481D01*
X195021Y822604D01*
X183083Y816051D01*
X172110Y807974D01*
X162306Y798474D01*
X153822Y787755D01*
X146862Y776020D01*
X141579Y763473D01*
X137972Y750316D01*
X136144Y736803D01*
X136144Y723188D01*
X137972Y709676D01*
X141579Y696518D01*
X146862Y683971D01*
X153822Y672236D01*
X162306Y661517D01*
X172110Y652018D01*
X183083Y643940D01*
X195021Y637387D01*
X207771Y632510D01*
X221030Y629310D01*
G37*
G36*
X5285994Y628091D02*
G01*
X5301183Y629005D01*
X5316118Y631748D01*
X5330596Y636270D01*
X5344515Y642518D01*
X5357520Y650392D01*
X5369458Y659790D01*
X5380228Y670509D01*
X5389575Y682498D01*
X5397449Y695502D01*
X5403697Y709371D01*
X5408218Y723849D01*
X5410962Y738835D01*
X5411876Y753973D01*
X5410962Y769162D01*
X5408218Y784148D01*
X5403697Y798626D01*
X5397449Y812495D01*
X5389575Y825500D01*
X5380228Y837488D01*
X5369458Y848207D01*
X5357520Y857605D01*
X5344515Y865479D01*
X5330596Y871728D01*
X5327396Y873963D01*
X5325313Y877214D01*
X5324602Y880973D01*
X5325313Y884783D01*
X5327396Y888034D01*
X5330596Y890269D01*
X5344515Y896518D01*
X5357520Y904392D01*
X5369458Y913790D01*
X5380228Y924509D01*
X5389575Y936498D01*
X5397449Y949502D01*
X5403697Y963371D01*
X5408218Y977849D01*
X5410962Y992835D01*
X5411876Y1007973D01*
X5410962Y1023162D01*
X5408218Y1038148D01*
X5403697Y1052626D01*
X5397449Y1066495D01*
X5389575Y1079500D01*
X5380228Y1091488D01*
X5369458Y1102207D01*
X5357520Y1111605D01*
X5344515Y1119479D01*
X5330596Y1125728D01*
X5327396Y1127963D01*
X5325313Y1131214D01*
X5324602Y1134973D01*
X5325313Y1138783D01*
X5327396Y1142034D01*
X5330596Y1144270D01*
X5344515Y1150518D01*
X5357520Y1158392D01*
X5369458Y1167790D01*
X5380228Y1178509D01*
X5389575Y1190498D01*
X5397449Y1203502D01*
X5403697Y1217371D01*
X5408218Y1231849D01*
X5410962Y1246835D01*
X5411876Y1261973D01*
X5410962Y1277162D01*
X5408218Y1292148D01*
X5403697Y1306626D01*
X5397449Y1320495D01*
X5389575Y1333500D01*
X5380228Y1345488D01*
X5369458Y1356207D01*
X5357520Y1365605D01*
X5344515Y1373479D01*
X5330596Y1379728D01*
X5327396Y1381963D01*
X5325313Y1385214D01*
X5324602Y1388973D01*
X5325313Y1392783D01*
X5327396Y1396034D01*
X5330596Y1398270D01*
X5344515Y1404518D01*
X5357520Y1412392D01*
X5369458Y1421790D01*
X5380228Y1432509D01*
X5389575Y1444498D01*
X5397449Y1457502D01*
X5403697Y1471371D01*
X5408218Y1485849D01*
X5410962Y1500835D01*
X5411876Y1515973D01*
X5410962Y1531162D01*
X5408218Y1546148D01*
X5403697Y1560626D01*
X5397449Y1574495D01*
X5389575Y1587500D01*
X5380228Y1599488D01*
X5369458Y1610207D01*
X5357520Y1619605D01*
X5344515Y1627479D01*
X5330596Y1633728D01*
X5327396Y1635963D01*
X5325313Y1639214D01*
X5324602Y1642973D01*
X5325313Y1646783D01*
X5327396Y1650034D01*
X5330596Y1652270D01*
X5344515Y1658518D01*
X5357520Y1666392D01*
X5369458Y1675790D01*
X5380228Y1686509D01*
X5389575Y1698498D01*
X5397449Y1711502D01*
X5403697Y1725371D01*
X5408218Y1739849D01*
X5410962Y1754835D01*
X5411876Y1769973D01*
X5410962Y1785162D01*
X5408218Y1800148D01*
X5403697Y1814626D01*
X5397449Y1828495D01*
X5389575Y1841500D01*
X5380228Y1853488D01*
X5369458Y1864207D01*
X5357520Y1873605D01*
X5344515Y1881479D01*
X5330596Y1887728D01*
X5327396Y1889963D01*
X5325313Y1893214D01*
X5324602Y1896973D01*
X5325313Y1900783D01*
X5327396Y1904034D01*
X5330596Y1906270D01*
X5344515Y1912518D01*
X5357520Y1920392D01*
X5369458Y1929790D01*
X5380228Y1940509D01*
X5389575Y1952498D01*
X5397449Y1965502D01*
X5403697Y1979371D01*
X5408218Y1993849D01*
X5410962Y2008835D01*
X5411876Y2023973D01*
X5410962Y2039162D01*
X5408218Y2054148D01*
X5403697Y2068626D01*
X5397449Y2082495D01*
X5389575Y2095500D01*
X5380228Y2107488D01*
X5369458Y2118207D01*
X5357520Y2127605D01*
X5344515Y2135479D01*
X5330596Y2141728D01*
X5327396Y2143963D01*
X5325313Y2147214D01*
X5324602Y2150973D01*
X5325313Y2154783D01*
X5327396Y2158034D01*
X5330596Y2160270D01*
X5344515Y2166518D01*
X5357520Y2174392D01*
X5369458Y2183790D01*
X5380228Y2194509D01*
X5389575Y2206498D01*
X5397449Y2219502D01*
X5403697Y2233371D01*
X5408218Y2247849D01*
X5410962Y2262835D01*
X5411876Y2277973D01*
X5410962Y2293162D01*
X5408218Y2308148D01*
X5403697Y2322626D01*
X5397449Y2336495D01*
X5389575Y2349500D01*
X5380228Y2361488D01*
X5369458Y2372207D01*
X5357520Y2381605D01*
X5344515Y2389479D01*
X5330647Y2395728D01*
X5316118Y2400249D01*
X5301183Y2402992D01*
X5285994Y2403906D01*
X5270804Y2402992D01*
X5255869Y2400249D01*
X5241340Y2395728D01*
X5227472Y2389479D01*
X5214467Y2381605D01*
X5202529Y2372207D01*
X5191760Y2361488D01*
X5182412Y2349500D01*
X5174538Y2336495D01*
X5168290Y2322626D01*
X5163769Y2308148D01*
X5161026Y2293162D01*
X5160111Y2277973D01*
X5161026Y2262835D01*
X5163769Y2247849D01*
X5168290Y2233371D01*
X5174538Y2219502D01*
X5182412Y2206498D01*
X5191760Y2194509D01*
X5202529Y2183790D01*
X5214467Y2174392D01*
X5227472Y2166518D01*
X5241391Y2160270D01*
X5244592Y2158034D01*
X5246674Y2154783D01*
X5247386Y2150973D01*
X5246674Y2147214D01*
X5244592Y2143963D01*
X5241391Y2141728D01*
X5227472Y2135479D01*
X5214467Y2127605D01*
X5202529Y2118207D01*
X5191760Y2107488D01*
X5182412Y2095500D01*
X5174538Y2082495D01*
X5168290Y2068626D01*
X5163769Y2054148D01*
X5161026Y2039162D01*
X5160111Y2023973D01*
X5161026Y2008835D01*
X5163769Y1993849D01*
X5168290Y1979371D01*
X5174538Y1965502D01*
X5182412Y1952498D01*
X5191760Y1940509D01*
X5202529Y1929790D01*
X5214467Y1920392D01*
X5227472Y1912518D01*
X5241391Y1906270D01*
X5244592Y1904034D01*
X5246674Y1900783D01*
X5247386Y1896973D01*
X5246674Y1893214D01*
X5244592Y1889963D01*
X5241391Y1887728D01*
X5227472Y1881479D01*
X5214467Y1873605D01*
X5202529Y1864207D01*
X5191760Y1853488D01*
X5182412Y1841500D01*
X5174538Y1828495D01*
X5168290Y1814626D01*
X5163769Y1800148D01*
X5161026Y1785162D01*
X5160111Y1769973D01*
X5161026Y1754835D01*
X5163769Y1739849D01*
X5168290Y1725371D01*
X5174538Y1711502D01*
X5182412Y1698498D01*
X5191760Y1686509D01*
X5202529Y1675790D01*
X5214467Y1666392D01*
X5227472Y1658518D01*
X5241391Y1652270D01*
X5244592Y1650034D01*
X5246674Y1646783D01*
X5247386Y1642973D01*
X5246674Y1639214D01*
X5244592Y1635963D01*
X5241391Y1633728D01*
X5227472Y1627479D01*
X5214467Y1619605D01*
X5202529Y1610207D01*
X5191760Y1599488D01*
X5182412Y1587500D01*
X5174538Y1574495D01*
X5168290Y1560626D01*
X5163769Y1546148D01*
X5161026Y1531162D01*
X5160111Y1515973D01*
X5161026Y1500835D01*
X5163769Y1485849D01*
X5168290Y1471371D01*
X5174538Y1457502D01*
X5182412Y1444498D01*
X5191760Y1432509D01*
X5202529Y1421790D01*
X5214467Y1412392D01*
X5227472Y1404518D01*
X5241391Y1398270D01*
X5244592Y1396034D01*
X5246674Y1392783D01*
X5247386Y1388973D01*
X5246674Y1385214D01*
X5244592Y1381963D01*
X5241391Y1379728D01*
X5227472Y1373479D01*
X5214467Y1365605D01*
X5202529Y1356207D01*
X5191760Y1345488D01*
X5182412Y1333500D01*
X5174538Y1320495D01*
X5168290Y1306626D01*
X5163769Y1292148D01*
X5161026Y1277162D01*
X5160111Y1261973D01*
X5161026Y1246835D01*
X5163769Y1231849D01*
X5168290Y1217371D01*
X5174538Y1203502D01*
X5182412Y1190498D01*
X5191760Y1178509D01*
X5202529Y1167790D01*
X5214467Y1158392D01*
X5227472Y1150518D01*
X5241391Y1144270D01*
X5244592Y1142034D01*
X5246674Y1138783D01*
X5247386Y1134973D01*
X5246674Y1131214D01*
X5244592Y1127963D01*
X5241391Y1125728D01*
X5227472Y1119479D01*
X5214467Y1111605D01*
X5202529Y1102207D01*
X5191760Y1091488D01*
X5182412Y1079500D01*
X5174538Y1066495D01*
X5168290Y1052626D01*
X5163769Y1038148D01*
X5161026Y1023162D01*
X5160111Y1007973D01*
X5161026Y992835D01*
X5163769Y977849D01*
X5168290Y963371D01*
X5174538Y949502D01*
X5182412Y936498D01*
X5191760Y924509D01*
X5202529Y913790D01*
X5214467Y904392D01*
X5227472Y896518D01*
X5241391Y890269D01*
X5244592Y888034D01*
X5246674Y884783D01*
X5247386Y880973D01*
X5246674Y877214D01*
X5244592Y873963D01*
X5241391Y871728D01*
X5227472Y865479D01*
X5214467Y857605D01*
X5202529Y848207D01*
X5191760Y837488D01*
X5182412Y825500D01*
X5174538Y812495D01*
X5168290Y798626D01*
X5163769Y784148D01*
X5161026Y769162D01*
X5160111Y753973D01*
X5161026Y738835D01*
X5163769Y723849D01*
X5168290Y709371D01*
X5174538Y695502D01*
X5182412Y682498D01*
X5191760Y670509D01*
X5202529Y659790D01*
X5214467Y650392D01*
X5227472Y642518D01*
X5241391Y636270D01*
X5255869Y631748D01*
X5270804Y629005D01*
G37*
G36*
X1758594Y3421989D02*
G01*
X1772208Y3422446D01*
X1785670Y3424682D01*
X1798675Y3428746D01*
X1811070Y3434486D01*
X1822551Y3441801D01*
X1832965Y3450590D01*
X1842109Y3460750D01*
X1849831Y3471976D01*
X1855978Y3484118D01*
X1860448Y3497021D01*
X1863191Y3510381D01*
X1864106Y3523996D01*
X1863191Y3537610D01*
X1860448Y3550970D01*
X1855978Y3563874D01*
X1849831Y3576015D01*
X1842109Y3587242D01*
X1832965Y3597401D01*
X1822551Y3606190D01*
X1811070Y3613505D01*
X1798675Y3619246D01*
X1785670Y3623310D01*
X1772208Y3625545D01*
X1758594Y3626002D01*
X1745030Y3624681D01*
X1731772Y3621481D01*
X1719021Y3616604D01*
X1707083Y3610051D01*
X1696110Y3601974D01*
X1686306Y3592474D01*
X1677822Y3581755D01*
X1670862Y3570020D01*
X1665579Y3557473D01*
X1661972Y3544315D01*
X1660143Y3530803D01*
X1660143Y3517188D01*
X1661972Y3503676D01*
X1665579Y3490518D01*
X1670862Y3477971D01*
X1677822Y3466236D01*
X1686306Y3455517D01*
X1696110Y3446018D01*
X1707083Y3437940D01*
X1719021Y3431387D01*
X1731772Y3426510D01*
X1745030Y3423310D01*
G37*
G36*
X1670202Y3314446D02*
G01*
X1717548Y3314446D01*
X1717548Y3361791D01*
X1707083Y3356051D01*
X1696110Y3347974D01*
X1686306Y3338474D01*
X1677822Y3327755D01*
X1670862Y3316020D01*
G37*
G36*
X2394305Y674319D02*
G01*
X2405684Y674319D01*
X2416860Y675995D01*
X2427732Y679348D01*
X2437942Y684276D01*
X2447290Y690676D01*
X2455621Y698398D01*
X2462682Y707237D01*
X2468372Y717042D01*
X2472486Y727608D01*
X2475026Y738682D01*
X2475890Y750366D01*
X2475890Y3024682D01*
X2475382Y3033674D01*
X2475077Y3036112D01*
X2472588Y3047187D01*
X2469489Y3055518D01*
X2468473Y3057753D01*
X2464155Y3065526D01*
X2462834Y3067558D01*
X2457399Y3074619D01*
X2455773Y3076448D01*
X2449372Y3082645D01*
X2447493Y3084220D01*
X2440228Y3089351D01*
X2438095Y3090621D01*
X2430170Y3094634D01*
X2419451Y3098342D01*
X2417064Y3098952D01*
X2408326Y3100425D01*
X2405837Y3100679D01*
X2396947Y3100832D01*
X2394508Y3100679D01*
X2385720Y3099511D01*
X2383282Y3099003D01*
X2374747Y3096564D01*
X2372461Y3095701D01*
X2362200Y3090824D01*
X2354783Y3085947D01*
X2352802Y3084423D01*
X2346198Y3078530D01*
X2344470Y3076752D01*
X2338781Y3069894D01*
X2337358Y3067913D01*
X2332786Y3060293D01*
X2331669Y3058109D01*
X2328265Y3049879D01*
X2327503Y3047542D01*
X2325370Y3038906D01*
X2324963Y3036468D01*
X2324150Y3027629D01*
X2324100Y750366D01*
X2324963Y738682D01*
X2327503Y727608D01*
X2331618Y717042D01*
X2337308Y707237D01*
X2344369Y698398D01*
X2352700Y690676D01*
X2362047Y684276D01*
X2372258Y679348D01*
X2383129Y675995D01*
G37*
G36*
X4599990Y678078D02*
G01*
X4605680Y678332D01*
X4611319Y678942D01*
X4616856Y680008D01*
X4622342Y681482D01*
X4627727Y683361D01*
X4632909Y685596D01*
X4637938Y688289D01*
X4642764Y691286D01*
X4647336Y694639D01*
X4651603Y698347D01*
X4655616Y702360D01*
X4659325Y706678D01*
X4662678Y711250D01*
X4665726Y716026D01*
X4668367Y721055D01*
X4670653Y726287D01*
X4672533Y731621D01*
X4674006Y737108D01*
X4675022Y742696D01*
X4675682Y748334D01*
X4675886Y754176D01*
X4675886Y3524605D01*
X4675022Y3536289D01*
X4672482Y3547364D01*
X4668367Y3557930D01*
X4662678Y3567734D01*
X4655616Y3576574D01*
X4647285Y3584295D01*
X4637938Y3590696D01*
X4627727Y3595624D01*
X4616856Y3598976D01*
X4605680Y3600653D01*
X4594301Y3600653D01*
X4583125Y3598976D01*
X4572254Y3595624D01*
X4562043Y3590696D01*
X4552696Y3584295D01*
X4544364Y3576574D01*
X4537303Y3567734D01*
X4531614Y3557930D01*
X4527499Y3547364D01*
X4524959Y3536289D01*
X4524095Y3524605D01*
X4524095Y754176D01*
X4524298Y748334D01*
X4524959Y742696D01*
X4525975Y737108D01*
X4527448Y731621D01*
X4529328Y726287D01*
X4531614Y721055D01*
X4534255Y716026D01*
X4537303Y711250D01*
X4540656Y706678D01*
X4544364Y702360D01*
X4548378Y698347D01*
X4552645Y694639D01*
X4557217Y691286D01*
X4562043Y688289D01*
X4567072Y685596D01*
X4572254Y683361D01*
X4577638Y681482D01*
X4583125Y680008D01*
X4588662Y678942D01*
X4594301Y678332D01*
G37*
G36*
X234594Y881989D02*
G01*
X248208Y882446D01*
X261670Y884682D01*
X274675Y888746D01*
X287070Y894486D01*
X298551Y901801D01*
X308965Y910590D01*
X318109Y920750D01*
X325831Y931976D01*
X331978Y944118D01*
X336448Y957021D01*
X339191Y970381D01*
X340106Y983996D01*
X339191Y997610D01*
X336448Y1010970D01*
X331978Y1023874D01*
X325831Y1036015D01*
X318109Y1047242D01*
X308965Y1057402D01*
X298551Y1066190D01*
X287070Y1073505D01*
X274675Y1079246D01*
X261670Y1083310D01*
X248208Y1085545D01*
X234594Y1086002D01*
X221030Y1084681D01*
X207771Y1081481D01*
X195021Y1076604D01*
X183083Y1070051D01*
X172110Y1061974D01*
X162306Y1052474D01*
X153822Y1041755D01*
X146862Y1030020D01*
X141579Y1017473D01*
X137972Y1004316D01*
X136144Y990803D01*
X136144Y977188D01*
X137972Y963676D01*
X141579Y950518D01*
X146862Y937971D01*
X153822Y926236D01*
X162306Y915517D01*
X172110Y906018D01*
X183083Y897940D01*
X195021Y891387D01*
X207771Y886510D01*
X221030Y883310D01*
G37*
G36*
X1806448Y3314446D02*
G01*
X1853641Y3314446D01*
X1849831Y3322015D01*
X1842109Y3333242D01*
X1832965Y3343401D01*
X1822551Y3352190D01*
X1811070Y3359505D01*
X1806448Y3361639D01*
G37*
G36*
X1806448Y3178352D02*
G01*
X1811070Y3180486D01*
X1822551Y3187801D01*
X1832965Y3196590D01*
X1842109Y3206750D01*
X1849831Y3217976D01*
X1853641Y3225546D01*
X1806448Y3225546D01*
G37*
G36*
X1717548Y3178200D02*
G01*
X1717548Y3225546D01*
X1670202Y3225546D01*
X1670862Y3223971D01*
X1677822Y3212236D01*
X1686306Y3201517D01*
X1696110Y3192018D01*
X1707083Y3183940D01*
G37*
G36*
X234594Y1135989D02*
G01*
X248208Y1136446D01*
X261670Y1138682D01*
X274675Y1142746D01*
X287070Y1148486D01*
X298551Y1155801D01*
X308965Y1164590D01*
X318109Y1174750D01*
X325831Y1185976D01*
X331978Y1198118D01*
X336448Y1211021D01*
X339191Y1224381D01*
X340106Y1237996D01*
X339191Y1251610D01*
X336448Y1264970D01*
X331978Y1277874D01*
X325831Y1290015D01*
X318109Y1301242D01*
X308965Y1311402D01*
X298551Y1320190D01*
X287070Y1327505D01*
X274675Y1333246D01*
X261670Y1337310D01*
X248208Y1339545D01*
X234594Y1340002D01*
X221030Y1338681D01*
X207771Y1335481D01*
X195021Y1330604D01*
X183083Y1324051D01*
X172110Y1315974D01*
X162306Y1306474D01*
X153822Y1295755D01*
X146862Y1284020D01*
X141579Y1271473D01*
X137972Y1258316D01*
X136144Y1244803D01*
X136144Y1231188D01*
X137972Y1217676D01*
X141579Y1204518D01*
X146862Y1191971D01*
X153822Y1180236D01*
X162306Y1169517D01*
X172110Y1160018D01*
X183083Y1151940D01*
X195021Y1145387D01*
X207771Y1140510D01*
X221030Y1137310D01*
G37*
G36*
X234594Y3167989D02*
G01*
X248208Y3168446D01*
X261670Y3170682D01*
X274675Y3174746D01*
X287070Y3180486D01*
X298551Y3187801D01*
X308965Y3196590D01*
X318109Y3206750D01*
X325831Y3217976D01*
X331978Y3230118D01*
X336448Y3243021D01*
X339191Y3256381D01*
X340106Y3269996D01*
X339191Y3283610D01*
X336448Y3296970D01*
X331978Y3309874D01*
X325831Y3322015D01*
X318109Y3333242D01*
X308965Y3343401D01*
X298551Y3352190D01*
X287070Y3359505D01*
X274675Y3365246D01*
X261670Y3369310D01*
X248208Y3371545D01*
X234594Y3372002D01*
X221030Y3370681D01*
X207771Y3367481D01*
X195021Y3362604D01*
X183083Y3356051D01*
X172110Y3347974D01*
X162306Y3338474D01*
X153822Y3327755D01*
X146862Y3316020D01*
X141579Y3303473D01*
X137972Y3290315D01*
X136144Y3276803D01*
X136144Y3263188D01*
X137972Y3249676D01*
X141579Y3236518D01*
X146862Y3223971D01*
X153822Y3212236D01*
X162306Y3201517D01*
X172110Y3192018D01*
X183083Y3183940D01*
X195021Y3177387D01*
X207771Y3172510D01*
X221030Y3169310D01*
G37*
G36*
X1758594Y1389989D02*
G01*
X1772208Y1390446D01*
X1785670Y1392682D01*
X1798675Y1396746D01*
X1811070Y1402486D01*
X1822551Y1409801D01*
X1832965Y1418590D01*
X1842109Y1428750D01*
X1849831Y1439976D01*
X1855978Y1452118D01*
X1860448Y1465021D01*
X1863191Y1478381D01*
X1864106Y1491996D01*
X1863191Y1505610D01*
X1860448Y1518970D01*
X1855978Y1531874D01*
X1849831Y1544015D01*
X1842109Y1555242D01*
X1832965Y1565402D01*
X1822551Y1574190D01*
X1811070Y1581505D01*
X1798675Y1587246D01*
X1785670Y1591310D01*
X1772208Y1593545D01*
X1758594Y1594002D01*
X1745030Y1592681D01*
X1731772Y1589481D01*
X1719021Y1584604D01*
X1707083Y1578051D01*
X1696110Y1569974D01*
X1686306Y1560474D01*
X1677822Y1549755D01*
X1670862Y1538020D01*
X1665579Y1525473D01*
X1661972Y1512316D01*
X1660143Y1498803D01*
X1660143Y1485188D01*
X1661972Y1471676D01*
X1665579Y1458518D01*
X1670862Y1445971D01*
X1677822Y1434236D01*
X1686306Y1423517D01*
X1696110Y1414018D01*
X1707083Y1405940D01*
X1719021Y1399387D01*
X1731772Y1394510D01*
X1745030Y1391310D01*
G37*
G36*
X234594Y1389989D02*
G01*
X248208Y1390446D01*
X261670Y1392682D01*
X274675Y1396746D01*
X287070Y1402486D01*
X298551Y1409801D01*
X308965Y1418590D01*
X318109Y1428750D01*
X325831Y1439976D01*
X331978Y1452118D01*
X336448Y1465021D01*
X339191Y1478381D01*
X340106Y1491996D01*
X339191Y1505610D01*
X336448Y1518970D01*
X331978Y1531874D01*
X325831Y1544015D01*
X318109Y1555242D01*
X308965Y1565402D01*
X298551Y1574190D01*
X287070Y1581505D01*
X274675Y1587246D01*
X261670Y1591310D01*
X248208Y1593545D01*
X234594Y1594002D01*
X221030Y1592681D01*
X207771Y1589481D01*
X195021Y1584604D01*
X183083Y1578051D01*
X172110Y1569974D01*
X162306Y1560474D01*
X153822Y1549755D01*
X146862Y1538020D01*
X141579Y1525473D01*
X137972Y1512316D01*
X136144Y1498803D01*
X136144Y1485188D01*
X137972Y1471676D01*
X141579Y1458518D01*
X146862Y1445971D01*
X153822Y1434236D01*
X162306Y1423517D01*
X172110Y1414018D01*
X183083Y1405940D01*
X195021Y1399387D01*
X207771Y1394510D01*
X221030Y1391310D01*
G37*
G36*
X4399991Y1459636D02*
G01*
X4409795Y1460500D01*
X4419244Y1463040D01*
X4428185Y1467205D01*
X4436211Y1472844D01*
X4443171Y1479753D01*
X4448810Y1487830D01*
X4452924Y1496720D01*
X4455464Y1506220D01*
X4456328Y1515973D01*
X4455464Y1525778D01*
X4452924Y1535277D01*
X4448810Y1544167D01*
X4443171Y1552244D01*
X4441393Y1554022D01*
X4439158Y1557274D01*
X4438396Y1561185D01*
X4438396Y3104794D01*
X4439158Y3108706D01*
X4441393Y3112008D01*
X4443171Y3113786D01*
X4448810Y3121812D01*
X4452924Y3130702D01*
X4455464Y3140202D01*
X4456328Y3150006D01*
X4455464Y3159760D01*
X4452924Y3169259D01*
X4448810Y3178149D01*
X4443171Y3186226D01*
X4436211Y3193135D01*
X4428185Y3198774D01*
X4419244Y3202940D01*
X4409795Y3205480D01*
X4399991Y3206343D01*
X4390186Y3205480D01*
X4380738Y3202940D01*
X4371797Y3198774D01*
X4363770Y3193135D01*
X4353712Y3183331D01*
X4349648Y3182010D01*
X4345432Y3182467D01*
X4341774Y3184550D01*
X4339285Y3188004D01*
X4338421Y3192119D01*
X4338421Y3354832D01*
X4339183Y3358692D01*
X4341368Y3361994D01*
X4343146Y3363772D01*
X4348784Y3371799D01*
X4352950Y3380740D01*
X4355490Y3390188D01*
X4356354Y3399993D01*
X4355490Y3409797D01*
X4352950Y3419246D01*
X4348784Y3428187D01*
X4343146Y3436213D01*
X4336237Y3443173D01*
X4328160Y3448812D01*
X4319270Y3452926D01*
X4309770Y3455466D01*
X4300016Y3456330D01*
X4290212Y3455466D01*
X4280712Y3452926D01*
X4271822Y3448812D01*
X4263745Y3443173D01*
X4256836Y3436213D01*
X4251198Y3428187D01*
X4247032Y3419246D01*
X4244492Y3409797D01*
X4243628Y3399993D01*
X4244492Y3390188D01*
X4247032Y3380740D01*
X4251198Y3371799D01*
X4256836Y3363772D01*
X4258614Y3361994D01*
X4260799Y3358692D01*
X4261561Y3354832D01*
X4261561Y2942132D01*
X4260697Y2937967D01*
X4258208Y2934563D01*
X4254550Y2932430D01*
X4250334Y2932023D01*
X4246270Y2933344D01*
X4236212Y2943148D01*
X4228185Y2948787D01*
X4219244Y2952953D01*
X4209796Y2955493D01*
X4199991Y2956356D01*
X4190187Y2955493D01*
X4180738Y2952953D01*
X4171797Y2948787D01*
X4163771Y2943148D01*
X4156811Y2936240D01*
X4151172Y2928162D01*
X4147058Y2919272D01*
X4144518Y2909773D01*
X4143654Y2899968D01*
X4144518Y2890215D01*
X4147058Y2880715D01*
X4151172Y2871825D01*
X4156811Y2863748D01*
X4158589Y2862021D01*
X4160824Y2858719D01*
X4161586Y2854807D01*
X4161536Y2692146D01*
X4160672Y2688031D01*
X4158183Y2684576D01*
X4154525Y2682494D01*
X4150309Y2682036D01*
X4146296Y2683357D01*
X4143146Y2686202D01*
X4136237Y2693162D01*
X4128160Y2698800D01*
X4119270Y2702966D01*
X4109770Y2705506D01*
X4100017Y2706319D01*
X4090212Y2705506D01*
X4080713Y2702966D01*
X4071823Y2698800D01*
X4063746Y2693162D01*
X4056837Y2686202D01*
X4051198Y2678176D01*
X4047032Y2669286D01*
X4044492Y2659786D01*
X4043629Y2649982D01*
X4044492Y2640228D01*
X4047032Y2630728D01*
X4051198Y2621838D01*
X4056837Y2613761D01*
X4058665Y2611932D01*
X4060901Y2608630D01*
X4061663Y2604719D01*
X4061663Y2323236D01*
X4060901Y2319375D01*
X4058665Y2316073D01*
X4056837Y2314244D01*
X4051198Y2306167D01*
X4047032Y2297277D01*
X4044492Y2287778D01*
X4043629Y2277973D01*
X4044492Y2268220D01*
X4047032Y2258720D01*
X4051198Y2249830D01*
X4056837Y2241753D01*
X4063746Y2234844D01*
X4071823Y2229205D01*
X4080713Y2225040D01*
X4090212Y2222500D01*
X4100017Y2221636D01*
X4109770Y2222500D01*
X4119270Y2225040D01*
X4128160Y2229205D01*
X4136237Y2234844D01*
X4143146Y2241804D01*
X4146296Y2244598D01*
X4150309Y2245868D01*
X4154525Y2245410D01*
X4158183Y2243277D01*
X4160621Y2239873D01*
X4161485Y2235758D01*
X4161485Y2069338D01*
X4160723Y2065426D01*
X4158487Y2062124D01*
X4156710Y2060346D01*
X4151071Y2052320D01*
X4146956Y2043379D01*
X4144416Y2033930D01*
X4143552Y2024125D01*
X4144416Y2014321D01*
X4146956Y2004872D01*
X4151071Y1995932D01*
X4156710Y1987905D01*
X4163669Y1980946D01*
X4171696Y1975307D01*
X4180636Y1971192D01*
X4190085Y1968652D01*
X4199890Y1967788D01*
X4209694Y1968652D01*
X4219143Y1971192D01*
X4228084Y1975307D01*
X4236110Y1980946D01*
X4246219Y1990852D01*
X4250232Y1992223D01*
X4254500Y1991817D01*
X4258157Y1989734D01*
X4260697Y1986280D01*
X4261561Y1982165D01*
X4261561Y1815185D01*
X4260799Y1811274D01*
X4258614Y1808022D01*
X4256836Y1806244D01*
X4251198Y1798167D01*
X4247032Y1789277D01*
X4244492Y1779778D01*
X4243628Y1769973D01*
X4244492Y1760220D01*
X4247032Y1750720D01*
X4251198Y1741830D01*
X4256836Y1733753D01*
X4263745Y1726844D01*
X4271822Y1721205D01*
X4280712Y1717039D01*
X4290212Y1714500D01*
X4300016Y1713636D01*
X4309770Y1714500D01*
X4319270Y1717039D01*
X4328160Y1721205D01*
X4336237Y1726844D01*
X4343146Y1733804D01*
X4346295Y1736648D01*
X4350308Y1737969D01*
X4354525Y1737563D01*
X4358182Y1735429D01*
X4360722Y1732025D01*
X4361586Y1727860D01*
X4361586Y1561185D01*
X4360824Y1557274D01*
X4358589Y1554022D01*
X4356811Y1552244D01*
X4351172Y1544167D01*
X4347057Y1535277D01*
X4344517Y1525778D01*
X4343654Y1515973D01*
X4344517Y1506220D01*
X4347057Y1496720D01*
X4351172Y1487830D01*
X4356811Y1479753D01*
X4363770Y1472844D01*
X4371797Y1467205D01*
X4380738Y1463040D01*
X4390186Y1460500D01*
G37*
G36*
X1504594Y3167989D02*
G01*
X1518208Y3168446D01*
X1531670Y3170682D01*
X1544675Y3174746D01*
X1557070Y3180486D01*
X1568551Y3187801D01*
X1578965Y3196590D01*
X1588109Y3206750D01*
X1595831Y3217976D01*
X1601978Y3230118D01*
X1606448Y3243021D01*
X1609191Y3256381D01*
X1610106Y3269996D01*
X1609191Y3283610D01*
X1606448Y3296970D01*
X1601978Y3309874D01*
X1595831Y3322015D01*
X1588109Y3333242D01*
X1578965Y3343401D01*
X1568551Y3352190D01*
X1557070Y3359505D01*
X1544675Y3365246D01*
X1531670Y3369310D01*
X1518208Y3371545D01*
X1504594Y3372002D01*
X1491030Y3370681D01*
X1477772Y3367481D01*
X1465021Y3362604D01*
X1453083Y3356051D01*
X1442110Y3347974D01*
X1432306Y3338474D01*
X1423822Y3327755D01*
X1416862Y3316020D01*
X1411579Y3303473D01*
X1407972Y3290315D01*
X1406144Y3276803D01*
X1406144Y3263188D01*
X1407972Y3249676D01*
X1411579Y3236518D01*
X1416862Y3223971D01*
X1423822Y3212236D01*
X1432306Y3201517D01*
X1442110Y3192018D01*
X1453083Y3183940D01*
X1465021Y3177387D01*
X1477772Y3172510D01*
X1491030Y3169310D01*
G37*
G36*
X234594Y2913989D02*
G01*
X248208Y2914446D01*
X261670Y2916682D01*
X274675Y2920746D01*
X287070Y2926486D01*
X298551Y2933801D01*
X308965Y2942590D01*
X318109Y2952750D01*
X325831Y2963976D01*
X331978Y2976118D01*
X336448Y2989021D01*
X339191Y3002381D01*
X340106Y3015996D01*
X339191Y3029610D01*
X336448Y3042970D01*
X331978Y3055874D01*
X325831Y3068015D01*
X318109Y3079242D01*
X308965Y3089402D01*
X298551Y3098190D01*
X287070Y3105505D01*
X274675Y3111246D01*
X261670Y3115310D01*
X248208Y3117545D01*
X234594Y3118002D01*
X221030Y3116681D01*
X207771Y3113481D01*
X195021Y3108604D01*
X183083Y3102051D01*
X172110Y3093974D01*
X162306Y3084474D01*
X153822Y3073755D01*
X146862Y3062020D01*
X141579Y3049473D01*
X137972Y3036316D01*
X136144Y3022803D01*
X136144Y3009188D01*
X137972Y2995676D01*
X141579Y2982518D01*
X146862Y2969971D01*
X153822Y2958236D01*
X162306Y2947517D01*
X172110Y2938018D01*
X183083Y2929940D01*
X195021Y2923387D01*
X207771Y2918510D01*
X221030Y2915310D01*
G37*
G36*
X234594Y1643989D02*
G01*
X248208Y1644446D01*
X261670Y1646682D01*
X274675Y1650746D01*
X287070Y1656486D01*
X298551Y1663801D01*
X308965Y1672589D01*
X318109Y1682750D01*
X325831Y1693976D01*
X331978Y1706118D01*
X336448Y1719021D01*
X339191Y1732381D01*
X340106Y1745996D01*
X339191Y1759610D01*
X336448Y1772970D01*
X331978Y1785874D01*
X325831Y1798015D01*
X318109Y1809242D01*
X308965Y1819402D01*
X298551Y1828190D01*
X287070Y1835505D01*
X274675Y1841246D01*
X261670Y1845310D01*
X248208Y1847545D01*
X234594Y1848002D01*
X221030Y1846681D01*
X207771Y1843481D01*
X195021Y1838604D01*
X183083Y1832051D01*
X172110Y1823974D01*
X162306Y1814474D01*
X153822Y1803755D01*
X146862Y1792020D01*
X141579Y1779473D01*
X137972Y1766316D01*
X136144Y1752803D01*
X136144Y1739188D01*
X137972Y1725675D01*
X141579Y1712518D01*
X146862Y1699971D01*
X153822Y1688236D01*
X162306Y1677517D01*
X172110Y1668018D01*
X183083Y1659940D01*
X195021Y1653387D01*
X207771Y1648510D01*
X221030Y1645310D01*
G37*
G36*
X1758594Y1643989D02*
G01*
X1772208Y1644446D01*
X1785670Y1646682D01*
X1798675Y1650746D01*
X1811070Y1656486D01*
X1822551Y1663801D01*
X1832965Y1672589D01*
X1842109Y1682750D01*
X1849831Y1693976D01*
X1855978Y1706118D01*
X1860448Y1719021D01*
X1863191Y1732381D01*
X1864106Y1745996D01*
X1863191Y1759610D01*
X1860448Y1772970D01*
X1855978Y1785874D01*
X1849831Y1798015D01*
X1842109Y1809242D01*
X1832965Y1819402D01*
X1822551Y1828190D01*
X1811070Y1835505D01*
X1798675Y1841246D01*
X1785670Y1845310D01*
X1772208Y1847545D01*
X1758594Y1848002D01*
X1745030Y1846681D01*
X1731772Y1843481D01*
X1719021Y1838604D01*
X1707083Y1832051D01*
X1696110Y1823974D01*
X1686306Y1814474D01*
X1677822Y1803755D01*
X1670862Y1792020D01*
X1665579Y1779473D01*
X1661972Y1766316D01*
X1660143Y1752803D01*
X1660143Y1739188D01*
X1661972Y1725675D01*
X1665579Y1712518D01*
X1670862Y1699971D01*
X1677822Y1688236D01*
X1686306Y1677517D01*
X1696110Y1668018D01*
X1707083Y1659940D01*
X1719021Y1653387D01*
X1731772Y1648510D01*
X1745030Y1645310D01*
G37*
G36*
X1758594Y2913989D02*
G01*
X1772208Y2914446D01*
X1785670Y2916682D01*
X1798675Y2920746D01*
X1811070Y2926486D01*
X1822551Y2933801D01*
X1832965Y2942590D01*
X1842109Y2952750D01*
X1849831Y2963976D01*
X1855978Y2976118D01*
X1860448Y2989021D01*
X1863191Y3002381D01*
X1864106Y3015996D01*
X1863191Y3029610D01*
X1860448Y3042970D01*
X1855978Y3055874D01*
X1849831Y3068015D01*
X1842109Y3079242D01*
X1832965Y3089402D01*
X1822551Y3098190D01*
X1811070Y3105505D01*
X1798675Y3111246D01*
X1785670Y3115310D01*
X1772208Y3117545D01*
X1758594Y3118002D01*
X1745030Y3116681D01*
X1731772Y3113481D01*
X1719021Y3108604D01*
X1707083Y3102051D01*
X1696110Y3093974D01*
X1686306Y3084474D01*
X1677822Y3073755D01*
X1670862Y3062020D01*
X1665579Y3049473D01*
X1661972Y3036316D01*
X1660143Y3022803D01*
X1660143Y3009188D01*
X1661972Y2995676D01*
X1665579Y2982518D01*
X1670862Y2969971D01*
X1677822Y2958236D01*
X1686306Y2947517D01*
X1696110Y2938018D01*
X1707083Y2929940D01*
X1719021Y2923387D01*
X1731772Y2918510D01*
X1745030Y2915310D01*
G37*
G36*
X234594Y1897989D02*
G01*
X248208Y1898446D01*
X261670Y1900682D01*
X274675Y1904746D01*
X287070Y1910486D01*
X298551Y1917801D01*
X308965Y1926589D01*
X318109Y1936750D01*
X325831Y1947976D01*
X331978Y1960118D01*
X336448Y1973021D01*
X339191Y1986381D01*
X340106Y1999996D01*
X339191Y2013610D01*
X336448Y2026970D01*
X331978Y2039874D01*
X325831Y2052015D01*
X318109Y2063242D01*
X308965Y2073402D01*
X298551Y2082190D01*
X287070Y2089505D01*
X274675Y2095246D01*
X261670Y2099310D01*
X248208Y2101545D01*
X234594Y2102002D01*
X221030Y2100681D01*
X207771Y2097481D01*
X195021Y2092604D01*
X183083Y2086051D01*
X172110Y2077974D01*
X162306Y2068474D01*
X153822Y2057755D01*
X146862Y2046020D01*
X141579Y2033473D01*
X137972Y2020316D01*
X136144Y2006803D01*
X136144Y1993188D01*
X137972Y1979675D01*
X141579Y1966518D01*
X146862Y1953971D01*
X153822Y1942236D01*
X162306Y1931517D01*
X172110Y1922018D01*
X183083Y1913940D01*
X195021Y1907387D01*
X207771Y1902510D01*
X221030Y1899310D01*
G37*
G36*
X1758594Y1897989D02*
G01*
X1772208Y1898446D01*
X1785670Y1900682D01*
X1798675Y1904746D01*
X1811070Y1910486D01*
X1822551Y1917801D01*
X1832965Y1926589D01*
X1842109Y1936750D01*
X1849831Y1947976D01*
X1855978Y1960118D01*
X1860448Y1973021D01*
X1863191Y1986381D01*
X1864106Y1999996D01*
X1863191Y2013610D01*
X1860448Y2026970D01*
X1855978Y2039874D01*
X1849831Y2052015D01*
X1842109Y2063242D01*
X1832965Y2073402D01*
X1822551Y2082190D01*
X1811070Y2089505D01*
X1798675Y2095246D01*
X1785670Y2099310D01*
X1772208Y2101545D01*
X1758594Y2102002D01*
X1745030Y2100681D01*
X1731772Y2097481D01*
X1719021Y2092604D01*
X1707083Y2086051D01*
X1696110Y2077974D01*
X1686306Y2068474D01*
X1677822Y2057755D01*
X1670862Y2046020D01*
X1665579Y2033473D01*
X1661972Y2020316D01*
X1660143Y2006803D01*
X1660143Y1993188D01*
X1661972Y1979675D01*
X1665579Y1966518D01*
X1670862Y1953971D01*
X1677822Y1942236D01*
X1686306Y1931517D01*
X1696110Y1922018D01*
X1707083Y1913940D01*
X1719021Y1907387D01*
X1731772Y1902510D01*
X1745030Y1899310D01*
G37*
G36*
X1504594Y2659989D02*
G01*
X1518208Y2660446D01*
X1531670Y2662682D01*
X1544675Y2666746D01*
X1557070Y2672486D01*
X1568551Y2679801D01*
X1578965Y2688590D01*
X1588109Y2698750D01*
X1595831Y2709976D01*
X1601978Y2722118D01*
X1606448Y2735021D01*
X1609191Y2748381D01*
X1610106Y2761996D01*
X1609191Y2775610D01*
X1606448Y2788970D01*
X1601978Y2801874D01*
X1595831Y2814015D01*
X1588109Y2825242D01*
X1578965Y2835402D01*
X1568551Y2844190D01*
X1557070Y2851505D01*
X1544675Y2857246D01*
X1531670Y2861310D01*
X1518208Y2863545D01*
X1504594Y2864002D01*
X1491030Y2862681D01*
X1477772Y2859481D01*
X1465021Y2854604D01*
X1453083Y2848051D01*
X1442110Y2839974D01*
X1432306Y2830474D01*
X1423822Y2819755D01*
X1416862Y2808020D01*
X1411579Y2795473D01*
X1407972Y2782316D01*
X1406144Y2768803D01*
X1406144Y2755188D01*
X1407972Y2741676D01*
X1411579Y2728518D01*
X1416862Y2715971D01*
X1423822Y2704236D01*
X1432306Y2693517D01*
X1442110Y2684018D01*
X1453083Y2675940D01*
X1465021Y2669387D01*
X1477772Y2664510D01*
X1491030Y2661310D01*
G37*
G36*
X234594Y2151989D02*
G01*
X248208Y2152446D01*
X261670Y2154682D01*
X274675Y2158746D01*
X287070Y2164486D01*
X298551Y2171801D01*
X308965Y2180590D01*
X318109Y2190750D01*
X325831Y2201976D01*
X331978Y2214118D01*
X336448Y2227021D01*
X339191Y2240381D01*
X340106Y2253996D01*
X339191Y2267610D01*
X336448Y2280970D01*
X331978Y2293874D01*
X325831Y2306015D01*
X318109Y2317242D01*
X308965Y2327402D01*
X298551Y2336190D01*
X287070Y2343505D01*
X274675Y2349246D01*
X261670Y2353310D01*
X248208Y2355545D01*
X234594Y2356002D01*
X221030Y2354681D01*
X207771Y2351481D01*
X195021Y2346604D01*
X183083Y2340051D01*
X172110Y2331974D01*
X162306Y2322474D01*
X153822Y2311755D01*
X146862Y2300020D01*
X141579Y2287473D01*
X137972Y2274316D01*
X136144Y2260803D01*
X136144Y2247188D01*
X137972Y2233676D01*
X141579Y2220518D01*
X146862Y2207971D01*
X153822Y2196236D01*
X162306Y2185517D01*
X172110Y2176018D01*
X183083Y2167940D01*
X195021Y2161387D01*
X207771Y2156510D01*
X221030Y2153310D01*
G37*
G36*
X1758594Y2151989D02*
G01*
X1772208Y2152446D01*
X1785670Y2154682D01*
X1798675Y2158746D01*
X1811070Y2164486D01*
X1822551Y2171801D01*
X1832965Y2180590D01*
X1842109Y2190750D01*
X1849831Y2201976D01*
X1855978Y2214118D01*
X1860448Y2227021D01*
X1863191Y2240381D01*
X1864106Y2253996D01*
X1863191Y2267610D01*
X1860448Y2280970D01*
X1855978Y2293874D01*
X1849831Y2306015D01*
X1842109Y2317242D01*
X1832965Y2327402D01*
X1822551Y2336190D01*
X1811070Y2343505D01*
X1798675Y2349246D01*
X1785670Y2353310D01*
X1772208Y2355545D01*
X1758594Y2356002D01*
X1745030Y2354681D01*
X1731772Y2351481D01*
X1719021Y2346604D01*
X1707083Y2340051D01*
X1696110Y2331974D01*
X1686306Y2322474D01*
X1677822Y2311755D01*
X1670862Y2300020D01*
X1665579Y2287473D01*
X1661972Y2274316D01*
X1660143Y2260803D01*
X1660143Y2247188D01*
X1661972Y2233676D01*
X1665579Y2220518D01*
X1670862Y2207971D01*
X1677822Y2196236D01*
X1686306Y2185517D01*
X1696110Y2176018D01*
X1707083Y2167940D01*
X1719021Y2161387D01*
X1731772Y2156510D01*
X1745030Y2153310D01*
G37*
G36*
X1504594Y2151989D02*
G01*
X1518208Y2152446D01*
X1531670Y2154682D01*
X1544675Y2158746D01*
X1557070Y2164486D01*
X1568551Y2171801D01*
X1578965Y2180590D01*
X1588109Y2190750D01*
X1595831Y2201976D01*
X1601978Y2214118D01*
X1606448Y2227021D01*
X1609191Y2240381D01*
X1610106Y2253996D01*
X1609191Y2267610D01*
X1606448Y2280970D01*
X1601978Y2293874D01*
X1595831Y2306015D01*
X1588109Y2317242D01*
X1578965Y2327402D01*
X1568551Y2336190D01*
X1557070Y2343505D01*
X1544675Y2349246D01*
X1531670Y2353310D01*
X1518208Y2355545D01*
X1504594Y2356002D01*
X1491030Y2354681D01*
X1477772Y2351481D01*
X1465021Y2346604D01*
X1453083Y2340051D01*
X1442110Y2331974D01*
X1432306Y2322474D01*
X1423822Y2311755D01*
X1416862Y2300020D01*
X1411579Y2287473D01*
X1407972Y2274316D01*
X1406144Y2260803D01*
X1406144Y2247188D01*
X1407972Y2233676D01*
X1411579Y2220518D01*
X1416862Y2207971D01*
X1423822Y2196236D01*
X1432306Y2185517D01*
X1442110Y2176018D01*
X1453083Y2167940D01*
X1465021Y2161387D01*
X1477772Y2156510D01*
X1491030Y2153310D01*
G37*
G36*
X234594Y2659989D02*
G01*
X248208Y2660446D01*
X261670Y2662682D01*
X274675Y2666746D01*
X287070Y2672486D01*
X298551Y2679801D01*
X308965Y2688590D01*
X318109Y2698750D01*
X325831Y2709976D01*
X331978Y2722118D01*
X336448Y2735021D01*
X339191Y2748381D01*
X340106Y2761996D01*
X339191Y2775610D01*
X336448Y2788970D01*
X331978Y2801874D01*
X325831Y2814015D01*
X318109Y2825242D01*
X308965Y2835402D01*
X298551Y2844190D01*
X287070Y2851505D01*
X274675Y2857246D01*
X261670Y2861310D01*
X248208Y2863545D01*
X234594Y2864002D01*
X221030Y2862681D01*
X207771Y2859481D01*
X195021Y2854604D01*
X183083Y2848051D01*
X172110Y2839974D01*
X162306Y2830474D01*
X153822Y2819755D01*
X146862Y2808020D01*
X141579Y2795473D01*
X137972Y2782316D01*
X136144Y2768803D01*
X136144Y2755188D01*
X137972Y2741676D01*
X141579Y2728518D01*
X146862Y2715971D01*
X153822Y2704236D01*
X162306Y2693517D01*
X172110Y2684018D01*
X183083Y2675940D01*
X195021Y2669387D01*
X207771Y2664510D01*
X221030Y2661310D01*
G37*
G36*
X234594Y2405989D02*
G01*
X248208Y2406446D01*
X261670Y2408682D01*
X274675Y2412746D01*
X287070Y2418486D01*
X298551Y2425801D01*
X308965Y2434590D01*
X318109Y2444750D01*
X325831Y2455976D01*
X331978Y2468118D01*
X336448Y2481021D01*
X339191Y2494381D01*
X340106Y2507996D01*
X339191Y2521610D01*
X336448Y2534970D01*
X331978Y2547874D01*
X325831Y2560015D01*
X318109Y2571242D01*
X308965Y2581402D01*
X298551Y2590190D01*
X287070Y2597505D01*
X274675Y2603246D01*
X261670Y2607310D01*
X248208Y2609545D01*
X234594Y2610002D01*
X221030Y2608681D01*
X207771Y2605481D01*
X195021Y2600604D01*
X183083Y2594051D01*
X172110Y2585974D01*
X162306Y2576474D01*
X153822Y2565755D01*
X146862Y2554020D01*
X141579Y2541473D01*
X137972Y2528316D01*
X136144Y2514803D01*
X136144Y2501188D01*
X137972Y2487676D01*
X141579Y2474518D01*
X146862Y2461971D01*
X153822Y2450236D01*
X162306Y2439517D01*
X172110Y2430018D01*
X183083Y2421940D01*
X195021Y2415387D01*
X207771Y2410510D01*
X221030Y2407310D01*
G37*
G36*
X1758594Y2405989D02*
G01*
X1772208Y2406446D01*
X1785670Y2408682D01*
X1798675Y2412746D01*
X1811070Y2418486D01*
X1822551Y2425801D01*
X1832965Y2434590D01*
X1842109Y2444750D01*
X1849831Y2455976D01*
X1855978Y2468118D01*
X1860448Y2481021D01*
X1863191Y2494381D01*
X1864106Y2507996D01*
X1863191Y2521610D01*
X1860448Y2534970D01*
X1855978Y2547874D01*
X1849831Y2560015D01*
X1842109Y2571242D01*
X1832965Y2581402D01*
X1822551Y2590190D01*
X1811070Y2597505D01*
X1798675Y2603246D01*
X1785670Y2607310D01*
X1772208Y2609545D01*
X1758594Y2610002D01*
X1745030Y2608681D01*
X1731772Y2605481D01*
X1719021Y2600604D01*
X1707083Y2594051D01*
X1696110Y2585974D01*
X1686306Y2576474D01*
X1677822Y2565755D01*
X1670862Y2554020D01*
X1665579Y2541473D01*
X1661972Y2528316D01*
X1660143Y2514803D01*
X1660143Y2501188D01*
X1661972Y2487676D01*
X1665579Y2474518D01*
X1670862Y2461971D01*
X1677822Y2450236D01*
X1686306Y2439517D01*
X1696110Y2430018D01*
X1707083Y2421940D01*
X1719021Y2415387D01*
X1731772Y2410510D01*
X1745030Y2407310D01*
G37*
G36*
X1504594Y2405989D02*
G01*
X1518208Y2406446D01*
X1531670Y2408682D01*
X1544675Y2412746D01*
X1557070Y2418486D01*
X1568551Y2425801D01*
X1578965Y2434590D01*
X1588109Y2444750D01*
X1595831Y2455976D01*
X1601978Y2468118D01*
X1606448Y2481021D01*
X1609191Y2494381D01*
X1610106Y2507996D01*
X1609191Y2521610D01*
X1606448Y2534970D01*
X1601978Y2547874D01*
X1595831Y2560015D01*
X1588109Y2571242D01*
X1578965Y2581402D01*
X1568551Y2590190D01*
X1557070Y2597505D01*
X1544675Y2603246D01*
X1531670Y2607310D01*
X1518208Y2609545D01*
X1504594Y2610002D01*
X1491030Y2608681D01*
X1477772Y2605481D01*
X1465021Y2600604D01*
X1453083Y2594051D01*
X1442110Y2585974D01*
X1432306Y2576474D01*
X1423822Y2565755D01*
X1416862Y2554020D01*
X1411579Y2541473D01*
X1407972Y2528316D01*
X1406144Y2514803D01*
X1406144Y2501188D01*
X1407972Y2487676D01*
X1411579Y2474518D01*
X1416862Y2461971D01*
X1423822Y2450236D01*
X1432306Y2439517D01*
X1442110Y2430018D01*
X1453083Y2421940D01*
X1465021Y2415387D01*
X1477772Y2410510D01*
X1491030Y2407310D01*
G37*
G36*
X1758594Y2659989D02*
G01*
X1772208Y2660446D01*
X1785670Y2662682D01*
X1798675Y2666746D01*
X1811070Y2672486D01*
X1822551Y2679801D01*
X1832965Y2688590D01*
X1842109Y2698750D01*
X1849831Y2709976D01*
X1855978Y2722118D01*
X1860448Y2735021D01*
X1863191Y2748381D01*
X1864106Y2761996D01*
X1863191Y2775610D01*
X1860448Y2788970D01*
X1855978Y2801874D01*
X1849831Y2814015D01*
X1842109Y2825242D01*
X1832965Y2835402D01*
X1822551Y2844190D01*
X1811070Y2851505D01*
X1798675Y2857246D01*
X1785670Y2861310D01*
X1772208Y2863545D01*
X1758594Y2864002D01*
X1745030Y2862681D01*
X1731772Y2859481D01*
X1719021Y2854604D01*
X1707083Y2848051D01*
X1696110Y2839974D01*
X1686306Y2830474D01*
X1677822Y2819755D01*
X1670862Y2808020D01*
X1665579Y2795473D01*
X1661972Y2782316D01*
X1660143Y2768803D01*
X1660143Y2755188D01*
X1661972Y2741676D01*
X1665579Y2728518D01*
X1670862Y2715971D01*
X1677822Y2704236D01*
X1686306Y2693517D01*
X1696110Y2684018D01*
X1707083Y2675940D01*
X1719021Y2669387D01*
X1731772Y2664510D01*
X1745030Y2661310D01*
G37*

%LPD*%
D10*
X2399990Y749988D02*
G01*
X2399990Y3024982D01*
X2399995Y3024987D01*
X4599993Y754001D02*
G01*
X4599990Y754001D01*
X4599990Y3524986D01*
D11*
X2200000Y50002D02*
G01*
X2200000Y1050000D01*
X1761997Y1237995D02*
G01*
X2016353Y1237995D01*
X2199995Y1054354D01*
X4199991Y1261998D02*
G01*
X4199991Y99999D01*
X1999995Y299999D02*
G01*
X1999995Y899998D01*
X1761997Y983995D02*
G01*
X1915998Y983995D01*
X1999995Y899998D01*
X4399991Y1007998D02*
G01*
X4399991Y299999D01*
X599998Y729995D02*
G01*
X599998Y1849996D01*
X499998Y475995D02*
G01*
X499998Y1099997D01*
X399999Y399999D02*
G01*
X399999Y1349997D01*
X4100068Y2278126D02*
G01*
X4100068Y2649981D01*
X4199890Y2024126D02*
G01*
X4199991Y2899994D01*
X4299991Y1770001D02*
G01*
X4299991Y1770001D01*
X4299991Y3399993D01*
X4399991Y1515998D02*
G01*
X4399991Y3149993D01*
X2699994Y2277998D02*
G01*
X2699994Y499998D01*
X2800095Y1516126D02*
G01*
X2800095Y199897D01*
D12*
G01*
X2999993Y499998D03*
G01*
X2999993Y753998D03*
G01*
X5285993Y753998D03*
G01*
X5285993Y499998D03*
G01*
X2999993Y1007998D03*
G01*
X2999993Y1261998D03*
G01*
X5285993Y1261998D03*
G01*
X5285993Y1007998D03*
G01*
X2999993Y1515998D03*
G01*
X2999993Y1769998D03*
G01*
X5285993Y1769998D03*
G01*
X5285993Y1515998D03*
G01*
X2999993Y2023998D03*
G36*
X2899994Y2377998D02*
G01*
X3099993Y2377998D01*
X3099993Y2177999D01*
X2899994Y2177999D01*
G37*
G01*
X5285993Y2277998D03*
G01*
X5285993Y2023998D03*
D13*
G01*
X237997Y3523995D03*
G01*
X237997Y3269995D03*
G01*
X237997Y3015995D03*
G01*
X237997Y2761995D03*
G01*
X237997Y2507995D03*
G01*
X237997Y2253995D03*
G01*
X237997Y1999995D03*
G01*
X237997Y1745995D03*
G01*
X237997Y1491995D03*
G01*
X237997Y1237995D03*
G01*
X237997Y983995D03*
G01*
X237997Y729995D03*
G01*
X237997Y475995D03*
G01*
X237997Y221995D03*
G01*
X491997Y221995D03*
G01*
X745997Y221995D03*
G01*
X999997Y221995D03*
G01*
X1253997Y221995D03*
G01*
X1507997Y221995D03*
G01*
X1761997Y221995D03*
G01*
X1761997Y475995D03*
G01*
X1761997Y729995D03*
G01*
X1761997Y983995D03*
G01*
X1761997Y1237995D03*
G01*
X1761997Y1491995D03*
G01*
X1761997Y1745995D03*
G01*
X1761997Y1999995D03*
G01*
X1761997Y2253995D03*
G01*
X1761997Y2507995D03*
G01*
X1761997Y2761995D03*
G01*
X1761997Y3015995D03*
G01*
X1761997Y3269995D03*
G01*
X1761997Y3523995D03*
G01*
X1507997Y3269995D03*
G01*
X1507997Y2761995D03*
G01*
X1507997Y2507995D03*
G01*
X1507997Y2253995D03*
D14*
G01*
X2399995Y749998D03*
G01*
X2399995Y3024992D03*
G01*
X2799994Y1515998D03*
G01*
X2799994Y199999D03*
G01*
X2699994Y2277998D03*
G01*
X2699994Y499998D03*
G01*
X4599990Y753998D03*
G01*
X4599990Y3524991D03*
G01*
X4399991Y1515998D03*
G01*
X4399991Y3149993D03*
G01*
X4299991Y1769998D03*
G01*
X4299991Y3399993D03*
G01*
X4199991Y2899994D03*
G01*
X4199890Y2024126D03*
G01*
X4099991Y2277998D03*
G01*
X4099991Y2649994D03*
G01*
X399999Y399999D03*
G01*
X399999Y1349997D03*
G01*
X499998Y475995D03*
G01*
X499998Y1099997D03*
G01*
X599998Y729995D03*
G01*
X599998Y1849996D03*
G01*
X4399991Y1007998D03*
G01*
X4399991Y299999D03*
G01*
X1999995Y299999D03*
G01*
X4199991Y1261998D03*
G01*
X4199991Y99999D03*
G01*
X2199995Y99999D03*
M02*
